<?xml version="1.0" encoding="UTF-8" standalone="no"?>
<svg
   xmlns:dc="http://purl.org/dc/elements/1.1/"
   xmlns:cc="http://creativecommons.org/ns#"
   xmlns:rdf="http://www.w3.org/1999/02/22-rdf-syntax-ns#"
   xmlns:svg="http://www.w3.org/2000/svg"
   xmlns="http://www.w3.org/2000/svg"
   xmlns:sodipodi="http://sodipodi.sourceforge.net/DTD/sodipodi-0.dtd"
   xmlns:inkscape="http://www.inkscape.org/namespaces/inkscape"
   width="100%"
   height="100%"
   viewBox="0 0 1920 1080"
   version="1.1"
   id="svg10"
   sodipodi:docname="Bygghemma.svg"
   inkscape:version="1.0.2 (e86c870879, 2021-01-15)">
  <metadata
     id="metadata16">
    <rdf:RDF>
      <cc:Work
         rdf:about="">
        <dc:format>image/svg+xml</dc:format>
        <dc:type
           rdf:resource="http://purl.org/dc/dcmitype/StillImage" />
      </cc:Work>
    </rdf:RDF>
  </metadata>
  <defs
     id="defs14" />
  <sodipodi:namedview
     pagecolor="#ffffff"
     bordercolor="#666666"
     borderopacity="1"
     objecttolerance="10"
     gridtolerance="10"
     guidetolerance="10"
     inkscape:pageopacity="0"
     inkscape:pageshadow="2"
     inkscape:window-width="1920"
     inkscape:window-height="1017"
     id="namedview12"
     showgrid="false"
     inkscape:zoom="0.33880208"
     inkscape:cx="221.52495"
     inkscape:cy="270.42184"
     inkscape:window-x="-8"
     inkscape:window-y="-8"
     inkscape:window-maximized="1"
     inkscape:current-layer="g28" />
  <g
     id="g22"
     transform="matrix(6.2939593,0,0,6.2939593,481.10684,240.98621)">
    <g
       id="g28">
      <g
         id="g34"
         transform="matrix(1.0597035,0,0,1.0597035,5.3366392,-2.8363974)">
        <path
           fill="#e30613"
           d="m 0,34.218059 h 23.16 v 26.58 H 0 Z"
           id="path2" />
        <path
           fill="#c90c0f"
           d="m 3.97,34.218059 h 3.97 v 26.58 H 3.97 Z m 7.61,0 h 3.97 v 26.58 h -3.97 z m 7.94,0 h 3.97 v 26.58 h -3.97 z"
           id="path4" />
        <path
           d="m 31.14,52.063059 v 1.7 H 29.2 v -17.16 h 2.05 v 6.25 c 0.36,-0.82 1.4,-1.67 3.28,-1.67 2.5,0 4.05,1.72 4.05,4.82 v 3.1 c 0,3.17 -1.55,4.88 -4.05,4.88 -2.01,-0.01 -2.86,-0.88 -3.39,-1.92 z m 5.34,-3.23 v -2.55 c 0,-2.15 -0.88,-3.39 -2.63,-3.39 -1.64,0 -2.61,1.13 -2.61,3.28 v 2.67 c 0,2.23 0.93,3.43 2.61,3.43 1.68,0 2.65,-1.23 2.65,-3.44 z m 4.86,9.65 1.66,-4.78 -4.25,-12.38 h 2.3 l 3.05,9.6 3.06,-9.6 h 2.26 l -5.93,17.16 z m 8.32,-9.39 v -3.1 c 0,-3.03 1.5,-4.78 3.83,-4.78 1.88,0 3.2,0.86 3.59,1.84 v -1.73 h 1.94 v 12.56 c 0,3 -1.04,4.6 -4.65,4.6 -3.6,0 -4.56,-1.82 -4.56,-3.72 h 2 c 0,1.06 0.7,2.08 2.55,2.08 1.86,0 2.59,-0.86 2.59,-2.54 v -2.24 c -0.35,0.84 -1.37,1.9 -3.27,1.9 -2.47,0 -4.02,-1.7 -4.02,-4.87 z m 7.3,-0.09 v -3.16 c 0,-1.97 -1,-2.97 -2.6,-2.97 -1.71,0 -2.62,1.17 -2.62,3.39 v 2.63 c 0,2.26 0.89,3.43 2.61,3.43 1.64,0 2.61,-1.1 2.61,-3.32 z m 3.46,0.09 v -3.1 c 0,-3.03 1.5,-4.78 3.83,-4.78 1.89,0 3.21,0.86 3.59,1.84 v -1.73 h 1.95 v 12.56 c 0,3 -1.04,4.6 -4.65,4.6 -3.61,0 -4.56,-1.82 -4.56,-3.72 h 2 c 0,1.06 0.69,2.08 2.54,2.08 1.86,0 2.61,-0.86 2.61,-2.54 v -2.24 c -0.35,0.84 -1.37,1.9 -3.28,1.9 -2.48,0 -4.03,-1.7 -4.03,-4.87 z m 7.31,-0.09 v -3.16 c 0,-1.97 -1.02,-2.97 -2.6,-2.97 -1.71,0 -2.62,1.17 -2.62,3.39 v 2.63 c 0,2.26 0.88,3.43 2.61,3.43 1.63,0 2.61,-1.1 2.61,-3.32 z m 6.47,4.76 h -2.87 v -17.23 h 2.88 v 5.99 a 3.47,3.47 0 0 1 2.87,-1.35 c 2.03,0 3.6,1.12 3.6,4.47 v 8.12 h -2.9 v -7 c 0,-2.06 -0.3,-2.97 -1.79,-2.97 -1.22,0 -1.77,0.64 -1.77,2.24 l -0.01,7.73 z m 17.02,-3.98 v 0.09 c 0,2.28 -1.72,4.12 -4.65,4.12 -2.92,0 -4.67,-1.89 -4.67,-4.88 v -3.03 c 0,-3.03 1.7,-4.91 4.67,-4.91 2.97,0 4.65,1.74 4.65,4.8 v 2.44 h -6.44 v 1.35 a 1.83,1.83 0 0 0 1.8,1.86 c 0.97,0 1.77,-0.56 1.77,-1.58 v -0.26 z m -6.44,-3.41 h 3.57 v -0.6 c 0,-1.67 -0.69,-2.22 -1.78,-2.22 -1,0 -1.79,0.58 -1.79,1.91 v 0.9 z m 10.61,7.39 H 92.5 v -12.44 h 2.7 v 1.28 c 0.15,-0.33 0.88,-1.41 2.57,-1.41 1.23,-0.07 2.37,0.6 2.92,1.7 a 3.37,3.37 0 0 1 3.07,-1.7 c 2.08,0 3.3,1.35 3.3,4.36 v 8.21 h -2.9 v -8.34 c 0,-1.24 -0.67,-1.7 -1.47,-1.7 -0.75,0 -1.46,0.48 -1.46,1.67 v 8.37 h -2.9 v -8.34 c 0,-1.22 -0.62,-1.7 -1.48,-1.7 -0.76,0 -1.46,0.46 -1.46,1.67 l -0.01,8.37 z m 15.94,0 h -2.89 v -12.44 h 2.7 v 1.28 a 2.77,2.77 0 0 1 2.57,-1.41 c 1.23,-0.07 2.37,0.6 2.92,1.7 a 3.36,3.36 0 0 1 3.06,-1.7 c 2.08,0 3.3,1.35 3.3,4.36 v 8.21 h -2.9 v -8.34 c 0,-1.24 -0.67,-1.7 -1.47,-1.7 -0.79,0 -1.46,0.48 -1.46,1.67 v 8.37 h -2.9 v -8.34 c 0,-1.22 -0.62,-1.7 -1.48,-1.7 -0.75,0 -1.46,0.46 -1.46,1.67 z m 12.87,-4.4 v -3.61 c 0,-3.21 1.51,-4.58 3.68,-4.58 1.82,0 2.77,1.15 2.95,1.54 v -1.4 h 2.7 v 12.45 h -2.7 v -1.36 c -0.18,0.42 -1.13,1.58 -2.95,1.58 -2.2,0 -3.67,-1.43 -3.67,-4.61 z m 6.45,-0.22 v -3.24 c 0,-1.5 -0.75,-2.17 -1.77,-2.17 -1.02,0 -1.75,0.7 -1.75,2.23 v 3.17 c 0,1.55 0.7,2.23 1.77,2.23 1.06,0 1.75,-0.7 1.75,-2.23 z"
           fill="#1d1d1b"
           id="path6" />
        <path
           d="m 9.5,45.938059 h 0.05 c 1.07,-1.4 2.5,-2.45 4.54,-2.45 2.3,0 3.7,1.44 3.7,3.65 v 6.19 c 0,2.72 -3.4,2.76 -3.4,2.76 h -1.6 v -1.72 h 0.89 c 0.73,0 1.04,-0.29 1.04,-1.04 v -5.98 c 0,-1.33 -0.91,-1.82 -2.3,-1.82 -1.37,0 -2.92,1.43 -2.92,3.71 v 4.09 c 0,0.75 0.31,1.04 1.04,1.04 h 0.34 v 1.72 H 4.9 v -1.72 h 0.48 c 0.73,0 1.04,-0.29 1.04,-1.04 v -11.64 c 0,-0.76 -0.31,-1.05 -1.04,-1.05 H 4.9 v -1.71 h 4.6 v 7.02 z m 9.85,9.59 a 0.75,0.75 0 0 1 -0.23,0.4 0.73,0.73 0 0 1 -0.23,0.11 1.24,1.24 0 0 1 -0.67,0 0.75,0.75 0 0 1 -0.24,-0.12 0.52,0.52 0 0 1 -0.14,-0.18 0.85,0.85 0 0 1 -0.08,-0.22 1.67,1.67 0 0 1 0,-0.51 0.9,0.9 0 0 1 0.08,-0.23 0.6,0.6 0 0 1 0.14,-0.18 0.93,0.93 0 0 1 0.57,-0.15 c 0.14,0 0.28,0.01 0.4,0.06 0.1,0.04 0.2,0.1 0.26,0.18 0.06,0.08 0.1,0.16 0.13,0.26 a 1.51,1.51 0 0 1 0.02,0.57 z m -0.2,-0.53 a 0.56,0.56 0 0 0 -0.1,-0.2 0.4,0.4 0 0 0 -0.2,-0.14 0.82,0.82 0 0 0 -0.3,-0.04 c -0.1,0 -0.2,0.01 -0.3,0.04 a 0.42,0.42 0 0 0 -0.19,0.14 0.57,0.57 0 0 0 -0.1,0.2 1,1 0 0 0 -0.02,0.26 1,1 0 0 0 0.02,0.26 c 0.02,0.08 0.06,0.15 0.1,0.2 0.05,0.07 0.12,0.12 0.2,0.15 0.2,0.06 0.4,0.06 0.6,0 a 0.42,0.42 0 0 0 0.19,-0.14 0.57,0.57 0 0 0 0.1,-0.2 1,1 0 0 0 0.03,-0.27 z m -0.46,0.69 -0.3,-0.3 v 0.3 h -0.18 v -0.84 h 0.34 c 0.07,0 0.13,0 0.2,0.02 0.04,0.01 0.08,0.04 0.12,0.07 l 0.05,0.09 v 0.1 c 0,0.15 -0.1,0.23 -0.28,0.23 h -0.08 l 0.37,0.33 z m -0.14,-0.7 H 18.4 v 0.26 h 0.25 a 0.1,0.1 0 0 0 0.08,-0.07 v -0.04 c 0.02,-0.1 -0.04,-0.15 -0.17,-0.15 z"
           fill="#ffffff"
           id="path8" />
      </g>
    </g>
  </g>
</svg>
