<?xml version="1.0" encoding="UTF-8" standalone="no"?>
<svg
   xmlns:dc="http://purl.org/dc/elements/1.1/"
   xmlns:cc="http://creativecommons.org/ns#"
   xmlns:rdf="http://www.w3.org/1999/02/22-rdf-syntax-ns#"
   xmlns:svg="http://www.w3.org/2000/svg"
   xmlns="http://www.w3.org/2000/svg"
   xmlns:sodipodi="http://sodipodi.sourceforge.net/DTD/sodipodi-0.dtd"
   xmlns:inkscape="http://www.inkscape.org/namespaces/inkscape"
   enable-background="new 0 0 850.4 197"
   width="100%"
   height="100%"
   viewBox="0 0 1920 1080"
   version="1.1"
   id="svg10"
   sodipodi:docname="Cervera.svg"
   inkscape:version="1.0.2 (e86c870879, 2021-01-15)">
  <metadata
     id="metadata16">
    <rdf:RDF>
      <cc:Work
         rdf:about="">
        <dc:format>image/svg+xml</dc:format>
        <dc:type
           rdf:resource="http://purl.org/dc/dcmitype/StillImage" />
      </cc:Work>
    </rdf:RDF>
  </metadata>
  <defs
     id="defs14" />
  <sodipodi:namedview
     pagecolor="#ffffff"
     bordercolor="#666666"
     borderopacity="1"
     objecttolerance="10"
     gridtolerance="10"
     guidetolerance="10"
     inkscape:pageopacity="0"
     inkscape:pageshadow="2"
     inkscape:window-width="1920"
     inkscape:window-height="1017"
     id="namedview12"
     showgrid="false"
     inkscape:zoom="0.4791385"
     inkscape:cx="672.2284"
     inkscape:cy="642.02835"
     inkscape:window-x="-8"
     inkscape:window-y="-8"
     inkscape:window-maximized="1"
     inkscape:current-layer="svg10" />
  <g
     fill="#5a5c66"
     id="g8"
     transform="matrix(1.1717848,0,0,1.1717848,461.69851,424.55675)">
    <path
       d="m 158.6,62.6 c 6.2,2.4 11.4,-2 13.5,-6.4 4.3,-8.6 3.6,-21.3 0.7,-28.7 C 167.6,14.2 155.7,3.7 135.5,0.9 99.6,-4.1 64.8,13.6 45.9,29.1 23.9,47.2 0,80.2 0,124.1 c 0,43 29.8,72.6 78.1,72.9 44.2,0.2 71.7,-29.5 75.7,-34.2 1.7,-2 5.7,-7 3.3,-10 -2.4,-2.9 -5.9,-1.8 -11.7,1.7 -25.6,15.7 -48.8,20.5 -69.8,15 -19.5,-5.1 -40.8,-30.6 -25.6,-76 17.9,-53.4 59.4,-75.3 84.1,-74.9 5.2,0.1 11.8,0.5 17.1,5.3 6,5.5 6.4,15.5 3.7,22.4 -2.2,5.3 -4,13.3 3.7,16.3 z"
       id="path2" />
    <path
       d="m 371.7,150.9 c -15.3,16.5 -20.8,16.9 -23.2,15.5 -2.7,-1.5 -1,-12.4 3.2,-24.8 3.8,-11.2 14.3,-36.1 17,-41.8 2.3,-4.9 4,-8.9 3.2,-12.2 -1.4,-5.6 -5.3,-15.3 -13.8,-14.7 -9.1,0.7 -25.6,3 -36.6,2.3 1.2,-3.3 4.4,-12.2 6,-18.7 4.1,-17.2 -7.8,-22.3 -20.4,-18 -11.1,3.2 -26,17.2 -26.1,29.9 0,7.5 4.4,14.1 19.4,18.7 -9.6,22.2 -28.1,58.4 -58.6,73.3 -2.5,1.2 -26.7,13.7 -41.8,-6.6 -3.2,-4.4 -6.2,-14.6 -5.4,-21.5 27.6,0 48.3,-8.4 59.1,-18.9 25.8,-25.2 17.6,-55.1 -21.2,-55.5 -22.2,-0.2 -67.8,12.5 -72.5,66.9 -5.6,64.4 55.8,70 89.4,54.1 29.9,-14.2 51.9,-46 66.9,-88.2 3.8,0.5 11.6,1.1 16.9,1.2 0.7,0 1.6,1 1.2,1.9 -4.5,11.4 -12.4,28.2 -16.3,53.2 -2.6,16.5 1.2,33.1 15.5,37.8 23.4,7.7 42,-12.2 49.2,-26 1.8,-3.4 5.8,-12 2.4,-14.6 -4.3,-3.3 -10.4,3.4 -13.5,6.7 z M 217.8,79.7 c 4.4,-3.5 12.4,-9 16.5,-5.8 3.6,2.8 -2.6,15.5 -4.5,18.7 -8.2,14.4 -23.1,22.7 -34,23 1.4,-8 10.6,-26.8 22,-35.9 z m 95.4,-25.2 c -2.1,7.1 -4.4,12.9 -7,18.8 -10.2,-2.1 -2.4,-13.8 2.7,-19.6 3.2,-3.6 5.9,-4.5 4.3,0.8 z"
       id="path4" />
    <path
       d="m 850.3,178.9 c -0.6,-2.1 -2.5,-2.3 -4.1,-2.3 -5,0 -10.5,0.8 -14.6,-2 -4.3,-3 -5.4,-8.8 -5.9,-13.6 -0.8,-9.9 0.6,-22.9 2.4,-37.3 1,-7.7 5.4,-29.6 5,-33.5 C 832.1,80 822,71 810.9,75.3 c -2.3,0.9 -4.3,2.1 -6.3,3.4 C 793,54 770.7,52.8 755.5,63.1 c -21.9,15 -29.5,49.2 -30.3,58 -0.2,2.2 -3.2,5.4 -5.2,7.9 -6.2,7.6 -34.7,41.6 -41.4,37.1 -2.5,-1.7 1.4,-11.4 6.7,-23.8 4.8,-11.2 17.5,-36.5 20.6,-42.2 2.7,-4.9 4.8,-8.9 4.3,-12.2 -0.9,-5.6 -4,-15.3 -12.6,-14.7 -9.2,0.7 -27.2,2.9 -37.6,2.1 1.2,-3.3 4.4,-12 6,-18.5 4.1,-17.2 -8.4,-22.3 -21,-18 -11,3.2 -25.9,17.2 -25.9,29.9 0,7.5 4.7,14.6 19.4,18.7 -11,22.6 -30.5,58.8 -58.6,73.3 -2.5,1.3 -25,13.7 -40.1,-6.6 -3.2,-4.4 -6.2,-14.6 -5.4,-21.5 27.6,0 48.3,-8.4 59.1,-18.9 25.8,-25.2 17.6,-55.1 -21.2,-55.5 -20.2,-0.2 -59.7,10.3 -70.2,53.1 -2.5,-0.8 -4.9,-1.9 -7.1,-3.4 -3.1,-2.2 -5.6,-5.2 -6.9,-8.7 3.1,-6.5 9.6,-21.3 9.1,-29.1 -0.6,-9.3 -7.7,-14.6 -16.9,-13.1 -19.7,3.2 -20.4,24.6 -13.2,40.2 -1.2,3.1 -15.9,39.3 -25.3,54.1 -5.3,8.4 -8.3,11.8 -10,10.6 -2.2,-1.5 -1,-11.5 -0.6,-20.1 0.2,-5.6 1.6,-30.5 2,-43.2 0.4,-12.6 -0.3,-29.3 -14.7,-37.3 -14.1,-7.8 -29.7,-8.7 -44.4,-6.8 -4.4,0.6 -8.7,2.7 -8.5,5.3 0.2,1.7 2,3.6 8.3,5.5 8.2,2.5 19.3,6.8 21.6,22.5 2,13.7 -1.3,70.8 2.3,87.2 1.9,8.8 7.9,15.7 18.4,16 8.3,0.2 17.9,-2 28.6,-13.4 6.1,-6.5 11.9,-14.5 15.4,-20.6 8,-13.8 14.1,-26.3 20.3,-40.2 2.8,2.5 5.8,4.6 8.9,6.3 2.7,1.5 6.5,3.6 10.2,4.5 -3.9,62.1 54.7,67.4 87.9,51.7 29.9,-14.2 50.1,-49.9 67,-88.5 3.9,0.7 11.9,1.6 16.7,1.5 0.7,0 1.5,1 1,1.9 -6,12.4 -14.5,28.4 -20.9,53.5 -4.2,16.5 -1.4,32.8 12.3,37.8 10,3.7 26.7,0.3 44.1,-17.1 2.3,-2.3 11.1,-11.1 15.8,-18.2 0,11.5 4.8,23.4 9.2,28.1 9,9.9 22.1,10.5 32.8,5.5 15.9,-7.4 26.4,-26.7 29.6,-31.9 0.8,-1.3 1.3,-0.4 1.4,0.6 0,2.9 0,5.1 0.2,8 1.5,20.5 10,30.2 23,33.4 11.7,2.8 29.1,-3 30.8,-13 -0.1,-0.8 -0.1,-1.4 -0.2,-2 z M 557.8,79.7 c 3.1,-2.6 12.4,-9 16.5,-5.8 3.6,2.8 -2.6,15.5 -4.5,18.7 -8.2,14.4 -23.1,22.7 -34,23 1.4,-8.7 9.6,-25.6 22,-35.9 z m 93.7,-25.2 c -2,7.1 -4.4,12.7 -7,18.6 -10.5,-2.1 -2.4,-13.6 2.7,-19.4 3.2,-3.6 5.5,-3.4 4.3,0.8 z m 144.2,60.1 c -7.5,13.5 -14,22.9 -20.7,31.7 -4.2,5.5 -12.7,16.6 -17.9,15.1 -6.4,-1.9 -3.9,-21.6 -1.7,-32.1 2.8,-13.6 9.7,-34.9 22.3,-47.8 7.4,-7.6 11.8,-1.3 14.9,6.4 2.2,5.5 4.2,12.5 5,18.3 0.2,1.7 -0.1,5.2 -1.9,8.4 z"
       id="path6" />
  </g>
</svg>
