<?xml version="1.0" encoding="UTF-8" standalone="no"?>
<svg
   xmlns:dc="http://purl.org/dc/elements/1.1/"
   xmlns:cc="http://creativecommons.org/ns#"
   xmlns:rdf="http://www.w3.org/1999/02/22-rdf-syntax-ns#"
   xmlns:svg="http://www.w3.org/2000/svg"
   xmlns="http://www.w3.org/2000/svg"
   xmlns:sodipodi="http://sodipodi.sourceforge.net/DTD/sodipodi-0.dtd"
   xmlns:inkscape="http://www.inkscape.org/namespaces/inkscape"
   width="100%"
   height="100%"
   viewBox="0 0 1920 1080"
   aria-labelledby="title"
   role="img"
   version="1.1"
   id="svg23"
   sodipodi:docname="Euromaster.svg"
   inkscape:version="1.0.2 (e86c870879, 2021-01-15)">
  <metadata
     id="metadata29">
    <rdf:RDF>
      <cc:Work
         rdf:about="">
        <dc:format>image/svg+xml</dc:format>
        <dc:type
           rdf:resource="http://purl.org/dc/dcmitype/StillImage" />
      </cc:Work>
    </rdf:RDF>
  </metadata>
  <defs
     id="defs27" />
  <sodipodi:namedview
     pagecolor="#ffffff"
     bordercolor="#666666"
     borderopacity="1"
     objecttolerance="10"
     gridtolerance="10"
     guidetolerance="10"
     inkscape:pageopacity="0"
     inkscape:pageshadow="2"
     inkscape:window-width="1920"
     inkscape:window-height="1017"
     id="namedview25"
     showgrid="false"
     inkscape:zoom="0.67760417"
     inkscape:cx="960"
     inkscape:cy="540"
     inkscape:window-x="-8"
     inkscape:window-y="-8"
     inkscape:window-maximized="1"
     inkscape:current-layer="svg23"
     inkscape:document-rotation="0" />
  <title
     id="logo-title">Euromaster</title>
  <path
     fill="#164194"
     d="M 1411.2375,435.53852 H 508.76249 v 208.92297 h 902.47501 z"
     id="path3"
     style="stroke-width:4.51237" />
  <path
     fill="#ffffff"
     d="M 515.98229,442.75832 H 1404.0177 V 636.79045 H 515.98229 Z"
     id="path5"
     style="stroke-width:4.51237" />
  <path
     fill="#009640"
     d="m 530.87313,536.16448 v -79.4178 h 166.0554 v 166.05541 h -166.0554 z"
     id="path7"
     style="stroke-width:4.51237" />
  <path
     fill="#ffed00"
     d="m 617.05949,584.89814 v 30.68415 c 39.7089,-1.80495 71.29553,-33.39158 73.10048,-72.64924 h -30.68415 c -2.25619,22.56187 -20.30569,40.61137 -42.41633,41.96509"
     id="path9"
     style="stroke-width:4.51237" />
  <path
     fill="#164194"
     d="m 610.29093,456.74668 h -79.4178 v 79.4178 h 79.4178 z"
     id="path11"
     style="stroke-width:4.51237" />
  <path
     fill="#ffed00"
     d="m 548.47139,505.0291 -7.2198,8.57351 6.76856,16.69579 7.2198,-9.02475 z m 30.68415,-31.13539 -10.8297,3.6099 -3.6099,17.59826 10.8297,-3.6099 z m -16.24455,30.68415 -0.90247,-17.59826 -9.47599,5.86608 0.90247,18.0495 z m 36.55024,-37.45271 -11.28094,0.45123 -8.57351,15.34208 h 11.28094 z m -18.50074,21.20816 14.4396,10.37846 10.37846,-4.51237 -14.4396,-10.37847 z m -13.53712,11.73217 16.69578,5.41485 8.57352,-7.67103 -16.69579,-5.41485 z m -9.47599,14.89084 17.59826,0.45124 5.86609,-10.37846 h -18.0495 z m -4.51238,18.0495 17.14703,-5.86609 1.80495,-11.28093 -16.69579,5.86608 z m 14.4396,9.92723 h -30.68415 c 1.80495,39.25766 33.39158,71.29552 73.10048,72.64924 v -30.68415 c -23.01311,-1.35372 -40.61138,-19.40322 -42.41633,-41.96509 m 49.18489,-79.4178 v 30.68415 c 22.56188,1.35371 40.61138,19.40321 41.96509,41.96508 h 30.68415 c -1.80495,-39.25766 -33.39157,-71.29552 -72.64924,-72.64923"
     id="path13"
     style="stroke-width:4.51237" />
  <g
     fill="#164194"
     id="g19"
     transform="matrix(4.5123751,0,0,4.5123751,508.76249,435.53852)">
    <path
       d="M 56.7,22 H 50.6 V 18.4 H 56 v -3.8 h -5.4 v -3.2 h 6.2 L 56.5,7.5 H 46.3 v 18.4 h 9.9 z m 9.4,4.1 c 4.5,0 6.5,-2.7 6.5,-8 V 7.5 h -3.9 v 10.9 c 0,2.4 -0.7,3.6 -2.6,3.6 -1.9,0 -2.6,-1.2 -2.6,-3.6 V 7.5 h -3.9 v 10.6 c 0,5.4 2,8 6.5,8 m 13.6,-7.7 5.1,8.1 4.3,-1.5 -4.2,-6.4 c 1.8,-0.7 4,-3.4 2.4,-7.7 C 85.6,6.4 78.9,6.4 75.4,7.5 v 18.3 h 4.3 z m 0,-6.9 c 0.8,-0.6 3.8,0.1 3.8,2.6 0,2.2 -1.9,3.7 -3.8,3.6 z m 17,14.8 c 4.7,0 7.3,-4.3 7.3,-9.6 0,-5.3 -2.6,-9.6 -7.3,-9.6 -4.7,0 -7.3,4.3 -7.3,9.6 0,5.3 2.6,9.6 7.3,9.6 m 0,-15.1 c 2.5,0 3.4,2.7 3.4,5.5 0,2.7 -1,5.5 -3.4,5.5 -2.5,0 -3.4,-2.7 -3.4,-5.5 -0.1,-2.7 0.9,-5.5 3.4,-5.5 m 13.5,5 3.8,7.4 3.7,-7.4 0.4,9.6 h 4.1 L 121.5,7.5 h -3.8 l -3.7,6.8 -3.8,-6.8 h -3.8 l -0.7,18.3 h 4.2 z m 18.2,7.4 h 6.4 l 0.7,2.2 H 140 L 133.8,7.5 h -4.4 l -6.2,18.3 h 4.4 z m 3.2,-11 2.1,7.2 h -4.2 z m 14.2,9.5 c -1.2,0 -2.3,-1 -3.2,-1.8 l -2.4,3.4 c 1.5,1.4 3.4,2.3 5.4,2.3 3.3,0 6.1,-1.9 6.1,-5.9 0,-1.7 -0.8,-2.8 -1.5,-3.6 -2.4,-2.3 -5.6,-2.4 -5.6,-4.3 0,-1.1 0.7,-1.5 1.5,-1.5 1.2,0 2.3,1 3.2,1.8 l 2.4,-3.4 c -1.5,-1.4 -3.4,-2.3 -5.4,-2.3 -3.3,0 -6.1,1.9 -6.1,5.9 0,1.9 0.9,3 1.8,3.8 2.4,2.1 5.4,2.3 5.3,4.1 0,1.1 -0.7,1.5 -1.5,1.5"
       id="path15" />
    <path
       d="m 157,25.9 h 4.3 V 11.3 h 3.4 l 0.4,-3.8 h -11.9 l -0.4,3.8 h 4.2 z m 26.6,-7.5 5.1,8.1 4.3,-1.5 -4.2,-6.4 c 1.8,-0.7 4,-3.4 2.4,-7.7 -1.7,-4.5 -8.4,-4.5 -11.9,-3.4 v 18.3 h 4.3 z m 0,-6.9 c 0.8,-0.6 3.8,0.1 3.8,2.6 0,2.2 -1.9,3.7 -3.8,3.6 z M 177.2,22 h -6.1 v -3.6 h 5.4 v -3.8 h -5.4 v -3.2 h 6.1 L 177,7.5 h -10.2 v 18.4 h 9.9 z"
       id="path17" />
  </g>
  <path
     d="m 732.12506,584.89814 v 25.72053 h -5.86609 v -25.72053 h -8.57351 v -5.41485 h 22.56187 v 5.41485 z m 19.40321,30.23291 c -2.25619,5.86609 -5.86609,6.76856 -10.8297,6.31732 v -5.41485 c 3.15866,0 4.51238,-0.45123 5.41485,-3.15866 l 0.45124,-1.80495 -9.02475,-23.46435 h 6.31732 l 5.86609,16.69579 5.41485,-16.69579 h 6.31733 z m 26.17178,-22.11064 c -2.25619,-0.45124 -4.51238,0 -5.86609,1.35371 -1.35371,1.35372 -1.35371,3.15867 -1.35371,4.96362 v 11.28093 h -5.86609 v -23.01311 h 5.86609 v 2.25619 c 1.80495,-2.25619 4.51237,-3.15866 7.67103,-2.70743 v 5.86609 z m 8.12227,8.57351 c 0.90248,2.70743 3.15866,4.51238 5.86609,4.51238 1.80495,0 4.06114,-0.90248 4.96361,-2.70743 h 6.31733 c -1.35372,4.51238 -5.41485,8.12228 -11.28094,8.12228 -6.31733,0 -11.73218,-5.41485 -11.73218,-12.18341 0,-6.76857 5.41485,-12.18342 11.73218,-12.18342 6.76856,0 12.63465,5.41485 11.73217,14.4396 z m 11.28094,-4.96361 c -0.90248,-2.70742 -3.15866,-4.51237 -5.86609,-4.51237 -2.70742,0 -4.96361,1.80495 -5.86609,4.51237 z m 19.85445,14.4396 c -5.86609,0 -10.37846,-3.15866 -10.8297,-8.12227 h 5.86609 c 0.90247,1.80495 3.15866,2.70742 4.96361,2.70742 2.25619,0 4.06114,-0.90247 4.06114,-2.25619 0,-1.35371 -0.90248,-1.80495 -4.96362,-2.25618 -4.06113,-0.45124 -9.47598,-1.80495 -9.47598,-6.76857 0,-3.6099 3.15866,-7.2198 9.92722,-7.2198 5.41485,0 9.47599,2.70743 9.92723,7.2198 h -6.31733 c -0.45124,-0.90247 -1.80495,-1.80495 -4.06114,-1.80495 -2.70742,0 -4.06113,0.90248 -4.06113,1.80495 0,1.35372 1.80495,1.80495 4.51237,2.25619 5.86609,0.90248 9.92723,2.25619 9.92723,7.2198 0.45123,4.06114 -3.6099,7.2198 -9.47599,7.2198 z m 50.98984,-0.45124 h -5.86609 v -2.25618 c -1.80495,1.80495 -4.06114,3.15866 -7.2198,3.15866 -5.86609,0 -10.8297,-5.41485 -10.8297,-12.18341 0,-6.76857 4.96361,-12.18342 10.8297,-12.18342 2.70743,0 5.41485,0.90248 7.2198,3.15867 v -2.25619 h 5.86609 z m -12.18341,-18.0495 c -3.15867,0 -5.86609,2.70743 -5.86609,6.76857 0,3.6099 2.70742,6.31732 5.86609,6.31732 3.15866,0 5.86608,-2.70742 5.86608,-6.31732 0,-4.06114 -2.25618,-6.76857 -5.86608,-6.76857 z m 38.35518,18.0495 h -5.86608 v -13.53712 c 0,-1.35371 -0.45124,-4.51238 -4.51238,-4.51238 -2.70742,0 -4.51237,1.80495 -4.51237,4.51238 v 13.53712 h -5.86609 v -23.01311 h 5.86609 v 2.25619 c 1.35371,-1.80495 3.6099,-2.70743 5.86608,-2.70743 5.41485,0 9.02475,4.06114 9.02475,10.37847 z m 27.97673,0 h -5.86609 v -2.25618 c -1.80495,1.80495 -4.06114,3.15866 -7.2198,3.15866 -5.86609,0 -10.8297,-5.41485 -10.8297,-12.18341 0,-6.76857 4.96361,-12.18342 10.8297,-12.18342 2.70743,0 4.96361,0.90248 6.76856,2.70743 V 577.2271 h 5.86609 v 33.39157 z m -12.18341,-18.0495 c -3.15867,0 -5.86609,2.70743 -5.86609,6.76857 0,3.6099 2.70742,6.31732 5.86609,6.31732 3.15866,0 5.86608,-2.70742 5.86608,-6.31732 0,-4.06114 -2.25618,-6.76857 -5.86608,-6.76857 z m 46.02622,18.0495 h -6.31732 l -10.37847,-31.13538 h 6.31733 l 7.2198,23.91558 L 960,579.48329 h 6.31733 z m 15.79332,-9.02475 c 0.90247,2.70743 3.15866,4.51238 5.86608,4.51238 1.80495,0 4.06114,-0.90248 4.96362,-2.70743 h 6.31732 c -1.35371,4.51238 -5.41485,8.12228 -11.28094,8.12228 -6.31732,0 -11.73217,-5.41485 -11.73217,-12.18341 0,-6.76857 5.41485,-12.18342 11.73217,-12.18342 6.76857,0 12.63465,5.41485 11.73218,14.4396 z m 11.28093,-4.96361 c -0.90247,-2.70742 -3.15866,-4.51237 -5.86608,-4.51237 -2.70743,0 -4.96362,1.80495 -5.86609,4.51237 z m 31.13539,13.98836 h -5.8661 v -13.53712 c 0,-1.35371 -0.4512,-4.51238 -4.5124,-4.51238 -2.7074,0 -4.51234,1.80495 -4.51234,4.51238 v 13.53712 h -5.86608 V 577.2271 h 5.86608 v 11.73217 c 1.35374,-0.90247 3.15864,-1.80495 5.41484,-1.80495 5.8661,0 9.476,4.06114 9.476,10.37847 z m 11.2809,-25.72053 h -5.866 v -5.41485 h 5.866 z m 0,25.72053 h -5.866 v -23.01311 h 5.866 z m 16.2446,0.45124 c -6.7686,0 -12.1834,-5.41485 -12.1834,-12.18341 0,-6.76856 4.9636,-12.18341 12.1834,-12.18341 5.4148,0 9.9272,3.15866 11.2809,8.57351 h -6.3173 c -0.9025,-1.35371 -2.7074,-2.70743 -4.9636,-2.70743 -3.1587,0 -5.8661,3.15867 -5.8661,6.76857 0,3.6099 2.7074,6.76856 5.8661,6.76856 2.2562,0 4.0611,-1.35371 4.9636,-3.15866 h 6.3173 c -1.3537,4.96361 -5.4148,8.12227 -11.2809,8.12227 z m 21.2082,-0.45124 h -5.8661 V 577.2271 h 5.8661 z m 9.4759,-9.02475 c 0.9025,2.70743 3.1587,4.51238 5.8661,4.51238 1.805,0 4.0612,-0.90248 4.9636,-2.70743 h 6.3174 c -1.3537,4.51238 -5.4149,8.12228 -11.281,8.12228 -6.3173,0 -11.7321,-5.41485 -11.7321,-12.18341 0,-6.76857 5.4148,-12.18342 11.7321,-12.18342 6.7686,0 12.6347,5.41485 11.7322,14.4396 z m 11.7322,-4.96361 c -0.9025,-2.70742 -3.1586,-4.51237 -5.8661,-4.51237 -2.7074,0 -4.9636,1.80495 -5.8661,4.51237 z m 55.051,13.98836 h -5.8661 v -23.01311 l -6.3173,23.01311 h -6.3173 l -6.3174,-23.01311 v 23.01311 h -5.8661 v -31.13538 h 9.0248 l 6.3173,23.46435 6.3173,-23.46435 h 9.0248 z m 28.428,0 h -5.8661 v -2.25618 c -1.805,1.80495 -4.0612,3.15866 -7.2198,3.15866 -5.8661,0 -10.8297,-5.41485 -10.8297,-12.18341 0,-6.76857 4.9636,-12.18342 10.8297,-12.18342 2.7074,0 5.4148,0.90248 7.2198,3.15867 v -2.25619 h 5.8661 z m -12.1835,-18.0495 c -3.1586,0 -5.866,2.70743 -5.866,6.76857 0,3.6099 2.7074,6.31732 5.866,6.31732 3.1587,0 5.8661,-2.70742 5.8661,-6.31732 0,-4.06114 -2.2562,-6.76857 -5.8661,-6.76857 z m 23.9156,-7.67103 h -5.8661 v -5.41485 h 5.8661 z m 0,25.72053 h -5.8661 v -23.01311 h 5.8661 z m 26.1718,0 h -5.8661 v -13.53712 c 0,-1.35371 -0.4512,-4.51238 -4.5124,-4.51238 -2.7074,0 -4.5123,1.80495 -4.5123,4.51238 v 13.53712 h -5.8661 v -23.01311 h 5.8661 v 2.25619 c 1.3537,-1.80495 3.6099,-2.70743 5.8661,-2.70743 5.4148,0 9.0247,4.06114 9.0247,10.37847 z m 16.2446,0 c -6.7686,0.90248 -10.3785,-3.15866 -10.3785,-9.92722 v -8.12228 h -2.7074 v -5.41485 h 2.7074 v -5.86608 h 5.8661 v 5.86608 h 4.0611 v 5.41485 h -4.0611 v 8.12228 c 0,3.15866 1.3537,4.51237 4.5124,4.06114 z m 8.5735,-9.02475 c 0.9024,2.70743 3.1586,4.51238 5.8661,4.51238 1.8049,0 4.0611,-0.90248 4.9636,-2.70743 h 6.3173 c -1.3537,4.51238 -5.4149,8.12228 -11.2809,8.12228 -6.3174,0 -11.7322,-5.41485 -11.7322,-12.18341 0,-6.76857 5.4148,-12.18342 11.7322,-12.18342 6.7685,0 12.6346,5.41485 11.7321,14.4396 z m 11.7321,-4.96361 c -0.9024,-2.70742 -3.1586,-4.51237 -5.866,-4.51237 -2.7075,0 -4.9637,1.80495 -5.8661,4.51237 z m 30.6842,13.98836 h -5.8661 v -13.53712 c 0,-1.35371 -0.4512,-4.51238 -4.5124,-4.51238 -2.7074,0 -4.5123,1.80495 -4.5123,4.51238 v 13.53712 h -5.8661 v -23.01311 h 5.8661 v 2.25619 c 1.3537,-1.80495 3.6099,-2.70743 5.866,-2.70743 5.4149,0 9.0248,4.06114 9.0248,10.37847 z m 27.5255,0 h -5.8661 v -2.25618 c -1.805,1.80495 -4.0611,3.15866 -7.2198,3.15866 -5.8661,0 -10.8297,-5.41485 -10.8297,-12.18341 0,-6.76857 4.9636,-12.18342 10.8297,-12.18342 2.7074,0 5.4148,0.90248 7.2198,3.15867 v -2.25619 h 5.8661 z m -12.1834,-18.0495 c -3.1587,0 -5.8661,2.70743 -5.8661,6.76857 0,3.6099 2.7074,6.31732 5.8661,6.31732 3.1586,0 5.8661,-2.70742 5.8661,-6.31732 0.4512,-4.06114 -2.2562,-6.76857 -5.8661,-6.76857 z m 38.3552,18.0495 h -5.8661 v -13.53712 c 0,-1.35371 -0.4513,-4.51238 -4.5124,-4.51238 -2.7074,0 -4.5124,1.80495 -4.5124,4.51238 v 13.53712 h -5.8661 v -23.01311 h 5.8661 v 2.25619 c 1.3537,-1.80495 3.6099,-2.70743 5.8661,-2.70743 5.4149,0 9.0248,4.06114 9.0248,10.37847 z m 15.7933,0.45124 c -6.7686,0 -12.1834,-5.41485 -12.1834,-12.18341 0,-6.76856 4.9636,-12.18341 12.1834,-12.18341 5.4148,0 9.9272,3.15866 11.2809,8.57351 h -6.3173 c -0.9025,-1.35371 -2.7074,-2.70743 -4.9636,-2.70743 -3.1587,0 -5.8661,3.15867 -5.8661,6.76857 0,3.6099 2.7074,6.76856 5.8661,6.76856 2.2562,0 4.0611,-1.35371 4.9636,-3.15866 h 6.3173 c -1.3537,4.96361 -5.8661,8.12227 -11.2809,8.12227 z m 19.4032,-9.47599 c 0.9025,2.70743 3.1586,4.51238 5.8661,4.51238 1.8049,0 4.0611,-0.90248 4.9636,-2.70743 h 6.3173 c -1.3537,4.51238 -5.4148,8.12228 -11.2809,8.12228 -6.3174,0 -11.7322,-5.41485 -11.7322,-12.18341 0,-6.76857 5.4148,-12.18342 11.7322,-12.18342 6.7685,0 12.6346,5.41485 11.7321,14.4396 z m 11.7322,-4.96361 c -0.9025,-2.70742 -3.1587,-4.51237 -5.8661,-4.51237 -2.7075,0 -4.9636,1.80495 -5.8661,4.51237 z"
     fill="#164194"
     id="path21"
     style="stroke-width:4.51237" />
</svg>
