<?xml version="1.0" encoding="UTF-8" standalone="no"?>
<svg
   xmlns:dc="http://purl.org/dc/elements/1.1/"
   xmlns:cc="http://creativecommons.org/ns#"
   xmlns:rdf="http://www.w3.org/1999/02/22-rdf-syntax-ns#"
   xmlns:svg="http://www.w3.org/2000/svg"
   xmlns="http://www.w3.org/2000/svg"
   xmlns:sodipodi="http://sodipodi.sourceforge.net/DTD/sodipodi-0.dtd"
   xmlns:inkscape="http://www.inkscape.org/namespaces/inkscape"
   width="100%"
   height="100%"
   viewBox="0 0 1920 1080"
   version="1.1"
   id="svg89"
   sodipodi:docname="Hornbach_1.svg"
   inkscape:version="1.0.2 (e86c870879, 2021-01-15)">
  <metadata
     id="metadata95">
    <rdf:RDF>
      <cc:Work
         rdf:about="">
        <dc:format>image/svg+xml</dc:format>
        <dc:type
           rdf:resource="http://purl.org/dc/dcmitype/StillImage" />
      </cc:Work>
    </rdf:RDF>
  </metadata>
  <defs
     id="defs93" />
  <sodipodi:namedview
     pagecolor="#ffffff"
     bordercolor="#666666"
     borderopacity="1"
     objecttolerance="10"
     gridtolerance="10"
     guidetolerance="10"
     inkscape:pageopacity="0"
     inkscape:pageshadow="2"
     inkscape:window-width="1920"
     inkscape:window-height="1017"
     id="namedview91"
     showgrid="false"
     inkscape:zoom="0.67760417"
     inkscape:cx="960"
     inkscape:cy="540"
     inkscape:window-x="-8"
     inkscape:window-y="-8"
     inkscape:window-maximized="1"
     inkscape:current-layer="svg89" />
  <mask
     id="a"
     fill="#fff">
    <path
       d="m0 72h283v-72h-283z"
       fill="#fff"
       fill-rule="evenodd"
       id="path2" />
  </mask>
  <g
     id="g139"
     transform="matrix(3.1380672,0,0,3.1380672,515.96349,427.02958)">
    <g
       fill="none"
       fill-rule="evenodd"
       id="g87">
      <path
         d="M 0,72 H 283 V 0 H 0 Z"
         fill="#041116"
         id="path5" />
      <path
         d="M 2.604,42.917 H 235.867 V 2.522 H 2.604 Z"
         fill="#f79e1c"
         id="path7" />
      <path
         d="m 46.4296,22.6662 c 0,3.964 3.339,7.178 7.458,7.178 4.119,0 7.458,-3.214 7.458,-7.178 0,-3.964 -3.339,-7.178 -7.458,-7.178 -4.119,0 -7.458,3.214 -7.458,7.178 z m 95.109,4.394 c -1.324,-0.9 -3.039,-0.9 -4.677,-0.825 v 4.201 c 1.638,0 3.353,0 4.677,-0.9 0.546,-0.675 0.546,-1.801 0,-2.476 z m 22.141,-1.725 h 3.429 l -1.714,-4.802 z m 37.375,-5.643 c -1.032,-1.864 -1.792,-2.455 -3.932,-3.436 -1.923,-0.881 -4.443,-0.75 -6.315,0.301 -2.417,1.275 -3.508,3.751 -3.585,6.302 0.233,2.476 1.402,5.176 4.053,6.152 2.261,1.125 6.706,0.655 9.777,-2.697 0,0 0.002,-4.373 0.002,-6.622 z m -61.753,-4.249 c -0.702,-0.451 -1.504,-0.462 -2.44,-0.537 v 3.601 c 0.936,-0.075 2.027,-0.15 2.729,-0.9 0.468,-0.6 0.323,-1.771 -0.289,-2.164 z m -55.098,0.517 c -0.935,-0.9 -2.223,-0.979 -3.548,-1.054 v 5.252 c 1.403,-0.075 2.884,-0.225 3.742,-1.351 0.545,-0.825 0.525,-2.155 -0.194,-2.847 z m -14.774,-1.729 1.247,2.55 -0.006,-9.673 h 14.745 c 3.403,0 6.466,1.721 8.337,4.497 1.793,2.926 1.715,7.653 0.078,10.579 -1.014,1.575 -2.729,3.151 -4.522,3.751 l 6.549,7.352 -0.024,-26.184 h 8.677 c 4.492,5.431 8.85,10.715 13.137,16.042 l -0.04,-16.041 9.276,-10e-4 h 0.546 l 13.712,-0.004 c 3.44,0 5.631,1.497 7.046,4.113 1.624,3.003 1.615,7.52 -0.957,9.921 2.805,1.126 4.754,3.901 4.754,6.752 l 8.187,-20.257 0.219,-0.529 h 10.167 l 6.53,16.896 -0.078,-0.686 c -0.39,-6.227 2.884,-11.779 8.497,-14.93 4.366,-2.476 10.954,-2.839 15.67,-1.28 l 0.701,0.004 9.355,-0.004 v 11.258 h 9.354 l 0.035,-11.258 h 9.789 v 31.148 h -9.824 v -11.937 h -9.354 l 0.013,11.929 c 0,0 -9.701,0.008 -10.193,0.008 -6.923,1.865 -14.214,1.015 -18.783,-3.476 l -1.79,-1.889 c 0.515,1.346 1.987,5.357 1.987,5.357 h -10.437 c -0.637,-1.556 -1.3,-3.302 -2.036,-5.026 h -9.276 l -2.093,5.026 h -10.413 c 0.173,-0.493 1.035,-2.684 1.035,-2.684 -1.15,1.331 -2.482,2.688 -7.983,2.688 -2.401,0 -13.541,-0.004 -14.458,-0.004 h -8.653 c -4.521,-5.177 -8.759,-10.83 -13.124,-16.157 v 16.157 h -18.292 c -2.339,-2.701 -4.054,-5.777 -6.003,-8.703 l -0.156,-0.296 -0.01,8.999 -9.813,0.003 v -10.056 c -1.871,5.776 -8.419,10.728 -14.889,10.953 -6.782,0.601 -12.941,-1.575 -16.917,-7.052 -0.857,-1.201 -1.403,-2.476 -1.949,-3.751 l -0.156,-0.466 -0.008,10.369 -9.814,0.003 v -11.932 h -9.433 l 0.002,11.929 c 0,0 -9.147,0.001 -9.747,0.001 V 7.1042 l 9.752,-10e-4 -0.007,11.242 c 3.069,0 6.323,-0.006 9.43,-0.006 l 0.014,-11.236 h 9.803 l 0.008,9.529 c 2.495,-5.552 8.731,-10.204 15.202,-10.504 7.172,-0.525 13.486,2.326 17.384,8.103 z"
         fill="#041116"
         id="path9" />
      <path
         d="m 238.45,42.917 h 41.946 V 2.53 H 238.45 Z"
         fill="#c80986"
         mask="url(#a)"
         id="path11" />
      <path
         d="m 238.4502,42.9172 h 2.842 l 39.104,-37.634 v -2.753 h -2.891 l -39.055,37.586 z"
         fill="#f89e2d"
         mask="url(#a)"
         id="path13" />
      <path
         d="m 238.4502,37.3587 36.189,-34.829 h -5.752 l -30.437,29.293 z"
         fill="#f89e2d"
         mask="url(#a)"
         id="path15" />
      <path
         d="m 238.4502,29.0636 27.57,-26.533 h -5.751 l -21.819,20.998 z"
         fill="#f89e2d"
         mask="url(#a)"
         id="path17" />
      <path
         d="m 238.4502,20.7694 18.952,-18.239 h -5.75 l -13.202,12.704 z"
         fill="#f89e2d"
         mask="url(#a)"
         id="path19" />
      <path
         d="m 266.9141,21.0688 13.482,12.962 v -5.535 l -10.605,-10.196 z"
         fill="#f89e2d"
         mask="url(#a)"
         id="path21" />
      <path
         d="m 262.6039,25.2184 17.792,17.108 v -5.536 l -14.916,-14.341 z"
         fill="#f89e2d"
         mask="url(#a)"
         id="path23" />
      <path
         d="m 258.2926,29.3676 14.091,13.55 h 5.757 l -16.972,-16.319 z"
         fill="#f89e2d"
         mask="url(#a)"
         id="path25" />
      <path
         d="m 253.9813,33.5172 9.776,9.4 h 5.756 l -12.656,-12.169 z"
         fill="#f89e2d"
         mask="url(#a)"
         id="path27" />
      <path
         d="M 2.604,69.495 H 280.396 V 45.446 H 2.604 Z"
         fill="#fef9d6"
         mask="url(#a)"
         id="path29" />
      <path
         d="m 201.0779,8.2355 0.02,9.378 c -2.182,-2.776 -5.69,-3.534 -9.198,-2.709 -2.184,0.601 -4.366,2.401 -5.146,4.502 -1.169,3.151 -0.701,7.052 2.028,9.378 2.026,1.65 4.755,2.326 7.561,1.725 1.794,-0.374 3.431,-1.425 4.755,-2.775 v 9.002 c -4.989,2.102 -11.771,1.576 -16.214,-1.425 -5.457,-3.451 -7.64,-9.303 -6.627,-15.38 0.779,-5.552 6.003,-10.729 11.538,-12.079 3.664,-1.051 7.931,-1.043 11.283,0.383"
         fill="#fefefe"
         mask="url(#a)"
         id="path31" />
      <path
         d="m 16.5753,19.2564 c 3.757,0 7.72,0.007 11.54,0.007 0,-3.676 -0.002,-7.438 -0.002,-11.186 h 7.795 v 29.186 h -7.795 v -11.941 c -3.75,0 -7.48,0.011 -11.46,0.011 l -0.001,11.93 H 8.7793 V 8.0774 h 7.796 z"
         fill="#fefefe"
         mask="url(#a)"
         id="path33" />
      <path
         d="m 210.1412,19.3376 c 3.754,0 7.643,-0.006 11.462,-0.006 V 8.0776 h 7.872 v 29.185 h -7.796 v -11.854 c -3.756,0 -7.809,0.025 -11.543,0.025 0,3.813 0.005,7.825 0.005,11.829 h -7.795 V 8.1416 h 7.795 z"
         fill="#fefefe"
         mask="url(#a)"
         id="path35" />
      <path
         d="m 85.3447,15.7978 c -1.247,-1.876 -3.514,-1.944 -5.697,-1.869 l -0.006,7.203 c 1.845,-0.042 4.316,0.016 5.641,-1.709 0.702,-0.976 0.726,-2.626 0.062,-3.625 m 5.445,-5.77 c 3.196,2.401 3.742,6.453 2.729,10.054 -0.702,2.551 -3.352,4.801 -6.081,5.252 l 9.433,10.642 -0.005,-27.898 h 7.177 l 14.514,17.975 c 0,-5.813 -0.014,-11.974 -0.014,-17.9 h 8.085 v 29.11 h -8.085 l -14.379,-17.761 -0.024,17.761 h -17.014 c -2.494,-3.752 -4.911,-7.503 -7.484,-11.254 l 0.002,11.254 h -7.875 V 8.0778 c 4.516,0 10.21,0.004 14.004,0.004 1.821,0 3.539,0.955 5.017,1.946"
         fill="#fefefe"
         mask="url(#a)"
         id="path37" />
      <path
         d="m 168.6449,26.3833 -3.251,-9.228 -3.196,9.228 z m 12.497,10.88 h -8.42 l -1.871,-5.028 h -10.913 l -2.105,5.028 h -8.264 l 11.616,-29.186 h 8.496 z"
         fill="#fefefe"
         mask="url(#a)"
         id="path39" />
      <path
         d="m 142.787,26.9838 c -1.404,-2.251 -4.443,-1.575 -6.938,-1.726 v 6.152 c 2.339,-0.074 4.833,0.376 6.548,-1.275 0.702,-0.75 0.779,-2.176 0.39,-3.151 m -2.027,-11.254 c -0.57,-1.894 -3.04,-1.801 -4.911,-1.801 v 5.553 c 1.637,0 3.352,0.149 4.443,-1.051 0.624,-0.675 0.777,-1.675 0.468,-2.701 m 5.44,-5.559 c 2.25,2.337 2.434,6.609 0.953,9.385 -0.546,0.901 -1.404,1.576 -2.34,2.101 2.184,0.376 4.901,1.763 5.507,3.838 0.89,3.062 1.028,6.798 -1.663,9.387 -1.891,1.819 -3.364,2.367 -7.368,2.367 -4.711,0 -9.019,0.014 -13.52,0.014 l -0.014,-29.122 h 13.926 c 1.707,0 3.301,0.765 4.519,2.03"
         fill="#fefefe"
         mask="url(#a)"
         id="path41" />
      <path
         d="m 45.364,22.6648 c 0,4.531 3.816,8.203 8.524,8.203 4.707,0 8.523,-3.672 8.523,-8.203 0,-4.531 -3.816,-8.203 -8.523,-8.203 -4.708,0 -8.524,3.672 -8.524,8.203 m 23.364,-7.385 c 3.04,5.177 2.105,12.754 -1.793,17.256 -4.131,4.651 -9.9,6.378 -16.215,5.477 -4.755,-0.75 -9.588,-3.526 -11.771,-8.028 -2.807,-4.877 -2.573,-12.304 1.247,-16.656 4.132,-4.876 9.9,-6.827 16.371,-6.002 4.833,0.751 9.667,3.527 12.161,7.953"
         fill="#fefefe"
         mask="url(#a)"
         id="path43" />
      <g
         fill="#041116"
         id="g85">
        <path
           d="m 53.7881,63.1545 c 0.64,-0.551 -0.265,-1.083 -0.42,-1.615 -1.17,-1.232 -2.98,-0.064 -4.438,-0.742 -0.552,-0.66 0.464,-0.936 0.376,-1.489 0.287,-0.36 -0.089,-0.679 -0.133,-1.041 0.111,-0.595 -0.376,-0.977 -0.331,-1.571 0.221,-0.064 0.287,-0.405 0.552,-0.32 0.684,0.383 1.369,-0.234 2.009,0.212 0.353,-0.19 0.751,-0.19 1.06,-0.509 0.154,-0.17 -0.044,-0.511 0.11,-0.723 0.707,-0.297 -0.177,-0.617 -0.221,-0.977 -0.662,-1.275 -2.097,-0.191 -3.068,-0.68 -0.817,-0.191 -0.111,-0.893 -0.067,-1.317 0.067,-0.808 -0.728,-1.849 0.133,-2.507 1.236,-0.49 2.672,0.211 3.93,-0.362 l 0.464,-0.893 -0.464,-1.21 c -0.287,-0.213 -0.729,-0.255 -1.105,-0.192 -0.441,-0.318 -0.948,0.043 -1.457,-0.127 -1.39,0.297 -2.781,0.021 -4.194,0.191 -0.817,0.68 -0.045,1.828 -0.309,2.741 l -0.066,2.571 c 0.22,0.744 -0.023,1.678 0.131,2.423 l -0.088,1.615 c 0.199,1.507 -0.22,3.144 -0.087,4.738 -0.089,0.51 -0.067,1.083 0.044,1.572 0.176,0.34 0.618,0.426 0.993,0.489 0.552,-0.149 1.214,0.234 1.81,-0.022 1.06,0.192 2.098,0.086 3.202,0.128 0.508,-0.106 1.148,-0.169 1.634,-0.383"
           mask="url(#a)"
           id="path45" />
        <path
           d="m 61.798,60.7332 c -0.022,-0.787 0.155,-1.68 -0.376,-2.338 -0.087,-0.255 0.089,-0.51 -0.154,-0.701 -0.839,-0.085 -0.949,-1.062 -1.81,-1.19 -0.354,-0.658 -1.082,-0.744 -1.634,-1.084 -0.376,-0.467 -0.817,-0.892 -0.641,-1.551 0.199,-0.212 0.42,-0.616 0.795,-0.594 0.619,0.021 0.795,0.658 1.082,1.04 0.464,0.659 1.325,0.107 1.921,0.128 0.485,-0.043 0.729,-0.531 0.751,-0.893 -0.199,-0.318 0.11,-0.743 -0.133,-1.04 -0.795,-0.192 -1.081,-1.169 -1.964,-1.19 -0.839,-0.575 -1.701,-0.149 -2.738,-0.297 l -0.796,0.637 c -0.176,0.169 -0.463,0.148 -0.485,0.446 -0.928,0.404 -0.64,1.444 -1.038,2.145 -0.044,1.297 0.817,2.465 1.965,3.166 0.508,0.745 1.523,0.894 2.054,1.636 0.199,0.553 0.773,1.233 0.286,1.871 -0.286,0.467 -0.883,0.192 -1.28,0.128 -0.309,-0.298 -0.728,-0.659 -0.795,-1.127 -0.243,-0.934 -1.214,-0.319 -1.876,-0.361 -0.685,0.106 -0.354,0.85 -0.53,1.297 0.574,0.658 0.751,1.571 1.634,1.996 1.368,0.68 3.51,0.872 4.746,-0.17 0.95,-0.191 0.905,-1.253 1.016,-1.954"
           mask="url(#a)"
           id="path47" />
        <path
           d="m 73.6848,64.749 c -0.066,0.298 -0.066,0.637 -0.376,0.849 -0.861,0.214 -1.81,0.128 -2.605,-0.254 -0.265,-0.511 -0.199,-1.19 0.398,-1.467 0.397,-0.127 0.905,-0.106 1.214,0.022 0.309,-0.128 0.707,-0.214 0.993,0.084 0.243,0.192 0.376,0.468 0.376,0.766 m -1.325,-7.352 c -0.044,0.361 -0.397,0.574 -0.662,0.743 -0.177,0.171 -0.464,0.043 -0.685,0 -0.287,-0.148 -0.331,-0.51 -0.42,-0.785 0.111,-0.766 0.531,-1.551 0.288,-2.338 -0.243,-0.425 -0.177,-0.936 -0.089,-1.423 0.243,-0.341 0.685,-0.533 1.06,-0.319 1.082,1.168 0.111,2.719 0.508,4.122 m 4.041,-4.548 c 0.087,-0.382 -0.265,-0.573 -0.332,-0.913 -0.132,-0.362 -0.529,-0.467 -0.839,-0.574 -0.662,-0.319 -0.772,0.51 -1.368,0.467 -0.464,-0.488 -1.126,-0.637 -1.789,-0.742 -0.464,-0.171 -0.883,0.169 -1.325,0.02 -0.684,0.553 -1.678,0.595 -1.921,1.572 0.133,0.596 -0.507,1.02 -0.308,1.616 0.308,0.977 -0.023,1.912 0.11,2.847 -0.199,0.552 0.088,1.084 0.22,1.593 0.265,0.489 1.171,0.723 0.906,1.361 -0.685,0.531 -1.214,1.104 -1.148,1.997 0.066,0.638 0.795,0.828 0.972,1.339 -0.133,0.467 -0.641,0.658 -1.038,0.87 -0.708,0.49 -0.641,1.424 -0.442,2.168 0.508,0.382 1.015,0.934 1.7,0.957 0.772,0.658 1.899,0.233 2.782,0.573 0.993,-0.17 1.855,-0.701 2.804,-0.978 0.331,-0.468 0.596,-0.892 0.397,-1.444 0.751,-0.617 0.309,-1.595 0.331,-2.38 0.023,-0.467 -0.595,-0.511 -0.772,-0.956 -0.773,-0.022 -1.347,-0.85 -2.142,-0.531 -0.684,-0.255 -1.435,-0.044 -2.053,-0.298 -0.287,-0.106 -0.662,-0.361 -0.641,-0.722 0.949,-0.893 2.694,-0.022 3.422,-1.212 1.392,-0.383 0.265,-1.976 0.839,-2.847 -0.132,-0.574 -0.109,-1.148 -0.021,-1.742 0.066,-0.362 -0.066,-0.893 0.176,-1.296 0.53,-0.15 1.237,-0.191 1.48,-0.745"
           mask="url(#a)"
           id="path49" />
        <path
           d="m 80.4763,62.1344 c -0.596,-0.51 -0.42,-1.316 -0.309,-1.975 -0.331,-0.68 0.022,-1.339 0.198,-1.976 -0.154,-1.128 -0.442,-2.168 -0.088,-3.273 -0.133,-0.107 -0.199,-0.255 -0.133,-0.36 0.663,-0.83 -0.066,-1.743 0.133,-2.635 -0.243,-0.532 -0.728,-0.808 -1.368,-0.766 -0.42,0.128 -0.95,-0.021 -1.326,0.404 -0.596,1.147 0.376,2.635 -0.286,3.846 0.353,1.636 0.11,3.506 0.11,5.184 v 0.681 c 0.154,0.658 -0.42,1.678 0.464,2.018 0.728,-0.042 1.633,0.383 2.251,-0.128 0.31,-0.254 0.354,-0.637 0.354,-1.02 m -0.133,-14.449 c -0.551,-0.849 -1.39,-0.679 -2.296,-0.657 -0.794,0.297 -0.265,1.273 -0.662,1.869 0.088,0.192 0.198,0.511 0.441,0.511 0.751,0.063 1.568,0.403 2.23,-0.064 1.06,-0.341 -0.088,-1.127 0.287,-1.659"
           mask="url(#a)"
           id="path51" />
        <path
           d="m 86.2328,55.1229 c 0.111,1.933 -0.133,3.909 -0.022,5.843 0.022,0.362 -0.332,0.468 -0.618,0.595 -0.464,0.086 -0.684,-0.319 -0.927,-0.552 -0.199,-0.467 0.154,-0.935 0.044,-1.402 l 0.155,-0.403 c -0.111,-0.659 -0.31,-1.34 -0.045,-1.934 -0.199,-0.745 0.111,-1.551 -0.287,-2.211 0.332,-0.509 -0.265,-1.359 0.596,-1.529 0.265,-0.064 0.574,-0.171 0.839,0 0.309,0.446 0.353,1.083 0.265,1.593 m 3.068,-2.422 c -0.595,-0.404 -0.772,-1.211 -1.589,-1.339 -0.994,-0.297 -2.141,-0.021 -2.958,0.531 -0.221,0.023 -0.265,-0.233 -0.287,-0.383 0.265,-0.467 0.662,-0.934 0.42,-1.487 -0.354,-0.849 0.153,-1.679 -0.177,-2.549 -0.684,-0.425 -1.392,-0.191 -2.209,-0.276 -0.198,0.127 -0.286,0.276 -0.352,0.488 0.022,1.445 0.088,2.699 0.044,4.186 0.11,0.531 -0.177,1.105 0.044,1.658 l -0.132,5.694 0.088,0.85 c 0.265,1.211 -0.729,2.72 0.507,3.506 0.64,-0.212 1.348,0.044 1.899,-0.382 1.104,0.064 2.097,0.659 3.113,0.362 0.619,-0.511 1.678,-0.872 1.281,-1.913 -0.044,-0.276 -0.177,-0.425 -0.022,-0.658 0.11,-0.893 -0.088,-1.893 -0.044,-2.721 -0.177,-0.595 0.463,-1.021 0.11,-1.657 0.044,-1.254 -0.398,-2.826 0.264,-3.91"
           mask="url(#a)"
           id="path53" />
        <path
           d="m 96.6712,62.0077 c 0.111,-0.213 -0.132,-0.361 -0.331,-0.447 -0.397,-0.87 -1.501,-0.319 -2.009,-1.061 -0.11,-0.362 -0.331,-0.765 -0.044,-1.063 -0.155,-1.402 0.486,-2.762 0.066,-4.101 0.486,-0.532 -0.088,-1.041 -0.088,-1.615 0.375,-0.34 0.949,-0.149 1.413,-0.213 0.397,-0.275 1.17,-0.403 0.95,-1.083 -0.42,-0.234 0.043,-0.723 -0.288,-1.02 -0.618,-0.042 -1.104,-0.276 -1.766,-0.298 -0.905,-0.275 -0.022,-1.062 -0.133,-1.657 0.487,-0.319 0.023,-0.659 -0.044,-1.02 -0.331,-0.467 -0.971,-0.637 -1.589,-0.51 -0.309,0.149 -0.906,0.022 -1.149,0.446 l 0.177,2.232 -0.066,0.446 c -0.066,0.489 -0.508,0.34 -0.927,0.403 -0.287,0.127 -0.287,0.425 -0.442,0.702 -0.11,0.382 -0.11,0.956 0.266,1.254 0.11,-0.044 0.198,0.02 0.22,-0.064 0.309,-0.191 0.684,0.02 0.839,0.255 0.221,1.593 -0.11,3.399 0.154,5.035 l -0.221,0.511 c 0.243,1.36 -0.242,3.059 1.105,3.995 0.971,0.127 2.251,0.425 3.179,0.084 0.331,-0.361 0.861,-0.679 0.728,-1.211"
           mask="url(#a)"
           id="path55" />
        <path
           d="m 106.5707,62.1344 c -0.596,-0.51 -0.42,-1.316 -0.309,-1.975 -0.331,-0.68 0.022,-1.339 0.198,-1.976 -0.154,-1.128 -0.442,-2.168 -0.088,-3.273 -0.133,-0.107 -0.199,-0.255 -0.133,-0.36 0.663,-0.83 -0.066,-1.743 0.133,-2.635 -0.243,-0.532 -0.728,-0.808 -1.368,-0.766 -0.42,0.128 -0.95,-0.021 -1.326,0.404 -0.595,1.147 0.376,2.635 -0.286,3.846 0.353,1.636 0.109,3.506 0.109,5.184 v 0.681 c 0.155,0.658 -0.418,1.678 0.465,2.018 0.728,-0.042 1.633,0.383 2.251,-0.128 0.31,-0.254 0.354,-0.637 0.354,-1.02 m -0.133,-14.449 c -0.551,-0.849 -1.39,-0.679 -2.296,-0.657 -0.794,0.297 -0.265,1.273 -0.662,1.869 0.088,0.192 0.198,0.511 0.441,0.511 0.751,0.063 1.568,0.403 2.23,-0.064 1.06,-0.341 -0.088,-1.127 0.287,-1.659"
           mask="url(#a)"
           id="path57" />
        <path
           d="m 118.7524,62.1982 c -0.398,-0.212 -0.111,-0.637 -0.155,-0.956 -0.177,-1.465 -0.199,-2.847 -0.132,-4.312 0.11,-0.405 -0.22,-0.702 -0.022,-1.064 -0.067,-0.743 -0.309,-1.699 0.287,-2.316 0.221,-0.616 -0.089,-1.21 -0.376,-1.742 -0.529,-0.659 -1.567,-0.744 -2.406,-0.68 -0.707,0.064 -1.127,0.68 -1.811,0.787 -0.308,-0.086 -0.286,-0.447 -0.485,-0.659 -0.464,-0.319 -1.215,-0.213 -1.767,-0.107 -0.53,-0.021 -0.75,0.639 -1.28,0.553 -0.464,0.382 -0.552,-0.276 -0.839,-0.489 -0.53,-0.254 -1.038,0.085 -1.634,0.043 -0.288,0.021 -0.22,0.318 -0.331,0.509 0.043,1.934 0.111,3.677 0.043,5.696 -0.043,1.72 -0.043,3.42 -0.131,5.162 0.242,1.084 1.435,0.468 2.163,0.723 0.398,-0.446 0.575,-0.957 0.553,-1.53 -0.487,-0.552 0.242,-1.36 -0.155,-2.039 0.221,-0.468 -0.066,-1.106 0.022,-1.551 -0.066,-1.34 0.133,-2.827 -0.088,-4.293 0.265,-0.467 0.816,-0.531 1.258,-0.744 0.508,0.277 0.265,1.042 0.397,1.573 -0.132,1.296 0.067,2.592 -0.199,3.952 0.31,0.956 -0.242,1.805 0.067,2.805 0.044,0.382 -0.288,0.765 -0.111,1.168 0.067,0.936 1.038,0.277 1.501,0.595 0.509,-0.064 1.038,0.086 1.171,-0.488 0.177,-1.381 -0.309,-2.89 -0.089,-4.271 -0.374,-0.489 0.089,-0.998 0,-1.509 0.045,-1.104 -0.154,-2.252 0.244,-3.251 0.419,-0.128 0.927,-0.914 1.303,-0.213 0.308,1.233 0,2.508 -0.067,3.677 0.22,1.826 0.044,3.611 -0.023,5.504 0.177,0.233 0.288,0.573 0.641,0.615 0.486,-0.212 1.038,0.127 1.524,-0.064 0.529,-0.064 0.794,-0.659 0.927,-1.084"
           mask="url(#a)"
           id="path59" />
        <path
           d="m 130.9572,62.1982 c -0.398,-0.212 -0.111,-0.637 -0.155,-0.956 -0.176,-1.465 -0.199,-2.847 -0.132,-4.312 0.11,-0.405 -0.22,-0.702 -0.022,-1.064 -0.067,-0.743 -0.309,-1.699 0.287,-2.316 0.221,-0.616 -0.089,-1.21 -0.376,-1.742 -0.529,-0.659 -1.567,-0.744 -2.406,-0.68 -0.707,0.064 -1.126,0.68 -1.811,0.787 -0.308,-0.086 -0.286,-0.447 -0.485,-0.659 -0.464,-0.319 -1.215,-0.213 -1.766,-0.107 -0.53,-0.021 -0.751,0.639 -1.28,0.553 -0.465,0.382 -0.553,-0.276 -0.839,-0.489 -0.531,-0.254 -1.038,0.085 -1.635,0.043 -0.287,0.021 -0.221,0.318 -0.331,0.509 0.044,1.934 0.11,3.677 0.044,5.696 -0.044,1.72 -0.044,3.42 -0.132,5.162 0.242,1.084 1.435,0.468 2.163,0.723 0.398,-0.446 0.575,-0.957 0.553,-1.53 -0.487,-0.552 0.242,-1.36 -0.155,-2.039 0.221,-0.468 -0.066,-1.106 0.022,-1.551 -0.066,-1.34 0.133,-2.827 -0.088,-4.293 0.265,-0.467 0.817,-0.531 1.258,-0.744 0.508,0.277 0.265,1.042 0.397,1.573 -0.132,1.296 0.067,2.592 -0.198,3.952 0.309,0.956 -0.244,1.805 0.066,2.805 0.044,0.382 -0.287,0.765 -0.111,1.168 0.067,0.936 1.038,0.277 1.501,0.595 0.509,-0.064 1.038,0.086 1.171,-0.488 0.177,-1.381 -0.309,-2.89 -0.088,-4.271 -0.375,-0.489 0.088,-0.998 0,-1.509 0.044,-1.104 -0.155,-2.252 0.243,-3.251 0.42,-0.128 0.927,-0.914 1.303,-0.213 0.308,1.233 0,2.508 -0.066,3.677 0.22,1.826 0.043,3.611 -0.023,5.504 0.176,0.233 0.287,0.573 0.64,0.615 0.486,-0.212 1.038,0.127 1.524,-0.064 0.529,-0.064 0.794,-0.659 0.927,-1.084"
           mask="url(#a)"
           id="path61" />
        <path
           d="m 136.7377,55.527 c -0.309,0.213 -0.773,0.255 -1.104,0.149 -0.31,-0.064 -0.729,0.02 -0.883,-0.319 0.11,-0.362 -0.111,-0.807 0.286,-1.042 -0.375,-0.234 0.066,-0.509 0.089,-0.785 0.265,-0.489 0.861,-0.171 1.258,-0.171 0.508,0.553 0.354,1.467 0.354,2.168 m 2.892,0.277 c -0.375,-0.532 0.088,-1.064 0,-1.637 -0.53,-0.744 0.088,-2.04 -1.193,-2.252 -0.419,-0.382 -0.948,-0.469 -1.39,-0.744 -1.016,-0.17 -1.944,-0.148 -2.914,0.17 -0.729,0.552 -1.524,1.105 -1.678,1.998 0.043,0.658 -0.332,1.232 -0.199,1.806 -0.177,0.297 -0.066,0.743 -0.066,1.083 -0.199,0.914 0.11,1.955 0.022,2.868 -0.133,0.447 0.374,0.702 0.022,1.064 0.242,0.934 0.264,1.911 1.06,2.591 0.596,0.192 1.169,0.786 1.832,0.553 0.794,0.297 1.656,0.148 2.516,-0.022 0.332,-0.318 0.795,-0.361 1.215,-0.551 0.044,-0.383 0.507,-0.426 0.618,-0.83 0.044,-0.913 0.398,-2.124 -0.552,-2.761 -0.684,-0.086 -1.235,-0.213 -1.921,-0.022 -0.839,0.34 0,1.062 -0.463,1.615 -0.199,0.233 -0.442,0.616 -0.883,0.531 -0.817,-0.234 -0.927,-1.02 -0.95,-1.742 0.111,-0.574 -0.243,-1.191 0.133,-1.743 0.618,0.107 1.192,-0.19 1.833,-0.064 0.861,-0.254 1.589,0.192 2.472,-0.021 0.862,-0.361 0.375,-1.189 0.486,-1.89"
           mask="url(#a)"
           id="path63" />
        <path
           d="m 147.417,53.1048 c -0.066,-0.702 -0.618,-1.36 -1.125,-1.891 -0.355,0.042 -0.795,-0.149 -1.017,0.212 -0.64,-0.021 -0.861,0.638 -1.413,0.807 -0.331,-0.19 0.044,-0.722 -0.352,-0.892 -0.751,-0.042 -1.546,-0.127 -2.143,0.404 -0.088,1.636 0.044,3.209 -0.133,4.887 0.398,1.126 -0.308,2.316 0.133,3.421 -0.221,0.68 0.044,1.403 -0.11,2.168 0.11,0.275 -0.088,0.658 0.198,0.85 0.906,0.042 1.834,0.489 2.672,-0.064 -0.045,-0.319 0.133,-0.681 -0.066,-0.978 0.331,-0.553 -0.022,-1.168 -0.022,-1.7 -0.177,-0.574 -0.243,-1.444 0.133,-1.955 -0.31,-0.318 -0.199,-0.913 -0.133,-1.318 -0.11,-0.233 -0.11,-0.445 -0.023,-0.657 0.089,-0.532 -0.021,-0.978 0.133,-1.551 0.265,-0.361 0.464,-0.744 0.861,-0.978 0.884,0.106 1.723,-0.319 2.407,-0.765"
           mask="url(#a)"
           id="path65" />
        <path
           d="m 165.0689,51.9792 c 0,-0.298 -0.199,-0.638 -0.508,-0.744 -0.618,-0.043 -1.149,-0.148 -1.767,0 -0.993,0.616 -0.463,1.721 -0.706,2.592 -0.464,0.786 -0.133,1.913 -0.663,2.698 -0.088,0.022 -0.199,-0.02 -0.264,-0.106 -0.398,-0.977 -0.111,-1.976 -0.375,-3.06 0.043,-0.298 -0.332,-0.552 -0.045,-0.829 -0.353,-0.339 -0.067,-0.934 -0.596,-1.21 -0.64,-0.341 -1.325,-0.064 -1.921,0.063 -0.419,0.489 -0.419,1.169 -0.398,1.806 -0.53,1.02 -0.198,2.402 -0.618,3.443 -0.11,0.276 -0.066,0.659 -0.353,0.722 -0.177,-0.043 -0.286,-0.255 -0.352,-0.404 0.043,-1.168 0.021,-2.252 -0.222,-3.314 0.42,-0.787 -0.133,-1.679 -0.596,-2.316 l -1.943,-0.149 -0.332,0.275 c -0.021,0.469 0.023,1.042 0.288,1.467 0.706,3.061 1.081,6.078 1.788,9.158 0.331,0.341 -0.022,1.297 0.751,1.063 0.53,0.298 1.258,0.043 1.877,-0.064 0.22,-0.127 0.485,-0.339 0.463,-0.594 -0.11,-1.701 0.309,-3.295 0.199,-4.974 l 0.199,-0.233 c 0.176,-0.042 0.375,0.106 0.441,0.256 -0.022,1.38 0.177,2.507 0.618,3.696 0.221,0.595 -0.176,1.339 0.376,1.806 0.264,0.064 0.419,0.064 0.662,0 0.618,0.298 1.369,0.064 1.921,-0.276 0.155,-0.467 0.332,-0.977 0.133,-1.445 0.441,-0.615 0.265,-1.444 0.574,-2.103 0.176,-0.298 0.64,-0.574 0.375,-1 -0.442,-0.233 -0.066,-0.658 -0.111,-0.976 0.066,-1.042 0.487,-1.955 0.551,-3.038 0.31,-0.362 0.199,-0.936 0.199,-1.425 0.111,-0.254 0.355,-0.488 0.355,-0.785"
           mask="url(#a)"
           id="path67" />
        <path
           d="m 169.6317,58.076 c -0.265,1.02 0.64,2.763 -0.839,3.209 -0.154,0.128 -0.419,0.064 -0.618,-0.021 -0.376,-0.446 -0.088,-1.063 -0.022,-1.573 0.198,-0.722 0.64,-1.296 1.125,-1.891 h 0.133 z m 3.069,4.591 c -0.331,-0.489 -0.287,-1.148 -0.221,-1.701 -0.442,-0.765 -0.11,-1.593 -0.265,-2.485 0.022,-0.255 0.31,-0.425 0.177,-0.702 0.043,-1.19 0.088,-2.294 -0.044,-3.527 0.265,-0.701 0,-1.53 -0.419,-2.146 -0.906,-0.765 -2.231,-1.211 -3.512,-0.786 -1.015,0.34 -1.964,1.083 -2.383,2.103 0,0.383 -0.288,1.041 0.154,1.403 0.485,0.105 1.082,-0.022 1.611,0.042 0.972,-0.042 0.31,-1.424 1.303,-1.424 0.685,0.341 0.596,1.318 0.685,1.934 -0.111,0.51 -0.596,0.637 -1.038,0.765 -0.928,1.041 -2.385,1.296 -2.892,2.699 -0.178,0.68 -0.464,1.338 -0.287,2.124 -0.243,0.872 0.242,1.594 0.75,2.275 0.596,0.467 1.435,0.509 2.208,0.36 0.221,-0.36 0.64,-0.467 0.949,-0.68 0.729,0.764 1.722,0.595 2.672,0.639 0.464,-0.108 0.419,-0.575 0.552,-0.893 z"
           mask="url(#a)"
           id="path69" />
        <path
           d="m 180.9323,60.7332 c -0.021,-0.787 0.156,-1.68 -0.375,-2.338 -0.088,-0.255 0.089,-0.51 -0.155,-0.701 -0.838,-0.085 -0.949,-1.062 -1.81,-1.19 -0.353,-0.658 -1.081,-0.744 -1.634,-1.084 -0.376,-0.467 -0.816,-0.892 -0.64,-1.551 0.199,-0.212 0.42,-0.616 0.795,-0.594 0.618,0.021 0.795,0.658 1.082,1.04 0.463,0.659 1.324,0.107 1.921,0.128 0.485,-0.043 0.729,-0.531 0.75,-0.893 -0.198,-0.318 0.111,-0.743 -0.132,-1.04 -0.796,-0.192 -1.082,-1.169 -1.965,-1.19 -0.839,-0.575 -1.7,-0.149 -2.738,-0.297 l -0.795,0.637 c -0.177,0.169 -0.463,0.148 -0.485,0.446 -0.928,0.404 -0.641,1.444 -1.038,2.145 -0.044,1.297 0.817,2.465 1.965,3.166 0.508,0.745 1.523,0.894 2.053,1.636 0.199,0.553 0.773,1.233 0.287,1.871 -0.287,0.467 -0.883,0.192 -1.28,0.128 -0.309,-0.298 -0.728,-0.659 -0.795,-1.127 -0.243,-0.934 -1.215,-0.319 -1.876,-0.361 -0.686,0.106 -0.354,0.85 -0.53,1.297 0.573,0.658 0.751,1.571 1.633,1.996 1.369,0.68 3.511,0.872 4.747,-0.17 0.949,-0.191 0.905,-1.253 1.015,-1.954"
           mask="url(#a)"
           id="path71" />
        <path
           d="m 194.8285,61.8162 c -0.507,-0.382 -1.103,-0.935 -1.833,-0.828 -0.75,0.128 -1.7,0.276 -2.45,-0.127 -0.464,-0.405 0.309,-0.724 0.419,-1.084 -0.155,-0.935 1.017,-1.318 1.104,-2.168 0.398,-0.276 0.265,-0.786 0.663,-1.105 0.309,-0.425 0,-1.062 0.552,-1.381 0.132,-0.956 0.817,-1.784 1.479,-2.508 0.11,-0.68 -0.707,-0.977 -1.082,-1.423 -0.751,0.106 -1.413,-0.021 -2.054,0.042 -1.148,-0.147 -2.23,-0.042 -3.334,-0.021 -0.727,0.106 -0.375,0.935 -0.551,1.381 0.331,1.233 1.369,0.34 2.252,0.553 0.397,-0.022 0.684,-0.213 1.103,-0.106 0.288,0.084 0.199,0.382 0.244,0.594 -0.641,0.701 -0.817,1.573 -1.369,2.295 -0.265,1.169 -1.104,2.189 -1.414,3.357 l -0.242,0.319 c -0.641,0.85 -1.016,1.977 -0.795,3.039 0.441,0.404 1.126,0.382 1.678,0.382 1.611,-0.021 3.224,0.15 4.747,0 0.442,-0.296 0.838,-0.638 0.883,-1.211"
           mask="url(#a)"
           id="path73" />
        <path
           d="m 202.6588,61.7746 c -0.529,-0.404 -0.265,-1.105 -0.309,-1.637 -0.419,-0.807 0.265,-1.593 -0.088,-2.358 0.177,-0.469 0.021,-0.85 -0.155,-1.255 0.574,-0.785 -0.066,-1.805 0.221,-2.761 0.397,-0.659 -0.198,-1.339 0.022,-2.04 -0.353,-0.872 -1.524,-0.319 -2.208,-0.404 -1.037,0.404 -0.331,1.636 -0.574,2.507 0.332,1.191 -0.066,2.444 0.133,3.634 -0.309,0.807 0.154,1.572 0.066,2.485 -0.155,0.469 -0.486,1.148 -1.104,1.233 -0.309,0.107 -0.508,-0.19 -0.618,-0.404 0.176,-1.104 -0.045,-2.316 0.264,-3.441 -0.595,-0.681 0.309,-1.382 -0.132,-2.104 -0.022,-1.212 0.308,-2.401 0.066,-3.548 -0.066,-0.383 -0.551,-0.149 -0.795,-0.298 -0.595,0.063 -1.28,-0.17 -1.7,0.361 -0.221,0.171 -0.066,0.468 0,0.658 -0.11,2.126 0.022,4.23 0.045,6.418 l -0.089,0.276 c 0.022,1.169 -0.044,2.379 0.265,3.463 0.22,0.766 1.149,0.617 1.745,0.745 0.816,0.148 1.391,-0.893 2.074,-0.278 0.751,-0.19 1.259,0.617 2.032,0.192 0.243,-0.084 0.287,-0.425 0.574,-0.467 0.375,-0.276 0.242,-0.595 0.265,-0.977"
           mask="url(#a)"
           id="path75" />
        <path
           d="m 215.4489,62.0077 c 0.111,-0.213 -0.133,-0.361 -0.331,-0.447 -0.397,-0.87 -1.501,-0.319 -2.009,-1.061 -0.111,-0.362 -0.332,-0.765 -0.044,-1.063 -0.155,-1.402 0.486,-2.762 0.066,-4.101 0.486,-0.532 -0.088,-1.041 -0.088,-1.615 0.375,-0.34 0.949,-0.149 1.412,-0.213 0.398,-0.275 1.171,-0.403 0.95,-1.083 -0.419,-0.234 0.044,-0.723 -0.287,-1.02 -0.618,-0.042 -1.104,-0.276 -1.766,-0.298 -0.905,-0.275 -0.023,-1.062 -0.133,-1.657 0.486,-0.319 0.023,-0.659 -0.044,-1.02 -0.331,-0.467 -0.971,-0.637 -1.589,-0.51 -0.309,0.149 -0.906,0.022 -1.149,0.446 l 0.177,2.232 -0.066,0.446 c -0.066,0.489 -0.509,0.34 -0.927,0.403 -0.287,0.127 -0.287,0.425 -0.443,0.702 -0.109,0.382 -0.109,0.956 0.266,1.254 0.11,-0.044 0.199,0.02 0.221,-0.064 0.309,-0.191 0.685,0.02 0.839,0.255 0.22,1.593 -0.111,3.399 0.154,5.035 l -0.221,0.511 c 0.243,1.36 -0.243,3.059 1.105,3.995 0.971,0.127 2.251,0.425 3.179,0.084 0.331,-0.361 0.861,-0.679 0.728,-1.211"
           mask="url(#a)"
           id="path77" />
        <path
           d="m 223.0371,61.7746 c -0.53,-0.404 -0.265,-1.105 -0.309,-1.637 -0.42,-0.807 0.264,-1.593 -0.089,-2.358 0.176,-0.469 0.022,-0.85 -0.155,-1.255 0.574,-0.785 -0.065,-1.805 0.221,-2.761 0.398,-0.659 -0.198,-1.339 0.023,-2.04 -0.354,-0.872 -1.525,-0.319 -2.209,-0.404 -1.037,0.404 -0.33,1.636 -0.574,2.507 0.331,1.191 -0.066,2.444 0.132,3.634 -0.308,0.807 0.156,1.572 0.066,2.485 -0.153,0.469 -0.485,1.148 -1.103,1.233 -0.309,0.107 -0.508,-0.19 -0.618,-0.404 0.176,-1.104 -0.044,-2.316 0.265,-3.441 -0.596,-0.681 0.309,-1.382 -0.132,-2.104 -0.023,-1.212 0.308,-2.401 0.066,-3.548 -0.066,-0.383 -0.552,-0.149 -0.795,-0.298 -0.596,0.063 -1.281,-0.17 -1.701,0.361 -0.22,0.171 -0.066,0.468 0,0.658 -0.109,2.126 0.023,4.23 0.045,6.418 l -0.088,0.276 c 0.021,1.169 -0.045,2.379 0.265,3.463 0.22,0.766 1.148,0.617 1.744,0.745 0.817,0.148 1.391,-0.893 2.076,-0.278 0.75,-0.19 1.258,0.617 2.03,0.192 0.243,-0.084 0.287,-0.425 0.575,-0.467 0.375,-0.276 0.242,-0.595 0.265,-0.977"
           mask="url(#a)"
           id="path79" />
        <path
           d="m 231.8159,52.3603 c 0.133,-0.679 -0.795,-0.276 -0.84,-0.892 -1.081,-0.595 -2.693,-0.234 -3.686,0.489 -0.177,-0.022 -0.155,-0.192 -0.155,-0.34 -0.022,-0.191 -0.221,-0.234 -0.376,-0.319 -0.684,0.234 -1.656,-0.425 -2.141,0.212 -0.045,1.233 0,2.359 0.066,3.549 0.045,0.595 -0.154,1.296 0.045,1.806 -0.133,1.402 -0.156,2.869 0,4.292 -0.31,0.49 -0.266,1.169 -0.156,1.743 0,0.362 0.421,0.532 0.75,0.488 0.597,-0.298 1.15,0.213 1.679,-0.084 0.531,-0.51 0.288,-1.297 0.176,-1.913 -0.087,-0.553 0.199,-0.913 0.133,-1.423 -0.353,-0.468 -0.021,-1.126 -0.043,-1.701 -0.288,-0.531 0.109,-1.253 -0.221,-1.72 0.353,-0.999 -0.354,-2.274 0.617,-2.975 0.376,0.022 0.817,-0.34 1.127,0.022 0.11,0.849 0.065,1.784 0.155,2.655 -0.09,0.234 -0.177,0.511 -0.09,0.744 -0.242,1.912 0.178,3.909 -0.22,5.801 0.066,0.212 0.265,0.468 0.508,0.531 0.838,-0.298 1.655,0.51 2.429,-0.191 0.066,-0.574 0.198,-1.169 0.087,-1.806 -0.153,-0.829 -0.132,-1.701 -0.153,-2.529 0.352,-0.85 -0.067,-1.743 0.198,-2.571 -0.442,-0.637 0.198,-1.233 0,-1.933 0.31,-0.617 -0.022,-1.298 0.111,-1.935"
           mask="url(#a)"
           id="path81" />
        <path
           d="m 236.9324,62.0077 c 0.111,-0.424 -0.332,-0.659 -0.574,-0.914 -0.619,-0.914 -1.656,0 -2.406,-0.319 -0.839,0.214 -0.53,1.403 -0.486,2.04 0.154,0.32 0.508,0.467 0.839,0.49 0.663,-0.128 1.325,0.191 1.965,-0.023 0.463,-0.275 0.33,-0.912 0.662,-1.274"
           mask="url(#a)"
           id="path83" />
      </g>
    </g>
  </g>
</svg>
