<?xml version="1.0" encoding="UTF-8" standalone="no"?>
<svg
   xmlns:dc="http://purl.org/dc/elements/1.1/"
   xmlns:cc="http://creativecommons.org/ns#"
   xmlns:rdf="http://www.w3.org/1999/02/22-rdf-syntax-ns#"
   xmlns:svg="http://www.w3.org/2000/svg"
   xmlns="http://www.w3.org/2000/svg"
   xmlns:sodipodi="http://sodipodi.sourceforge.net/DTD/sodipodi-0.dtd"
   xmlns:inkscape="http://www.inkscape.org/namespaces/inkscape"
   width="100%"
   height="100%"
   viewBox="0 0 1920 1080"
   version="1.1"
   id="svg28"
   sodipodi:docname="K-rauta.svg"
   inkscape:version="1.0.2 (e86c870879, 2021-01-15)">
  <metadata
     id="metadata34">
    <rdf:RDF>
      <cc:Work
         rdf:about="">
        <dc:format>image/svg+xml</dc:format>
        <dc:type
           rdf:resource="http://purl.org/dc/dcmitype/StillImage" />
      </cc:Work>
    </rdf:RDF>
  </metadata>
  <defs
     id="defs32" />
  <sodipodi:namedview
     pagecolor="#ffffff"
     bordercolor="#666666"
     borderopacity="1"
     objecttolerance="10"
     gridtolerance="10"
     guidetolerance="10"
     inkscape:pageopacity="0"
     inkscape:pageshadow="2"
     inkscape:window-width="1920"
     inkscape:window-height="1017"
     id="namedview30"
     showgrid="false"
     inkscape:zoom="0.67760417"
     inkscape:cx="960"
     inkscape:cy="540"
     inkscape:window-x="-8"
     inkscape:window-y="-8"
     inkscape:window-maximized="1"
     inkscape:current-layer="svg28" />
  <path
     d="M 408.97322,485.20041 H 560.23324 L 529.28361,594.79044 H 378.01902 Z"
     fill="#fff200"
     id="path2"
     style="stroke-width:4.57158" />
  <path
     d="M 532.41972,598.95515 H 372.52398 l 33.30399,-117.91031 h 159.90031 z m -148.91937,-8.31114 h 142.63801 l 28.6044,-101.28345 H 412.1139 Z"
     id="path4"
     style="stroke-width:4.57158" />
  <path
     d="m 587.09129,485.20041 h 96.94959 l -28.94727,109.59003 h -96.94502 z"
     fill="#005baa"
     id="path6"
     style="stroke-width:4.57158" />
  <path
     d="m 658.29372,598.95515 h -105.5396 l 31.12792,-117.90573 h 105.54417 z m -94.7598,-8.31114 h 88.35501 l 26.75748,-101.28345 h -88.36872 z"
     id="path8"
     style="stroke-width:4.57158" />
  <path
     d="m 711.62582,485.20041 h 96.95417 l -28.93813,109.59003 h -96.94502 z"
     fill="#e6e7e8"
     id="path10"
     style="stroke-width:4.57158" />
  <path
     d="M 782.84197,598.95515 H 677.2978 l 31.13249,-117.90573 h 105.54417 z m -94.75523,-8.31114 h 88.35958 l 26.74377,-101.28345 h -88.35958 z"
     id="path12"
     style="stroke-width:4.57158" />
  <path
     d="m 805.70446,592.04749 h 42.79917 l 9.71462,-39.86879 h 0.29258 l 14.58336,39.86879 h 46.68502 l -20.43042,-46.25987 49.61084,-52.93894 h -53.9127 l -30.84448,39.46191 h -0.28343 l 10.70207,-39.46191 h -43.34776 z"
     id="path14"
     style="stroke-width:4.57158" />
  <path
     d="m 914.7276,562.03961 h 51.4029 l 7.78998,-27.78152 h -51.41661 z"
     id="path16"
     style="stroke-width:4.57158" />
  <path
     d="m 1027.696,520.63934 h 18.4875 c 5.8288,0 9.166,2.21722 9.166,6.94881 0,6.39564 -4.1647,13.61417 -13.893,13.61417 h -19.0452 z m -61.53807,71.40815 h 42.38317 l 8.8871,-34.45604 20.563,34.45604 h 49.6017 l -28.7644,-40.70082 h 7.502 c 17.9297,0 31.8274,-11.40153 31.8274,-36.41267 0,-14.02562 -4.0276,-22.0899 -22.9174,-22.0899 h -81.99593 z"
     id="path18"
     style="stroke-width:4.57158" />
  <path
     d="m 1081.563,592.04749 h 47.5262 l 8.6083,-14.45078 h 35.0183 v 14.45078 h 42.8038 V 492.8441 h -74.3477 z m 91.1574,-38.34645 h -22.2408 l 21.9619,-35.71322 h 0.2835 v 35.71322 z"
     id="path20"
     style="stroke-width:4.57158" />
  <path
     d="m 1350.9208,492.84868 h -42.6575 l -18.4783,65.71652 c -1.9384,6.81166 -5.1294,11.25524 -12.9239,11.25524 -5.2802,0 -8.8872,-2.08007 -8.8872,-7.21853 0,-2.21722 1.2481,-7.51568 2.3544,-11.25524 l 16.4028,-58.49342 h -43.4849 l -17.0886,60.99865 c -3.0583,11.10438 -3.4835,14.03476 -3.4835,17.63717 0,22.08075 28.4947,23.47509 44.7467,23.47509 35.5806,0 55.8647,-4.023 62.9507,-29.03414 z"
     id="path22"
     style="stroke-width:4.57158" />
  <path
     d="m 1356.3655,592.04749 h 43.2289 l 17.212,-66.3977 h 27.937 l 8.8871,-32.80111 h -99.2079 l -8.8917,32.80111 h 28.0649 z"
     id="path24"
     style="stroke-width:4.57158" />
  <path
     d="m 1413.5332,592.04749 h 47.5125 l 8.622,-14.45078 h 35.0046 v 14.45078 h 42.8037 v -99.19881 h -74.3339 z m 91.1437,-38.34645 h -22.2408 l 21.9619,-35.70408 h 0.2834 v 35.70408 z"
     id="path26"
     style="stroke-width:4.57158" />
</svg>
