<?xml version="1.0" encoding="UTF-8" standalone="no"?>
<svg
   xmlns:dc="http://purl.org/dc/elements/1.1/"
   xmlns:cc="http://creativecommons.org/ns#"
   xmlns:rdf="http://www.w3.org/1999/02/22-rdf-syntax-ns#"
   xmlns:svg="http://www.w3.org/2000/svg"
   xmlns="http://www.w3.org/2000/svg"
   xmlns:sodipodi="http://sodipodi.sourceforge.net/DTD/sodipodi-0.dtd"
   xmlns:inkscape="http://www.inkscape.org/namespaces/inkscape"
   width="100%"
   height="100%"
   viewBox="0 0 1920 1080"
   version="1.1"
   id="svg50"
   sodipodi:docname="Lekmer.svg"
   inkscape:version="1.0.2 (e86c870879, 2021-01-15)">
  <metadata
     id="metadata56">
    <rdf:RDF>
      <cc:Work
         rdf:about="">
        <dc:format>image/svg+xml</dc:format>
        <dc:type
           rdf:resource="http://purl.org/dc/dcmitype/StillImage" />
      </cc:Work>
    </rdf:RDF>
  </metadata>
  <defs
     id="defs54" />
  <sodipodi:namedview
     pagecolor="#ffffff"
     bordercolor="#666666"
     borderopacity="1"
     objecttolerance="10"
     gridtolerance="10"
     guidetolerance="10"
     inkscape:pageopacity="0"
     inkscape:pageshadow="2"
     inkscape:window-width="1920"
     inkscape:window-height="1017"
     id="namedview52"
     showgrid="false"
     inkscape:zoom="0.67760417"
     inkscape:cx="960"
     inkscape:cy="540"
     inkscape:window-x="-8"
     inkscape:window-y="-8"
     inkscape:window-maximized="1"
     inkscape:current-layer="svg50" />
  <g
     id="g82"
     transform="matrix(4.8005327,0,0,4.8005327,518.83104,362.38612)">
    <path
       d="m 177.3,63.7 a 0.7,0.7 0 0 0 -0.9,0.1 c -1.8,2.5 -2.6,2.8 -5.7,2.8 h -5.5 l -1.2,-5.4 -1.4,0.3 1,5.1 h -10.5 l 1,-3.8 -1.3,-0.4 -1.1,4.1 h -9.9 l 1.7,-5.2 -1.3,-0.4 -1.9,5.7 h -2.8 l 2.8,-7.8 -1.3,-0.4 -3,8.2 h -4.7 a 0.7,0.7 0 0 0 0,1.3 h 4.2 l -1.5,4.3 h -11 a 0.7,0.7 0 0 0 0,1.3 h 34.4 c 3.4,0 4.7,-0.4 6.8,-3.3 a 0.7,0.7 0 0 0 -1.1,-0.8 c -1.8,2.5 -2.6,2.8 -5.7,2.8 h -5.9 l 1.2,-4.3 h 17.9 c 3.4,0.1 4.7,-0.4 6.8,-3.3 a 0.8,0.8 0 0 0 -0.1,-1 z m -27.1,8.5 h -14.7 l 1.5,-4.3 h 14.4 z"
       style="fill:#003969"
       id="path2" />
    <path
       d="m 118.6,7.3 c 0,4 14.5,7.3 32.6,7.4 18.1,0.1 32.6,-3 32.6,-6.9 0,-3.9 -14.5,-7.2 -32.5,-7.3 -18,-0.1 -32.7,2.9 -32.7,6.8 z"
       style="fill:#ffffff"
       id="path4" />
    <path
       d="m 151.5,8.3 28.6,-2.8 v 4 z m -0.8,0.1 -28.6,0.7 v -4 z"
       style="fill:#a6e5ff"
       id="path6" />
    <path
       d="m 153.4,8.3 a 1.5,1.5 0 0 0 -0.5,-1.2 2.3,2.3 0 0 0 -1.7,-0.7 2,2 0 0 0 -2.2,1.7 1.5,1.5 0 0 0 0.5,1.2 2.8,2.8 0 0 0 1,0.6 v 16.6 h 1.3 V 10 a 1.6,1.6 0 0 0 1,-0.6 1.4,1.4 0 0 0 0.5,-1.1 z"
       style="fill:#003969"
       id="path8" />
    <path
       d="M 92.8,27.9 V 13.7 h 4.5 a 12.8,12.8 0 0 0 0.5,5 5.2,5.2 0 0 0 2.9,3 c 3.9,1.7 42.3,1.2 53.4,1.2 13.6,0.1 24.5,9.3 24.4,20.5 -0.1,11.2 -11,20.3 -24.5,20.1 A 27.4,27.4 0 0 1 132.9,53.3 C 123.8,41.8 127.3,28.2 92.8,27.9 Z"
       style="fill:#f32a32"
       id="path10" />
    <path
       d="m 135,40.7 c -0.1,8.4 9,15.4 20.2,15.4 11.2,0 20.4,-6.7 20.4,-15.2 0,-8.5 -9,-15.4 -20.2,-15.4 -11.2,0 -20.4,6.8 -20.4,15.2 z"
       style="fill:#a6e5ff"
       id="path12" />
    <path
       d="m 158.9,51.3 1.7,4.2 a 15.9,15.9 0 0 1 -10.3,0.3 l 1.5,-3.7 z"
       style="fill:#b52a2d"
       id="path14" />
    <path
       d="m 134.7,40.7 a 13.4,13.4 0 0 0 4.1,9.4 c 3.9,4 9.9,6.3 16.5,6.3 6.6,0 12.5,-2.2 16.5,-6.1 a 13,13 0 0 0 4.2,-9.4 13.4,13.4 0 0 0 -4.1,-9.4 c -3.9,-4 -9.9,-6.2 -16.5,-6.3 -11.3,0 -20.7,6.9 -20.7,15.5 z m 20.5,15.2 c -6.4,-0.1 -12.3,-2.3 -16,-6.2 a 12.6,12.6 0 0 1 -3.9,-9 c 0.1,-8.3 9.1,-14.9 20.2,-14.9 6.4,0.1 12.3,2.3 16,6.2 a 12,12 0 0 1 -0.1,17.9 c -4,3.9 -9.8,6 -16.2,6 z"
       style="fill:#ffffff"
       id="path16" />
    <path
       d="m 155,30.6 c -9.1,-0.1 -9.9,2.9 -11.5,8.1 -7.9,-5.9 -6.5,6.6 -0.7,3.3 -0.9,5.2 2.8,9.9 12.3,10.2 h 0.1 c 9.4,-0.1 13.3,-4.8 12.5,-10.1 5.8,3.4 7.3,-9.1 -0.7,-3.3 -1.5,-5.3 -2.2,-8.3 -11.4,-8.3 H 155 Z"
       style="fill:#f32a32"
       id="path18" />
    <path
       d="m 155.1,32 c -7.6,-0.1 -12.4,3.4 -6.4,8.8 -2.1,0.7 -5.2,2.5 -4.4,4.9 0.8,2.4 3.9,4.5 10.6,4.6 h 0.1 c 6.7,0.1 10,-2.5 10.7,-4.4 0.7,-1.9 -2.2,-4.4 -4.4,-5 6,-5.4 1.4,-8.8 -6.2,-8.9 h 0.1 z"
       style="fill:#ffffff"
       id="path20" />
    <path
       d="m 155.7,41.4 c -0.1,0.1 0.3,0.4 0.7,0.6 0.4,0.2 0.9,0.1 0.9,-0.1 0,-0.2 -0.3,-0.4 -0.7,-0.6 -0.4,-0.2 -0.8,-0.1 -0.9,0.1 z"
       style="fill:#003969"
       id="path22" />
    <path
       d="m 155.6,41.4 c -0.1,0.3 0.4,0.7 0.8,0.8 0.4,0.1 1,0.1 1.1,-0.2 0.1,-0.3 -0.4,-0.6 -0.8,-0.8 -0.4,-0.2 -1.1,-0.2 -1.1,0.2 z m 1,0.1 0.6,0.4 a 1.2,1.2 0 0 1 -0.7,-0.1 l -0.6,-0.4 a 1.2,1.2 0 0 1 0.7,0.1 z"
       style="fill:#003969"
       id="path24" />
    <path
       d="m 154.1,41.4 c 0.1,0.1 -0.3,0.4 -0.7,0.5 -0.4,0.1 -0.9,0.1 -0.9,-0.1 0,-0.2 0.3,-0.4 0.7,-0.5 0.4,-0.1 0.8,-0.1 0.9,0.1 z"
       style="fill:#003969"
       id="path26" />
    <path
       d="m 153.2,41.1 c -0.5,0.1 -0.9,0.4 -0.8,0.7 V 42 a 1.1,1.1 0 0 0 0.9,0 c 0.5,-0.1 0.9,-0.4 0.8,-0.7 C 154,41 153.7,41 153.2,41.1 Z m -0.5,0.7 a 1.2,1.2 0 0 1 0.6,-0.3 h 0.7 a 1,1 0 0 1 -0.6,0.3 z m -4.5,2.7 0.2,0.4 0.7,-0.4 c 1.4,2.2 5.4,3.3 9.6,2.8 v -0.4 c -4.8,0.7 -8.3,-0.9 -9.4,-2.8 v -0.2 z"
       style="fill:#003969"
       id="path28" />
    <path
       d="m 169.5,39 a 9.3,9.3 0 0 0 -2.6,-5.7 c -2.5,-2.5 -6.3,-3.8 -11.5,-3.9 -5.2,-0.1 -9.5,1.2 -12,3.9 a 10,10 0 0 0 -2.6,5.6 1.2,1.2 0 0 0 -0.9,1.3 1.4,1.4 0 0 0 0.7,1.3 V 45 c 0,3 1.3,3.1 3.7,3.1 h 1.6 a 0.8,0.8 0 0 0 0.7,0.6 h 3.3 a 0.8,0.8 0 1 0 0,-1.6 h -3.3 a 0.7,0.7 0 0 0 -0.7,0.5 h -1.6 c -2.4,0 -3.2,-0.1 -3.2,-2.6 v -3.5 a 1.3,1.3 0 0 0 1,-1.3 1.4,1.4 0 0 0 -0.8,-1.3 9.3,9.3 0 0 1 2.5,-5.3 c 2.4,-2.5 6.3,-3.8 11.6,-3.7 5.3,0.1 8.7,1.3 11.1,3.7 a 9.2,9.2 0 0 1 2.5,5.5 1.4,1.4 0 0 0 -0.7,1.2 1.3,1.3 0 0 0 1.1,1.4 1.3,1.3 0 0 0 1.2,-1.4 1.3,1.3 0 0 0 -1.2,-1.4 z"
       style="fill:#003969"
       id="path30" />
    <path
       d="m 157.8,37 a 2.4,2.4 0 0 1 2.7,-2 2.3,2.3 0 0 1 1.8,2.8 c 0,0.1 -0.1,0.3 -0.1,0.4 a 1.7,1.7 0 0 0 -1.9,-1.4 1.8,1.8 0 0 0 -1.5,1.9 1.9,1.9 0 0 0 0.5,1 2.5,2.5 0 0 1 -1.5,-2.7 z"
       style="fill:#a6e5ff"
       id="path32" />
    <path
       d="m 160.3,36.8 a 1.7,1.7 0 0 1 1.9,1.4 2.3,2.3 0 0 1 -2.5,1.6 h -0.4 a 1.7,1.7 0 0 1 1,-2.9 z"
       style="fill:#003969"
       id="path34" />
    <path
       d="m 148.1,36.9 a 2.2276669,2.2276669 0 1 1 4.4,0.7 3.1,3.1 0 0 1 -0.1,0.4 1.7,1.7 0 0 0 -1.9,-1.4 1.8,1.8 0 0 0 -1.5,1.9 1.9,1.9 0 0 0 0.5,1 2.3,2.3 0 0 1 -1.5,-2.6 z"
       style="fill:#a6e5ff"
       id="path36" />
    <path
       d="m 150.5,36.6 a 1.8,1.8 0 0 1 1.9,1.4 2.3,2.3 0 0 1 -2.5,1.6 h -0.4 a 1.7,1.7 0 0 1 -0.5,-1 1.8,1.8 0 0 1 1.5,-1.9 z"
       style="fill:#003969"
       id="path38" />
    <path
       d="m 120.2,56.4 0.2,-2.9 a 11.7,11.7 0 0 0 0.1,-1.6 c 0,-4.4 -1.3,-8.3 -3.6,-10.8 a 9,9 0 0 0 -6.7,-2.9 9.4,9.4 0 0 0 -6.3,2.5 A 10.5,10.5 0 0 0 98.5,39 9.4,9.4 0 0 0 91,42.6 7.4,7.4 0 0 0 87.5,41 V 39.8 L 84,39.4 a 42.9,42.9 0 0 0 -5.3,0 h -2.5 a 9.3,9.3 0 0 0 -4.6,-1.3 9.5,9.5 0 0 0 -7.1,3.3 7.8,7.8 0 0 0 -4.9,-1.7 7.4,7.4 0 0 0 -3.8,1 5.6,5.6 0 0 0 -1.9,-0.5 v -0.4 l -3.6,-0.4 a 28,28 0 0 0 -6.2,0 L 41,40 v 1.1 h -1 c 0.1,-1.5 0.1,-3 0.2,-4.3 L 40.4,33.2 37,32.8 a 33.8,33.8 0 0 0 -6.2,0 L 27,33 v 3.8 c 0,0.7 0.1,1.4 0.1,2.2 a 8.5,8.5 0 0 0 -3.6,-0.7 c -4.1,0 -7.3,2.5 -9.1,6.5 0.1,-3.1 0.3,-6.2 0.4,-8.5 l 0.3,-3.8 -3.8,-0.2 A 47.6,47.6 0 0 0 3.7,32.5 L 0,32.8 0.2,36.5 A 233.6,233.6 0 0 1 0.4,60 v 3.9 h 19.8 a 9.4,9.4 0 0 0 3.7,0.9 15.3,15.3 0 0 0 2.8,-0.3 v 0.7 l 4.4,-0.4 a 32.7,32.7 0 0 1 4.6,-0.1 l 4.1,0.2 v -0.8 h 0.9 v 0.5 l 4.4,-0.4 h 2.2 l 5.9,0.5 V 64.5 H 54 v -1 h 1 c 0,0.5 -0.1,1.2 -0.1,1.2 l 4.4,-0.5 a 24.5,24.5 0 0 1 4.6,0 l 4.1,0.4 v -0.4 a 9.4,9.4 0 0 0 3.5,0.7 9.9,9.9 0 0 0 2.6,-0.3 v 0 l 4.4,-0.4 A 28.3,28.3 0 0 1 83,64.1 l 1.7,0.2 a 7.8,7.8 0 0 0 3.7,0.9 6.5,6.5 0 0 0 4.1,-1.4 13.7,13.7 0 0 0 5,1 9.9,9.9 0 0 0 6.7,-2.4 10.4,10.4 0 0 0 6.2,2.3 11.8,11.8 0 0 0 9.2,-4.2 l 2,-2.4 c 0.1,-0.1 -0.7,-1.2 -1.2,-1.8 z"
       style="fill:#ffffff"
       id="path40" />
    <path
       d="M 16.9,60.1 H 4.2 c 0.2,-5 0.5,-16.9 0,-24.1 a 56.1,56.1 0 0 1 7,-0.2 c -0.4,5.3 -0.7,12.4 -0.5,17.5 H 17 c -0.2,2 -0.1,5.4 -0.1,6.8 z"
       style="fill:#f32a32"
       id="path42" />
    <path
       d="m 23.9,61 c -2.5,0 -7,-2.2 -7,-9.4 0,-5.3 2.5,-9.6 6.7,-9.6 4.2,0 6.8,5.8 6.4,11.2 -3.2,-0.1 -6.2,-0.1 -8,0 0,1.2 0.5,2.9 2.4,2.9 A 4.6,4.6 0 0 0 27.7,54.4 22.2,22.2 0 0 0 30,58.2 7.5,7.5 0 0 1 23.9,61 Z M 23.8,46.8 c -1.1,0 -1.6,1.3 -1.6,2.6 h 3 c 0,-0.9 -0.4,-2.6 -1.5,-2.6 z m 14.8,13.7 c -0.7,-1.7 -1.8,-4 -2.7,-5.6 -0.1,2.3 0,4.7 0,6 H 30.8 C 31.2,55.3 31.3,42.8 31,36.4 a 46,46 0 0 1 5.5,0 c -0.1,3.4 -0.4,9.9 -0.4,13.8 0.9,-1.8 1.7,-4.1 2.3,-5.6 h 6.1 a 67.6,67.6 0 0 0 -3.6,8.4 57,57 0 0 0 4.4,7.1 40.7,40.7 0 0 0 -6.7,0.4 z"
       style="fill:#f32a32"
       id="path44" />
    <path
       d="m 59,60.4 c 0.1,-3 0.1,-5.6 0.1,-7.3 0,-1.7 -0.4,-2.8 -1,-2.8 -0.6,0 -0.9,0.9 -0.9,2.5 0,1.6 -0.1,4.4 -0.1,7 a 42.9,42.9 0 0 0 -5.3,0 c 0.1,-2.5 0.1,-4.3 0.1,-6.6 0,-2.3 -0.4,-2.5 -0.9,-2.5 -0.5,0 -0.9,1.2 -1,2.2 -0.1,1 -0.1,4.9 -0.1,7.5 a 32.8,32.8 0 0 0 -5.4,0.1 c 0.4,-6.1 0.2,-13.8 0.1,-17.3 a 24.4,24.4 0 0 1 5.1,0 c 0,0.7 -0.1,1.2 -0.1,2 a 4,4 0 0 1 2.9,-1.2 4.6,4.6 0 0 1 3.5,1.6 4.4,4.4 0 0 1 3.5,-2 c 2.9,0 4.8,3.2 4.9,7 0.1,3.8 0,6.1 0.1,9.8 a 31.6,31.6 0 0 0 -5.5,0 z M 71.7,61 c -2.5,0 -7,-2.2 -7,-9.4 0,-5.3 2.5,-9.6 6.7,-9.6 4.2,0 6.8,5.8 6.4,11.2 -3.2,-0.1 -6.2,-0.1 -8,0 0,1.2 0.5,2.9 2.4,2.9 a 4.6,4.6 0 0 0 3.3,-1.7 22.2,22.2 0 0 0 2.4,3.8 7.5,7.5 0 0 1 -6.2,2.8 z M 71.6,46.8 c -1.1,0 -1.6,1.3 -1.6,2.6 h 3 c 0,-0.9 -0.3,-2.6 -1.4,-2.6 z m 15.3,4.9 a 2.1,2.1 0 0 0 -1.5,-0.8 2.8,2.8 0 0 0 -1.7,0.7 c -0.1,2.8 -0.1,5.8 -0.1,8.6 a 25.8,25.8 0 0 0 -5.4,0.1 170.3,170.3 0 0 0 0,-17.3 41.8,41.8 0 0 1 5.2,0 v 2.5 a 4.1,4.1 0 0 1 2.5,-1 3.8,3.8 0 0 1 3.3,2.1 c -0.6,1.4 -1.7,3.6 -2.3,5 z m 1.7,9.8 a 3.2,3.2 0 0 1 -3.3,-3.3 c 0,-2.4 1.5,-3.8 3.3,-3.8 a 3.4,3.4 0 0 1 3.2,3.6 3.3,3.3 0 0 1 -3.2,3.4 z m 9.1,-0.4 A 10.3,10.3 0 0 1 92,59.2 c 0.5,-1.3 1.2,-2.9 1.7,-4.4 a 6.7,6.7 0 0 0 3.6,1.5 c 0.4,0 1.2,0 1.2,-0.7 0,-0.7 -5.8,-2 -5.8,-7.3 a 5.5,5.5 0 0 1 5.8,-5.7 6.7,6.7 0 0 1 5.1,2.6 34.5,34.5 0 0 0 -2,4 3.6,3.6 0 0 0 -2.7,-1.7 c -0.6,0 -1.1,0.2 -1.1,0.8 0,0.6 5.9,1.7 5.9,7.4 -0.1,3.1 -2.5,5.4 -6.1,5.4 z"
       style="fill:#f32a32"
       id="path46" />
    <path
       d="m 110.5,61 c -2.5,0 -7,-2.2 -7,-9.4 0,-5.3 2.5,-9.6 6.7,-9.6 4.2,0 6.8,5.8 6.4,11.2 -3.2,-0.1 -6.2,-0.1 -8,0 0,1.2 0.5,2.9 2.4,2.9 a 4.6,4.6 0 0 0 3.3,-1.7 22.2,22.2 0 0 0 2.4,3.8 7.5,7.5 0 0 1 -6.2,2.8 z m -0.1,-14.2 c -1.1,0 -1.6,1.3 -1.6,2.6 h 3 c 0,-0.9 -0.3,-2.6 -1.4,-2.6 z"
       style="fill:#f32a32"
       id="path48" />
  </g>
</svg>
