<?xml version="1.0" encoding="UTF-8" standalone="no"?>
<svg
   xmlns:dc="http://purl.org/dc/elements/1.1/"
   xmlns:cc="http://creativecommons.org/ns#"
   xmlns:rdf="http://www.w3.org/1999/02/22-rdf-syntax-ns#"
   xmlns:svg="http://www.w3.org/2000/svg"
   xmlns="http://www.w3.org/2000/svg"
   xmlns:sodipodi="http://sodipodi.sourceforge.net/DTD/sodipodi-0.dtd"
   xmlns:inkscape="http://www.inkscape.org/namespaces/inkscape"
   version="1.0"
   width="100%"
   height="100%"
   viewBox="0 0 1920 1080"
   id="svg6"
   sodipodi:docname="LensWay.svg"
   inkscape:version="1.0.2 (e86c870879, 2021-01-15)">
  <metadata
     id="metadata10">
    <rdf:RDF>
      <cc:Work
         rdf:about="">
        <dc:format>image/svg+xml</dc:format>
        <dc:type
           rdf:resource="http://purl.org/dc/dcmitype/StillImage" />
      </cc:Work>
    </rdf:RDF>
  </metadata>
  <sodipodi:namedview
     pagecolor="#ffffff"
     bordercolor="#666666"
     borderopacity="1"
     objecttolerance="10"
     gridtolerance="10"
     guidetolerance="10"
     inkscape:pageopacity="0"
     inkscape:pageshadow="2"
     inkscape:window-width="1920"
     inkscape:window-height="1017"
     id="namedview8"
     showgrid="false"
     inkscape:zoom="0.67760417"
     inkscape:cx="960"
     inkscape:cy="540"
     inkscape:window-x="-8"
     inkscape:window-y="-8"
     inkscape:window-maximized="1"
     inkscape:current-layer="svg6" />
  <defs
     id="defs2" />
  <path
     d="m 658.80774,495.07037 c -38.7349,0 -61.0929,13.95596 -66.50439,41.58305 l -3.41779,17.80096 c -0.71204,3.98742 -1.28167,8.11724 -1.42408,12.24706 0,10.25336 5.12668,20.79153 14.24077,28.19673 10.82299,9.3989 24.06691,12.53188 46.99454,12.53188 21.07635,0 34.32026,-2.42093 45.99769,-9.39891 11.1078,-6.69317 14.52559,-12.53188 17.23133,-30.19044 h -40.5862 c -2.70574,14.09837 -8.68687,20.50671 -19.08262,20.50671 -7.97484,0 -14.09837,-5.41149 -14.09837,-12.53187 0.14241,-2.56335 0.28481,-5.12668 0.71204,-7.54761 l 1.70889,-9.82613 h 72.62793 l 2.70574,-16.23448 c 0.42723,-2.56334 0.56963,-5.12668 0.42723,-7.69002 0.1424,-24.92134 -20.93394,-39.44693 -57.53271,-39.44693 z m 11.81984,36.31396 -1.28167,7.12039 h -24.77894 l 1.7089,-10.11095 c 1.70888,-9.82613 5.12666,-12.9591 13.52873,-12.9591 7.12038,0 11.39261,3.7026 11.39261,10.11095 0.28481,1.99371 0,3.98742 -0.56963,5.83871 z m 187.69335,-4.55705 c 0.42721,-2.27852 0.71203,-4.55703 0.71203,-6.83556 0,-12.81669 -12.53187,-23.78209 -27.34228,-23.78209 -10.11094,0 -22.64282,3.98742 -32.89618,10.11095 -5.83871,3.41778 -8.54445,5.98113 -15.80725,12.38947 l 3.98742,-20.36429 h -51.40918 l -18.65541,106.80578 h 50.98196 l 11.53502,-65.36514 c 2.27852,-12.53188 7.12038,-17.94337 15.94966,-17.94337 5.5539,0.28481 9.82613,4.84186 9.82613,10.39577 0,1.42407 -0.42722,4.12982 -0.71204,6.69315 l -12.24706,66.36199 h 51.69399 l 14.24077,-76.61535 c 0.14242,-0.71203 0.14242,-1.28167 0.14242,-1.85131 z M 544.16954,441.24027 h -62.51698 l -29.6208,163.91126 h 126.74286 l 5.26908,-28.05432 h -64.51069 z m 897.88046,57.2479 -47.7066,74.62163 -7.4052,-74.62163 h -54.3997 l 9.5413,101.25187 0.2848,2.42093 c 0.1425,0.99685 0.2849,2.13611 0.2849,3.27537 0,7.40519 -2.9906,10.11094 -12.3895,10.39576 l -6.6932,0.28481 -6.4084,22.64282 h 35.7444 c 15.2376,0 28.7664,-7.12037 36.4563,-18.94021 l 1.9937,-3.13298 76.6154,-117.91355 H 1442.05 Z m -518.36394,-1.99372 c -36.17156,0 -57.53271,13.81354 -57.53271,36.74118 0,13.24392 6.12352,20.36431 22.07319,25.63339 l 14.52558,4.69946 1.7089,0.42722 c 8.54446,2.70574 13.10151,7.4052 13.10151,14.09836 0,7.12039 -5.69631,11.81984 -14.81041,11.81984 -8.82927,0 -13.95594,-4.69945 -13.95594,-13.10151 0,-1.28167 0.28481,-4.41464 0.42721,-7.83242 h -31.18728 c -0.42723,2.70575 -0.71204,5.5539 -0.71204,8.40206 0.28481,9.68372 5.41149,18.513 13.52873,23.63967 8.54447,4.69946 20.36431,6.83557 38.8773,6.83557 10.82299,0 21.50357,-1.28167 32.04174,-3.98741 16.94647,-4.98428 29.47835,-19.22504 29.47835,-34.17786 0,-11.39261 -8.11724,-21.93078 -19.36745,-25.63338 l -2.99056,-0.99685 -20.36426,-6.40835 -2.42093,-0.71204 c -5.83872,-1.99371 -9.39891,-5.69631 -9.39891,-10.53817 0,-5.69631 6.40835,-10.82297 13.95596,-10.82297 7.54761,0 13.67113,5.6963 13.67113,12.53188 0,2.13611 -0.42722,4.27222 -1.28167,6.12352 h 30.76002 c 0.42723,-2.13611 0.71205,-4.27223 0.71205,-6.40834 -0.14242,-3.84501 -0.99686,-7.69002 -2.70575,-11.10781 -6.97798,-14.09836 -19.79468,-19.22503 -48.13376,-19.22504 z m 265.73264,-55.25418 -40.3013,95.41315 -3.2754,-95.41315 h -60.8081 l -39.8742,95.98278 -4.6994,-95.98278 h -61.09287 l 6.40834,163.91126 h 62.65933 l 35.4595,-83.0237 2.9905,83.0237 h 63.9411 l 69.2102,-163.91126 z m 129.3063,102.67595 c 1.1392,-5.4115 1.7088,-10.82298 1.9937,-16.37688 0,-6.83557 -2.5634,-13.38632 -7.1205,-18.513 -8.6868,-9.96854 -21.3611,-13.95596 -45.9977,-13.95596 -43.007,0 -65.3651,11.2502 -69.0677,35.1747 l 37.4533,-1.9937 c 3.1329,-10.25336 8.8292,-14.09836 20.0794,-14.09836 7.5477,0 13.244,4.27222 13.244,9.6837 0,8.97171 -8.8293,15.38004 -21.646,15.66486 l -11.8199,0.56963 h -2.4209 c -29.6207,0.99685 -49.5579,16.37688 -49.5579,38.02285 0,16.5193 14.8104,29.4784 33.0386,29.4784 12.3895,0 23.6398,-3.98742 39.3045,-14.24077 l -2.1361,11.96224 h 53.4029 l 11.1079,-58.81438 z m -58.3872,26.91504 c -1.709,8.97171 -5.8387,12.95911 -13.5288,12.95911 -5.5539,-0.14241 -9.9685,-4.55704 -9.8261,-10.11094 v -0.1424 c 0,-5.2691 3.133,-8.9717 10.823,-13.10151 l 16.2345,-8.40207 z"
     id="path4"
     style="fill:#ff0000;stroke-width:1.42407" />
</svg>
