<?xml version="1.0" encoding="UTF-8" standalone="no"?>
<svg
   xmlns:dc="http://purl.org/dc/elements/1.1/"
   xmlns:cc="http://creativecommons.org/ns#"
   xmlns:rdf="http://www.w3.org/1999/02/22-rdf-syntax-ns#"
   xmlns:svg="http://www.w3.org/2000/svg"
   xmlns="http://www.w3.org/2000/svg"
   xmlns:sodipodi="http://sodipodi.sourceforge.net/DTD/sodipodi-0.dtd"
   xmlns:inkscape="http://www.inkscape.org/namespaces/inkscape"
   width="100%"
   height="100%"
   viewBox="0 0 1920 1080"
   version="1.1"
   id="svg4"
   sodipodi:docname="LYKo.svg"
   inkscape:version="1.0.2 (e86c870879, 2021-01-15)">
  <metadata
     id="metadata10">
    <rdf:RDF>
      <cc:Work
         rdf:about="">
        <dc:format>image/svg+xml</dc:format>
        <dc:type
           rdf:resource="http://purl.org/dc/dcmitype/StillImage" />
      </cc:Work>
    </rdf:RDF>
  </metadata>
  <defs
     id="defs8" />
  <sodipodi:namedview
     pagecolor="#ffffff"
     bordercolor="#666666"
     borderopacity="1"
     objecttolerance="10"
     gridtolerance="10"
     guidetolerance="10"
     inkscape:pageopacity="0"
     inkscape:pageshadow="2"
     inkscape:window-width="1920"
     inkscape:window-height="1017"
     id="namedview6"
     showgrid="false"
     inkscape:zoom="0.67760417"
     inkscape:cx="960"
     inkscape:cy="540"
     inkscape:window-x="-8"
     inkscape:window-y="-8"
     inkscape:window-maximized="1"
     inkscape:current-layer="svg4" />
  <path
     d="m 1147.7492,674.54858 h 149.5864 V 626.0249 h -149.5864 z m 74.7876,-269.16502 c -53.2516,0 -96.561,44.21424 -96.561,98.54039 0,54.33747 43.3207,98.56301 96.561,98.56301 53.2516,0 96.5723,-44.22554 96.5723,-98.56301 0,-54.32615 -43.3207,-98.54039 -96.5723,-98.54039 z m 0,149.19052 c -27.3497,0 -49.5982,-22.71225 -49.5982,-50.65013 0,-27.91525 22.2485,-50.61618 49.5982,-50.61618 27.3384,0 49.6208,22.70093 49.6208,50.61618 0,27.93788 -22.2824,50.63881 -49.6208,50.63881 z M 652.98877,412.96186 H 600.89085 V 674.61644 H 743.60023 V 626.0249 h -90.61146 z m 161.53067,97.02472 -40.22149,-96.6854 h -58.13792 l 72.38963,151.14729 v 110.10011 h 51.92825 V 564.41454 l 76.43893,-151.11336 h -58.51118 z m 303.96856,-96.6854 h -60.7508 l -67.50326,98.2463 0.7239,-98.2463 h -51.91692 v 261.2474 h 51.91692 v -82.71647 l 22.62176,-32.93728 54.1791,115.65375 h 61.418 l -80.1941,-158.99705 z"
     fill="currentColor"
     id="path2"
     style="stroke-width:11.3109" />
</svg>
