<?xml version="1.0" encoding="UTF-8" standalone="no"?>
<svg
   xmlns:dc="http://purl.org/dc/elements/1.1/"
   xmlns:cc="http://creativecommons.org/ns#"
   xmlns:rdf="http://www.w3.org/1999/02/22-rdf-syntax-ns#"
   xmlns:svg="http://www.w3.org/2000/svg"
   xmlns="http://www.w3.org/2000/svg"
   xmlns:sodipodi="http://sodipodi.sourceforge.net/DTD/sodipodi-0.dtd"
   xmlns:inkscape="http://www.inkscape.org/namespaces/inkscape"
   width="100%"
   height="100%"
   viewBox="0 0 1920 1080"
   version="1.1"
   id="svg8"
   sodipodi:docname="Media_Markt.svg"
   inkscape:version="1.0.2 (e86c870879, 2021-01-15)">
  <metadata
     id="metadata12">
    <rdf:RDF>
      <cc:Work
         rdf:about="">
        <dc:format>image/svg+xml</dc:format>
        <dc:type
           rdf:resource="http://purl.org/dc/dcmitype/StillImage" />
      </cc:Work>
    </rdf:RDF>
  </metadata>
  <sodipodi:namedview
     pagecolor="#ffffff"
     bordercolor="#666666"
     borderopacity="1"
     objecttolerance="10"
     gridtolerance="10"
     guidetolerance="10"
     inkscape:pageopacity="0"
     inkscape:pageshadow="2"
     inkscape:window-width="1920"
     inkscape:window-height="1017"
     id="namedview10"
     showgrid="false"
     inkscape:zoom="0.67760417"
     inkscape:cx="960"
     inkscape:cy="540"
     inkscape:window-x="-8"
     inkscape:window-y="-8"
     inkscape:window-maximized="1"
     inkscape:current-layer="svg8" />
  <defs
     id="defs2" />
  <g
     id="Page-1"
     stroke="none"
     stroke-width="1"
     fill="none"
     fill-rule="evenodd"
     transform="matrix(1.3809591,0,0,1.3809591,338.5684,332.16561)">
    <g
       id="Artboard"
       fill="#d9222a">
      <g
         id="Media_Markt-1-Copy"
         transform="translate(20,93)">
        <path
           d="m 751.36718,42.111849 0.25935,-1.634747 c 0.12723,-0.655856 -0.0587,-1.341079 -0.47955,-1.859891 -0.43551,-0.509022 -1.06675,-0.812478 -1.73225,-0.812478 h -11.74409 c -1.08633,-0.01468 -2.03564,0.753745 -2.24116,1.830524 l -0.32786,1.776686 -12.5466,68.585927 c -0.11255,0.66075 0.0881,1.35087 0.52849,1.86479 0.44529,0.50902 1.12058,0.81248 1.79586,0.79779 l 5.79375,-0.0881 h 5.44632 c 1.08633,0 1.9916,-0.75864 2.20691,-1.80115 l 8.60744,-42.567038 c 2.84305,-10.787368 9.98737,-13.998127 16.3096,-14.932967 0.33765,-0.04405 1.61482,-0.02447 1.88395,-0.200672 -4.33063,25.808435 -9.45888,56.364487 -9.54696,56.873507 -0.11255,0.64607 0.0783,1.31661 0.50401,1.83053 0.42573,0.50413 1.06676,0.79779 1.71268,0.79779 h 12.64936 c 0.98357,0 1.86438,-0.63138 2.14819,-1.5858 0.40615,-1.24319 3.43026,-18.780004 5.2457,-29.312861 4.68295,7.101847 19.63709,29.861041 19.63709,29.861041 0.42083,0.63628 1.13037,1.01315 1.88884,1.01315 l 15.11562,0.0245 c 0.27403,0 0.52359,-0.0636 0.77805,-0.14683 0.32296,0.14683 0.68018,0.24472 1.0325,0.23493 l 12.76191,-0.0881 c 1.10101,-0.005 2.02585,-0.79779 2.20691,-1.85989 0,0 9.24357,-53.398449 9.85035,-56.902875 2.97028,-0.0049 14.65075,-0.01958 14.65075,-0.01958 1.09612,0 2.03564,-0.792901 2.22649,-1.874575 l 1.97202,-11.48238 C 859.98532,40.305797 860,40.18833 860,40.051285 c 0,-0.518811 -0.19084,-1.037623 -0.52359,-1.443863 -0.43062,-0.509022 -1.06186,-0.802689 -1.74204,-0.802689 h -14.43055 c 0.70465,-4.057499 3.27367,-19.029622 3.27367,-19.029622 0.0147,-0.132151 0.0294,-0.259406 0.0294,-0.381768 0,-0.543283 -0.18106,-1.057201 -0.52849,-1.458546 -0.42083,-0.518811 -1.06675,-0.802689 -1.72246,-0.802689 h -12.68362 c -1.09611,0 -2.03564,0.7929 -2.22648,1.869679 0,0 -2.82348,16.734125 -3.34707,19.802946 -1.14505,0.03426 -2.32924,0.05873 -2.32924,0.05873 l -1.97692,0.01468 -2.09926,-0.03916 c -0.80741,-0.01958 -1.52673,0.39645 -1.94756,1.047412 -0.40615,-0.621595 -1.09122,-1.02294 -1.85948,-1.02294 l -11.61197,-0.02447 h -3.40089 c -0.63125,0 -1.22334,0.269195 -1.66375,0.724378 0,0 -11.68047,13.391216 -17.88526,20.111296 1.81544,-10.645429 6.82135,-39.870191 6.82135,-39.870191 0.0147,-0.137044 0.0294,-0.254511 0.0294,-0.391556 0,-0.523706 -0.19084,-1.042518 -0.53827,-1.443862 -0.42572,-0.518812 -1.05696,-0.807585 -1.72246,-0.807585 l -12.63468,-0.02937 c -1.1108,-0.0049 -2.06011,0.783112 -2.24117,1.864785 -0.2936,1.742424 -1.60502,9.519706 -3.36174,19.881256 -0.0196,-0.03426 -0.0343,-0.05873 -0.0587,-0.0881 -0.4453,-0.523706 -1.09123,-0.797795 -1.7763,-0.773323 -5.3827,0.156623 -10.24182,2.36402 -14.47459,5.095123 z m 63.29085,64.210291 C 809.45638,97.962419 794.25757,73.558691 792.92168,71.405133 794.6784,69.329886 813.18024,46.781154 816.93834,42.36636 l -1.66374,8.741488 c -0.12723,0.665645 0.0587,1.350868 0.48933,1.859891 0.43062,0.513917 1.06187,0.822268 1.74204,0.822268 h 5.76439 c -0.65571,3.984082 -6.68434,40.726719 -8.61233,52.532133 z M 380.82652,77.131639 c -2.63752,9.211356 -11.35751,17.977316 -19.86708,20.042774 -6.50818,0.861423 -11.28411,0.249617 -14.6116,-1.903941 -3.50365,-2.40807 -5.26037,-6.58793 -6.62073,-10.361551 -0.23488,-1.350869 -0.35722,-2.711526 -0.35722,-4.037922 0,-8.389087 4.48722,-16.474719 12.74234,-22.666198 4.74657,-3.323332 11.19114,-4.576311 16.84787,-3.279282 3.19048,0.734168 7.55536,2.633214 10.28097,7.56682 1.52673,2.677264 2.33903,6.069118 2.33903,9.377766 0,1.830525 -0.25445,3.626788 -0.75358,5.261534 z m -64.33313,-59.203268 -2.7305,14.830184 c -0.12723,0.66075 0.0538,1.350868 0.48444,1.884363 0.43062,0.509023 1.06676,0.812479 1.75672,0.812479 h 13.19742 c 1.08633,0 2.03075,-0.773323 2.22648,-1.859891 l 2.48094,-14.698034 c 0.10766,-0.655856 -0.0685,-1.345974 -0.48934,-1.859891 -0.43061,-0.513917 -1.06675,-0.817373 -1.72246,-0.822268 l -12.97233,-0.107678 c -1.08632,-0.0098 -2.02096,0.763535 -2.23137,1.820736 z m -28.50878,59.203268 v 0 c 0.49423,-1.634746 0.73401,-3.431009 0.73401,-5.261534 0,-3.308648 -0.80251,-6.700502 -2.32435,-9.377766 -2.74029,-4.933606 -7.10028,-6.832652 -10.29565,-7.56682 -5.64206,-1.297029 -12.10131,-0.04405 -16.84788,3.279282 -8.24043,6.191479 -12.74233,14.277111 -12.74233,22.666198 0,1.326396 0.12723,2.687053 0.36211,4.037922 1.36036,3.773621 3.11708,7.953481 6.62562,10.361551 3.32749,2.153558 8.10832,2.765364 14.60671,1.903941 8.51447,-2.065458 17.22466,-10.831418 19.88176,-20.042774 z M 179.72369,66.549838 v 0 c 5.40229,-0.04894 31.27353,-0.293667 34.99739,-0.327928 -0.26914,-2.505958 -1.59035,-4.855294 -4.3551,-7.625553 -3.05346,-2.613637 -7.2373,-3.842144 -13.17785,-3.876405 -6.43478,0.900579 -13.951,5.134278 -17.46444,11.829886 z M 710.1014,77.131639 c -2.63264,9.211356 -11.34773,17.977316 -19.86709,20.042774 -6.51307,0.861423 -11.289,0.249617 -14.59692,-1.903941 -3.51344,-2.40807 -5.27505,-6.58793 -6.63541,-10.361551 -0.2251,-1.350869 -0.36211,-2.711526 -0.36211,-4.037922 0,-8.389087 4.49211,-16.474719 12.75702,-22.666198 4.73189,-3.323332 11.19113,-4.576311 16.84298,-3.279282 3.18558,0.734168 7.56025,2.633214 10.28097,7.56682 1.51205,2.677264 2.32924,6.069118 2.32924,9.377766 0,1.830525 -0.24956,3.626788 -0.74868,5.261534 z M 0,111.41237 v -1.40471 c 0.06850718,-0.14683 0.15658784,-0.28877 0.26913535,-0.41113 L 94.305028,1.1942458 C 94.632883,0.83205652 95.09286,0.61670071 95.591984,0.61670071 h 15.184126 c 0.49912,0 0.97867,0.23003916 1.30653,0.62159519 0.24467,0.3034559 0.38658,0.6999064 0.38658,1.0669901 0,0.1076779 -0.0245,0.2349336 -0.044,0.347506 0,0 -11.77835,58.180328 -13.965681,68.703396 7.413451,-8.379298 62.150691,-70.1619422 62.150691,-70.1619422 0.31318,-0.37687263 0.78294,-0.57754509 1.2576,-0.57754509 h 14.28864 c 0.52359,0 1.01782,0.23493361 1.34078,0.64606739 0.31807,0.4111338 0.43551,0.9544178 0.30339,1.4536517 L 162.80242,63.622957 c 0.12234,-0.225145 0.22999,-0.445395 0.34254,-0.660751 7.13942,-13.885555 20.70385,-23.645088 35.38396,-25.441351 0.044,-0.0098 0.10276,-0.0098 0.16148,-0.0098 13.27571,-0.675434 23.52243,4.351166 29.6685,14.502255 0.0342,0.05384 0.0587,0.102784 0.0979,0.161517 2.20691,4.434372 3.85108,10.390918 4.14468,16.523664 2.50541,-7.312309 6.95837,-14.076439 13.14849,-19.783368 10.49138,-9.759533 23.28265,-13.601676 36.03477,-10.802051 0.13212,0.02937 0.28871,0.08321 0.42083,0.137045 l 1.1842,0.509022 c 2.82837,1.218719 5.9063,2.569587 8.50957,4.904239 1.37993,-6.49004 5.42185,-25.735018 5.42185,-25.735018 0.2251,-1.042518 1.14995,-1.796263 2.22159,-1.796263 h 11.72452 c 0.68018,0 1.31632,0.303455 1.74693,0.807584 0.43062,0.518812 0.61167,1.204035 0.49423,1.864785 L 296.4061,111.04039 c -0.20552,1.07678 -1.14015,1.8501 -2.23627,1.8501 l -11.63154,-0.0343 c -0.68018,0 -1.3261,-0.28388 -1.75672,-0.79779 -0.34253,-0.41114 -0.52359,-0.92506 -0.52359,-1.44876 0,-0.14194 0.0147,-0.28388 0.044,-0.41603 0,0 0.29361,-1.54665 0.47955,-2.56959 -9.48335,5.85377 -19.08414,8.13458 -28.07815,6.50473 -10.28587,-2.04588 -19.86219,-12.10398 -21.79018,-22.881556 -0.52849,-2.887726 -0.76337,-5.780346 -0.73401,-8.628916 -0.40615,0.367084 -0.94442,0.587334 -1.52183,0.587334 0,0 -51.4489,0.01958 -54.00813,0.02447 -0.0587,0.22025 -0.093,0.420923 -0.093,0.655857 0,0.827162 0.28381,1.899046 0.65571,3.122659 0,0 0.15659,0.557967 0.22999,0.797795 2.56412,6.299157 8.71509,10.248979 15.69303,10.082567 6.9388,-0.156622 13.36869,-3.479954 19.07925,-9.867211 0.42083,-0.484551 1.04229,-0.75864 1.67843,-0.75864 h 12.04258 c 0.77805,0 1.50716,0.401345 1.91331,1.062096 0.42083,0.655856 0.47466,1.483018 0.1468,2.182925 -6.83604,14.375 -22.16696,24.03175 -38.25637,24.03175 -11.19113,-0.4356 -20.5864,-5.88313 -25.81742,-14.991701 -2.60327,-4.855295 -3.8364,-10.880363 -3.763,-17.04737 l -7.06602,28.696161 c -0.19084,0.77333 -0.88081,1.30193 -1.65885,1.30193 H 134.2006 c -0.5138,0 -1.00803,-0.23983 -1.32121,-0.65097 -0.24956,-0.30835 -0.37679,-0.68032 -0.37679,-1.04741 0,-0.14194 0.0196,-0.2643 0.044,-0.39645 5.95034,-24.775707 14.29354,-59.991276 17.32253,-73.925775 -7.28622,8.531026 -64.382065,75.320695 -64.382065,75.320695 -0.313176,0.37687 -0.778046,0.58733 -1.272276,0.58733 l -12.869564,0.11258 c -0.518697,0 -0.998247,-0.22515 -1.326103,-0.63628 -0.244668,-0.29856 -0.381683,-0.67544 -0.381683,-1.0621 0,-0.11747 0.0049,-0.23983 0.03425,-0.35729 5.446321,-25.069379 13.065298,-60.769498 15.746865,-74.655053 -7.021986,8.389088 -63.648065,76.108703 -63.648065,76.108703 -0.327855,0.38666 -0.831873,0.6118 -1.355463,0.60202 -4.394246,-0.15173 -7.707058,-0.13215 -11.5532468,-0.11258 H 1.5316248 C 0.87591324,112.40105 0.27402872,112.01439 0,111.41237 Z M 731.03523,38.617211 c -0.42083,-0.509022 -1.05697,-0.812478 -1.73225,-0.812478 h -11.7343 c -1.06676,0 -2.00139,0.748851 -2.2167,1.796263 l -0.90527,4.439266 c -2.60817,-2.334652 -5.20655,-3.832354 -8.9304,-5.281112 l -1.16952,-0.509022 c -0.14191,-0.05384 -0.28381,-0.107678 -0.43062,-0.137045 -12.74233,-2.799625 -25.54339,1.042518 -36.02988,10.802051 -5.23101,4.816139 -9.19953,10.400707 -11.83217,16.415986 L 671.47313,2.7164198 c 0.12723,-0.4992339 0.0147,-1.0425179 -0.30828,-1.4536517 -0.31807,-0.41113378 -0.80741,-0.64606739 -1.331,-0.64606739 h -14.28374 c -0.49913,0 -0.94932,0.20067246 -1.27228,0.57754509 0,0 -54.73234,61.7826442 -62.1458,70.1619422 2.18244,-10.523068 14.3914,-68.703396 14.3914,-68.703396 0,-0.1125724 0.0294,-0.2398281 0.0294,-0.347506 0,-0.3768727 -0.11744,-0.7635342 -0.37679,-1.0669901 -0.32296,-0.39155603 -0.8074,-0.62159519 -1.31142,-0.62159519 H 589.0835 c -0.49912,0 -0.96399,0.21535581 -1.28206,0.57754509 L 508.97899,92.235912 c -1.32121,-13.25417 -7.62876,-27.687904 -7.62876,-27.687904 -10.56479,-21.648153 -34.06764,-28.6619 -47.39718,-16.24468 l -0.093,0.01958 -2.08947,1.51728 c 9.6693,-15.432202 34.19977,-14.746979 49.99556,3.426115 0,0 7.0171,8.438032 11.99855,20.992296 1.3261,-4.434372 2.1384,-9.025366 2.38307,-13.719144 -8.22086,-11.129979 -17.4889,-17.66407 -17.4889,-17.66407 -19.95027,-13.459738 -43.83481,-7.772387 -49.17348,9.642067 l -0.0685,0.07342 -1.0325,2.354231 c 0.65082,-18.212249 22.23058,-29.875724 44.98475,-22.039709 0,0 10.71159,3.930244 21.52594,12.647259 -0.1468,-0.695012 -0.2936,-1.390024 -0.48445,-2.085036 -1.16951,-4.600783 -2.86262,-8.966632 -5.04995,-13.029026 -12.61511,-5.462206 -23.79157,-6.480252 -23.79157,-6.480252 -24.01666,-1.669007 -41.84321,15.172796 -37.76214,32.934755 l -0.0294,0.093 0.26914,2.564692 c -8.52915,-16.102741 4.32084,-36.977571 27.94114,-41.588143 0,0 10.96604,-1.903941 24.45217,0.107678 -3.42046,-3.612104 -7.32537,-6.778814 -11.65601,-9.4511833 -13.52038,1.5858013 -23.60561,6.2648963 -23.60561,6.2648963 -21.61891,10.552434 -28.64579,34.070267 -16.23131,47.412538 l 0.0147,0.07831 1.52673,2.104614 c -15.43858,-9.681223 -14.73883,-34.212207 3.41557,-50.001703 0,0 8.48511,-7.0773744 21.10511,-12.0843969 C 469.80267,0.83205652 464.40528,0.0391556 458.95896,0 448.40886,8.0317927 442.2481,16.758597 442.2481,16.758597 c -13.45187,19.964462 -7.77556,43.834695 9.63505,49.184329 l 0.0636,0.05873 2.36839,1.052307 C 436.11182,66.39811 424.45092,44.813585 432.2852,22.049498 c 0,0 3.60642,-9.813373 11.56304,-20.1308736 -4.55573,1.1795625 -8.86679,2.902409 -12.90871,5.0706504 -5.13804,12.2605972 -6.09714,22.9304992 -6.09714,22.9304992 -1.67843,24.026855 15.17434,41.857337 32.93238,37.78026 l 0.0783,0.02447 2.5837,-0.288772 c -16.10408,8.550604 -36.99388,-4.312011 -41.57896,-27.94731 0,0 -1.83991,-10.557329 0,-23.713611 -3.83641,3.636576 -7.19326,7.811542 -9.97269,12.471059 1.72246,12.965398 6.1216,22.489998 6.1216,22.489998 10.555,21.638364 34.05786,28.657005 47.39229,16.234891 l 0.0979,-0.01958 2.08458,-1.512385 c -9.65952,15.432201 -34.19977,14.746978 -49.98089,-3.426115 0,0 -8.09363,-10.116828 -12.3215,-21.892875 0.005,-0.553073 -0.16148,-1.081674 -0.50402,-1.502597 -0.43551,-0.509022 -1.07165,-0.812478 -1.75672,-0.812478 H 388.2987 c -1.07654,0 -2.00139,0.748851 -2.22648,1.796263 0,0 -0.90038,1.365551 -1.31632,4.062393 -2.60327,-2.334652 -5.6861,-3.68552 -8.50468,-4.904239 l -1.18909,-0.509022 c -0.13701,-0.05384 -0.2887,-0.107678 -0.42572,-0.137045 -12.73744,-2.799625 -25.5336,1.042518 -36.02499,10.802051 -6.19501,5.706929 -10.64797,12.471059 -13.17295,19.783368 0,0 -0.0783,0.185989 -0.21531,0.479656 l 4.98634,-28.730422 c 0.10766,-0.650962 -0.0734,-1.331291 -0.50401,-1.840314 -0.44041,-0.509022 -1.07654,-0.807584 -1.74204,-0.802689 l -12.50746,0.01468 c -1.09611,0.0098 -2.03074,0.788006 -2.23137,1.874574 l -12.92339,70.499657 c -0.11255,0.66075 0.0685,1.34108 0.49912,1.86479 0.42572,0.50902 1.06675,0.79779 1.73715,0.79779 l 13.18274,0.0343 c 1.11568,0 2.0601,-0.79779 2.24116,-1.88926 l 4.98145,-28.68147 c 0.0538,0.181094 0.0979,0.298561 0.0979,0.298561 -0.044,2.84857 0.19084,5.74119 0.72422,8.628916 1.93777,10.777573 11.49452,20.835673 21.79507,22.881553 8.98422,1.62985 18.5948,-0.65096 28.07815,-6.50473 -0.18594,1.02294 -0.48444,2.56959 -0.48444,2.56959 -0.0245,0.13215 -0.0343,0.27409 -0.0343,0.41603 0,0.5237 0.18105,1.03762 0.51869,1.44876 0.42573,0.51391 1.06676,0.79779 1.75672,0.79779 l 11.63154,0.0343 c 1.09612,0 2.04054,-0.77332 2.23138,-1.8501 L 399.4996,55.552082 c 7.66302,9.103677 17.68954,16.876064 17.68954,16.876064 19.94537,13.469527 43.81523,7.782176 49.1539,-9.627384 l 0.0783,-0.07342 1.0374,-2.36402 c -0.65082,18.212249 -22.23548,29.880618 -44.99454,22.034815 0,0 -9.81121,-3.60721 -20.1509,-11.565586 0.0881,0.376873 0.16148,0.768429 0.25935,1.150196 1.22824,4.767194 3.00453,9.284772 5.30441,13.48421 12.02791,4.953184 22.40185,5.888023 22.40185,5.888023 24.00198,1.678797 41.83342,-15.172795 37.75235,-32.934754 l 0.0343,-0.093 -0.28382,-2.574481 c 8.53893,16.102741 -4.31595,37.011832 -27.94114,41.588143 0,0 -10.32501,1.806052 -23.26798,0.05873 3.09751,3.264602 6.59137,6.191482 10.44735,8.697442 13.41272,-1.62007 23.35116,-6.245322 23.35116,-6.245322 21.62869,-10.54754 28.66047,-34.070267 16.24109,-47.397855 l -0.0245,-0.102783 -1.51695,-2.080142 c 15.43859,9.671434 14.74862,34.192629 -3.41068,49.996812 0,0 -8.66126,7.19484 -21.46232,12.21165 3.53302,1.18935 7.159,2.03609 10.83392,2.52064 h 5.23591 c 10.75563,-8.1101 17.02893,-17.022897 17.02893,-17.022897 13.46655,-19.959567 7.79024,-43.844484 -9.62526,-49.179434 l -0.0734,-0.07342 -2.35371,-1.042518 c 18.20823,0.660751 29.86913,22.245276 22.03484,45.009363 0,0 -3.91469,10.650326 -12.59064,21.452376 0.69975,-0.15662 1.37015,-0.29856 2.06011,-0.47965 4.39914,-1.11594 8.53893,-2.74579 12.39001,-4.73294 5.38271,-12.524898 6.37117,-23.59125 6.37117,-23.59125 1.68821,-23.997489 -15.16945,-41.847548 -32.93727,-37.765577 l -0.0734,-0.01958 -2.56902,0.27409 c 16.0894,-8.535921 36.98898,4.321799 41.58386,27.957099 0,0 2.6522,10.850996 0.66549,23.703822 -0.38168,1.854996 -1.15972,4.546946 -2.6571,7.415096 -0.45508,0.7978 -1.02271,1.74242 -1.70778,2.83878 0.0147,-0.0147 0.0196,-0.0294 0.0196,-0.0294 -0.005,0.0294 -0.0342,0.0538 -0.0538,0.0881 -0.0147,0.0343 -0.0147,0.0392 -0.0147,0.0636 -0.26914,0.46008 -0.32786,1.03273 -0.0979,1.54665 0.26913,0.60202 0.87591,0.98868 1.5463,0.97399 h 7.32048 c 3.84619,-0.0196 7.15411,-0.0391 11.55325,0.11258 0.52359,0.01 1.02271,-0.21536 1.36036,-0.60202 0,0 56.62608,-67.719617 63.64317,-76.108705 -2.68646,13.885555 -10.30054,49.585674 -15.75176,74.655055 -0.0196,0.11746 -0.0294,0.23982 -0.0294,0.35729 0,0.38666 0.12723,0.76354 0.367,1.0621 0.32297,0.41113 0.8123,0.63628 1.34079,0.63628 l 12.87445,-0.11258 c 0.48934,0 0.95421,-0.21046 1.27228,-0.58733 0,0 57.08116,-66.789671 64.38696,-75.320697 -3.04367,13.934499 -11.37708,49.150068 -17.31763,73.925777 -0.0391,0.13215 -0.0587,0.25451 -0.0587,0.39645 0,0.36709 0.12723,0.73906 0.36701,1.04741 0.32785,0.41114 0.8074,0.65097 1.33589,0.65097 h 15.22817 c 0.77804,0 1.46801,-0.5286 1.65395,-1.30193 l 6.59137,-26.743277 0.91507,-3.758938 c 0.0294,1.071885 0.044,1.923519 0.044,1.923519 -0.0294,2.84857 0.20553,5.74119 0.7389,8.628916 1.9231,10.77758 11.49942,20.83568 21.78039,22.88156 8.98423,1.62985 18.6046,-0.65096 28.08795,-6.50473 -0.19084,1.02294 -0.48445,2.56959 -0.48445,2.56959 -0.0245,0.13215 -0.0391,0.27409 -0.0391,0.41603 0,0.5237 0.17616,1.03762 0.50891,1.44876 0.44529,0.51391 1.08633,0.79779 1.75182,0.79779 l 11.64133,0.0343 c 1.1059,0 2.04054,-0.77332 2.23627,-1.8501 l 10.51096,-55.865258 2.52009,-15.055328 c 0.01,-0.553073 -0.16148,-1.081674 -0.52849,-1.502597 z"
           id="Fill-2" />
      </g>
    </g>
  </g>
</svg>
