<?xml version="1.0" encoding="UTF-8" standalone="no"?>
<svg
   xmlns:dc="http://purl.org/dc/elements/1.1/"
   xmlns:cc="http://creativecommons.org/ns#"
   xmlns:rdf="http://www.w3.org/1999/02/22-rdf-syntax-ns#"
   xmlns:svg="http://www.w3.org/2000/svg"
   xmlns="http://www.w3.org/2000/svg"
   xmlns:sodipodi="http://sodipodi.sourceforge.net/DTD/sodipodi-0.dtd"
   xmlns:inkscape="http://www.inkscape.org/namespaces/inkscape"
   id="Layer_1"
   data-name="Layer 1"
   width="100%"
   height="100%"
   viewBox="0 0 1920 1080"
   version="1.1"
   sodipodi:docname="Mekster_1.svg"
   inkscape:version="1.0.2 (e86c870879, 2021-01-15)">
  <metadata
     id="metadata27">
    <rdf:RDF>
      <cc:Work
         rdf:about="">
        <dc:format>image/svg+xml</dc:format>
        <dc:type
           rdf:resource="http://purl.org/dc/dcmitype/StillImage" />
      </cc:Work>
    </rdf:RDF>
  </metadata>
  <sodipodi:namedview
     pagecolor="#ffffff"
     bordercolor="#666666"
     borderopacity="1"
     objecttolerance="10"
     gridtolerance="10"
     guidetolerance="10"
     inkscape:pageopacity="0"
     inkscape:pageshadow="2"
     inkscape:window-width="1920"
     inkscape:window-height="1017"
     id="namedview25"
     showgrid="false"
     inkscape:zoom="0.67760417"
     inkscape:cx="960"
     inkscape:cy="540"
     inkscape:window-x="-8"
     inkscape:window-y="-8"
     inkscape:window-maximized="1"
     inkscape:current-layer="Layer_1"
     inkscape:document-rotation="0" />
  <defs
     id="defs4">
    <style
       id="style2">.cls-1{fill:#00bbe7;}.cls-2{fill:#ff501a;}</style>
  </defs>
  <title
     id="title6">mekster_logotyp</title>
  <path
     class="cls-1"
     d="m 777.47314,633.91041 h -27.90842 l -2.70453,-2.70452 v -77.39554 c 0,-13.63772 -4.20065,-29.17437 -26.46985,-29.17437 -18.24117,0 -26.8151,15.53665 -26.8151,34.52589 v 71.92893 l -2.70453,2.70453 h -28.59894 l -2.70453,-2.70453 v -77.39553 c 0,-13.63773 -4.54591,-29.05929 -24.16812,-29.05929 -23.01726,0 -28.77158,15.42156 -28.77158,34.52589 v 71.92893 l -2.70452,2.70453 h -28.48386 l -2.70453,-2.70453 V 501.96398 l 2.70453,-2.70453 h 26.98773 l 2.07156,2.76207 3.27996,8.17113 h 2.70453 a 47.415552,47.415552 0 0 1 35.90692,-13.63773 42.927187,42.927187 0 0 1 38.20865,19.10433 h 2.81961 c 0,0 10.9332,-19.10433 40.97072,-19.10433 32.74205,0 51.78883,19.10433 52.07655,52.88215 v 81.82636 z"
     id="path8"
     style="stroke-width:5.75431" />
  <path
     class="cls-1"
     d="m 926.39481,575.10132 -2.47436,2.70453 h -85.6242 l -3.51013,2.87715 a 28.771573,28.771573 0 0 0 29.86489,27.79334 c 8.11358,0 18.41381,-3.10733 21.11834,-8.51638 l 2.70452,-2.70453 h 28.77158 l 2.70452,2.70453 c -3.51013,16.11208 -17.78083,36.59744 -55.29896,36.59744 -46.03452,0 -67.38302,-32.33925 -67.38302,-70.08755 0,-37.74831 21.3485,-70.03001 64.67849,-70.03001 43.32999,0 64.44833,32.74205 64.44833,70.08755 v 8.63147 z m -37.28796,-23.01726 c 0,-2.99224 -0.92069,-27.67825 -27.16037,-27.67825 -26.23967,0 -27.16036,24.68601 -27.16036,27.67825 l 2.99224,2.99224 h 48.2787 z"
     id="path10"
     style="stroke-width:5.75431" />
  <path
     class="cls-1"
     d="m 1441.0032,575.10132 -2.4744,2.70453 h -85.5667 l -3.5101,2.87715 a 28.771573,28.771573 0 0 0 29.8074,27.79334 c 8.056,0 18.4138,-3.10733 21.1183,-8.51638 l 2.7045,-2.70453 h 28.7716 l 2.7045,2.70453 c -3.3375,16.05453 -17.9534,36.59744 -55.414,36.59744 -46.0345,0 -67.3255,-32.33925 -67.3255,-70.03001 0,-37.69076 21.6938,-70.08755 64.9662,-70.08755 43.2725,0 64.4483,32.74205 64.4483,70.03001 v 8.57392 z m -37.288,-23.01726 c 0,-2.99224 -0.9207,-27.67825 -27.1604,-27.67825 -26.2396,0 -27.1603,24.62846 -27.1603,27.67825 l 2.9922,2.99224 h 48.2212 z"
     id="path12"
     style="stroke-width:5.75431" />
  <path
     class="cls-1"
     d="m 1061.3335,633.85287 h -11.1058 l -5.4091,-2.81961 -39.8199,-50.29271 h -2.8196 l -24.62844,24.51338 v 25.89441 l -2.70452,2.70453 h -27.16037 l -2.70453,-2.70453 V 446.14713 l 2.47436,-2.70453 h 27.10282 l 2.70453,2.70453 v 111.00073 h 2.70453 l 55.52912,-54.78108 5.4666,-3.04979 h 17.8959 l 2.4168,2.41682 v 19.85238 l -34.9862,35.04378 v 2.70453 l 37.7483,47.41555 v 24.34075 z"
     id="path14"
     style="stroke-width:5.75431" />
  <path
     class="cls-1"
     d="m 1137.4055,636.5574 c -38.8416,0 -58.4638,-19.56467 -58.4638,-42.29421 l 2.647,-2.70453 h 28.3112 l 2.7045,2.70453 c 2.3593,10.53039 6.7326,14.04052 28.4263,14.04052 15.7669,0 21.924,-6.2722 21.4636,-14.84613 -0.5754,-10.81811 -10.0125,-12.60195 -28.7715,-15.30648 -17.263,-2.47435 -52.5945,-11.50862 -52.5945,-41.0858 0,-23.01726 16.2847,-40.56792 56.1046,-40.56792 29.1168,0 55.9319,11.50863 55.9319,36.71253 l -2.7045,2.70453 h -29.4621 l -2.8771,-2.64699 c 0,-5.40905 -7.5957,-8.57393 -20.9457,-8.57393 -19.5072,0 -22.0966,6.84764 -22.0966,14.96122 0,12.19915 19.392,12.83212 35.4466,15.53665 16.0545,2.70453 45.5166,7.53815 45.5166,38.32373 0.2302,22.55692 -15.8244,43.04228 -58.6365,43.04228 z"
     id="path16"
     style="stroke-width:5.75431" />
  <path
     class="cls-1"
     d="m 1265.2664,597.37052 c 0,5.75431 5.7543,8.17112 11.5086,8.22867 h 22.2692 l 2.8196,2.58944 v 23.01726 l -2.7045,2.70452 h -22.4994 c -23.5927,0 -45.1713,-9.66725 -45.1713,-40.2802 v -63.29746 l -2.7046,-2.70453 h -19.7373 l -2.7045,-2.70453 v -23.01725 l 2.647,-2.64699 h 19.7373 l 2.7045,-2.70453 v -25.31898 l 2.7046,-2.70453 h 28.3112 l 2.7045,2.70453 v 25.31898 l 2.7045,2.70453 h 30.9582 l 2.7621,2.64699 v 23.01725 l -2.7045,2.70453 h -30.9582 l -2.7045,2.70453 v 67.03777 z"
     id="path18"
     style="stroke-width:5.75431" />
  <path
     class="cls-1"
     d="m 1541.7037,527.45559 h -17.263 c -25.7793,0 -33.5476,14.90368 -33.5476,39.12934 v 64.62096 l -2.7046,2.70452 h -28.4263 l -2.4168,-2.70452 V 501.96398 l 2.7045,-2.70453 h 26.3548 l 2.7045,2.70453 2.8772,8.45884 h 2.7045 c 0,0 9.0343,-11.16337 32.7421,-11.16337 h 14.3282 l 2.7045,2.70453 v 23.01726 z"
     id="path20"
     style="stroke-width:5.75431" />
  <polygon
     class="cls-2"
     points="13.53,17.52 27.07,9.73 27.07,25.31 13.53,33.11 0,25.31 0,9.73 "
     id="polygon22"
     transform="matrix(5.7543146,0,0,5.7543146,375.53427,443.4426)" />
</svg>
