<?xml version="1.0" encoding="UTF-8" standalone="no"?>
<svg
   xmlns:dc="http://purl.org/dc/elements/1.1/"
   xmlns:cc="http://creativecommons.org/ns#"
   xmlns:rdf="http://www.w3.org/1999/02/22-rdf-syntax-ns#"
   xmlns:svg="http://www.w3.org/2000/svg"
   xmlns="http://www.w3.org/2000/svg"
   xmlns:sodipodi="http://sodipodi.sourceforge.net/DTD/sodipodi-0.dtd"
   xmlns:inkscape="http://www.inkscape.org/namespaces/inkscape"
   id="Layer_1"
   data-name="Layer 1"
   width="100%"
   height="100%"
   viewBox="0 0 1920 1080"
   version="1.1"
   sodipodi:docname="Mekster_2.svg"
   inkscape:version="1.0.2 (e86c870879, 2021-01-15)">
  <metadata
     id="metadata75">
    <rdf:RDF>
      <cc:Work
         rdf:about="">
        <dc:format>image/svg+xml</dc:format>
        <dc:type
           rdf:resource="http://purl.org/dc/dcmitype/StillImage" />
      </cc:Work>
    </rdf:RDF>
  </metadata>
  <sodipodi:namedview
     pagecolor="#ffffff"
     bordercolor="#666666"
     borderopacity="1"
     objecttolerance="10"
     gridtolerance="10"
     guidetolerance="10"
     inkscape:pageopacity="0"
     inkscape:pageshadow="2"
     inkscape:window-width="1920"
     inkscape:window-height="1017"
     id="namedview73"
     showgrid="false"
     inkscape:zoom="0.67760417"
     inkscape:cx="960"
     inkscape:cy="540"
     inkscape:window-x="-8"
     inkscape:window-y="-8"
     inkscape:window-maximized="1"
     inkscape:current-layer="Layer_1" />
  <defs
     id="defs4">
    <style
       id="style2">.cls-1{fill:#00bbe7;}.cls-2{fill:#ff501a;}</style>
  </defs>
  <title
     id="title6">mekster_logotyp_tagline</title>
  <path
     class="cls-1"
     d="m 784.55383,594.23302 h -27.11964 l -2.62242,-2.62242 v -74.45108 c 0,-13.1121 -4.02957,-28.07907 -25.58456,-28.07907 -17.58939,0 -25.58457,14.96697 -25.58457,33.3239 v 69.20625 l -2.62242,2.62242 h -27.24756 l -2.62242,-2.62242 v -74.38712 c 0,-13.11209 -4.34938,-27.95114 -23.21799,-27.95114 -22.00273,0 -27.75926,14.77508 -27.75926,33.19597 v 69.14229 l -2.62242,2.62242 h -27.31152 l -2.68638,-2.62242 V 467.26961 l 2.62242,-2.62242 h 25.96833 l 1.98281,2.62242 3.19807,7.86725 h 2.68638 a 45.60449,45.60449 0 0 1 34.53916,-13.11209 41.319075,41.319075 0 0 1 36.77782,18.35693 h 2.62241 c 0,0 10.48968,-18.35693 39.40024,-18.35693 31.53297,0 49.8899,18.35693 50.08179,51.16914 v 78.41669 z"
     id="path8"
     style="stroke-width:6.39614" />
  <path
     class="cls-1"
     d="m 927.76344,537.62717 -2.36657,2.55846 h -82.3823 l -3.38996,2.75034 a 27.759255,27.759255 0 0 0 28.71868,26.73587 c 7.80329,0 17.71731,-3.00619 20.33973,-8.18706 l 2.62242,-2.55846 h 27.82321 l 2.62242,2.55846 c -3.26203,15.47866 -17.26958,35.17878 -53.34382,35.17878 -44.06942,0 -64.79292,-31.08525 -64.79292,-67.35138 0,-36.26612 20.59558,-67.28741 62.10654,-67.28741 41.51096,0 61.97861,31.46902 61.97861,67.35138 v 8.25102 z M 891.88109,515.6884 c 0,-2.87826 -0.89546,-26.60795 -26.09626,-26.60795 a 24.944953,24.944953 0 0 0 -26.09626,26.60795 l 2.87827,2.87827 h 46.43599 z"
     id="path10"
     style="stroke-width:6.39614" />
  <path
     class="cls-1"
     d="m 1422.6329,537.62717 -2.3665,2.55846 h -82.3184 l -3.3899,2.75034 a 27.759255,27.759255 0 0 0 28.6547,26.67191 c 7.8033,0 17.7173,-3.00619 20.2757,-8.18706 l 2.6225,-2.55846 h 27.8232 l 2.6224,2.55846 c -3.262,15.47866 -17.2696,35.17877 -53.3438,35.17877 -44.0055,0 -64.729,-31.08524 -64.729,-67.35137 0,-36.26612 20.7235,-67.35137 62.1705,-67.35137 41.447,0 61.9786,31.46902 61.9786,67.35137 v 8.25103 z m -35.5625,-21.93877 c 0,-2.87826 -0.8955,-26.60795 -26.0963,-26.60795 a 24.944953,24.944953 0 0 0 -26.0962,26.60795 l 2.8782,2.87827 h 46.3721 z"
     id="path12"
     style="stroke-width:6.39614" />
  <path
     class="cls-1"
     d="m 1057.4772,594.16906 h -10.6816 l -5.1169,-2.55846 -38.3768,-48.35483 h -2.6864 l -23.66573,23.40988 v 24.88099 l -2.62241,2.62242 H 948.03921 L 945.4168,591.6106 V 413.66994 l 2.62241,-2.62242 h 26.09626 l 2.62242,2.62242 v 106.68765 h 2.62242 l 53.40779,-52.64025 5.2448,-2.94223 h 17.2056 l 2.3027,2.30262 v 19.18842 l -33.6437,33.70767 v 2.55845 l 36.2661,45.60449 v 23.47384 z"
     id="path14"
     style="stroke-width:6.39614" />
  <path
     class="cls-1"
     d="m 1130.6491,596.79148 c -37.3535,0 -56.2221,-18.80466 -56.2221,-40.67946 l 2.5584,-2.55846 h 27.2476 l 2.6224,2.55846 c 2.2387,10.1059 6.3962,13.49586 27.3115,13.49586 15.1589,0 21.1073,-6.07634 20.6596,-14.2634 -0.5757,-10.36175 -9.5942,-12.08871 -27.5034,-14.71112 -16.566,-2.36658 -50.5296,-11.19325 -50.5296,-39.52816 0,-21.93877 15.6706,-39.01647 53.9835,-39.01647 28.0151,0 53.7915,11.25721 53.7915,35.30671 l -2.5584,2.62242 h -28.4629 l -2.5584,-2.62242 c 0,-5.18088 -7.2916,-8.25103 -20.1479,-8.25103 -18.7407,0 -21.2351,6.39615 -21.2351,14.39132 0,11.7689 18.6767,12.34456 34.0914,14.96697 15.4147,2.62242 43.7496,7.22764 43.7496,36.84178 -0.1919,21.93877 -15.6066,41.447 -56.7977,41.447 z"
     id="path16"
     style="stroke-width:6.39614" />
  <path
     class="cls-1"
     d="m 1253.6469,559.05424 a 9.658174,9.658174 0 0 0 10.8734,7.93122 h 21.4271 l 2.6864,2.49449 v 22.13065 l -2.6225,2.62242 h -21.427 c -22.7063,0 -43.4298,-9.33836 -43.4298,-38.88854 v -60.89127 l -2.6225,-2.62242 h -19.1884 l -2.3666,-2.55845 v -22.00273 l 2.5585,-2.55846 h 19.1884 l 2.6224,-2.62242 V 437.7834 l 2.6225,-2.62242 h 27.2475 l 2.6224,2.62242 v 24.30533 l 2.6225,2.62242 h 29.742 l 2.6864,2.55846 v 22.00273 l -2.6224,2.62242 h -29.7421 l -2.6224,2.62241 v 64.60103 z"
     id="path18"
     style="stroke-width:6.39614" />
  <path
     class="cls-1"
     d="m 1519.4705,491.83079 h -16.3741 c -24.7531,0 -31.9807,14.32736 -31.9807,37.60932 v 62.17049 l -2.5585,2.55846 h -27.3115 l -3.0062,-2.55846 V 467.33357 l 2.5585,-2.55846 h 25.5845 l 2.5585,2.55846 2.7503,8.18706 h 2.5585 c 0,0 8.6987,-10.74552 31.469,-10.74552 h 13.7517 l 2.5585,2.55846 v 21.93877 z"
     id="path20"
     style="stroke-width:6.39614" />
  <polygon
     class="cls-2"
     points="27.78,25.67 16.07,32.41 4.36,25.67 4.36,12.18 16.07,18.93 27.78,12.18 "
     id="polygon22"
     transform="matrix(6.3961417,0,0,6.3961417,370.08385,386.93407)" />
  <path
     class="cls-1"
     d="m 611.15443,635.5521 h -17.65335 l -0.57565,0.8315 v 10.74551 l 0.51169,0.5117 h 16.62997 l 0.51169,0.51169 v 3.77372 l -0.51169,0.51169 h -16.62997 l -0.51169,0.51169 v 15.03094 l -0.51169,0.38376 h -4.28542 l -0.57565,-0.70357 v -36.39405 l 0.51169,-0.51169 h 23.02611 l 0.51169,0.51169 v 3.77373 z"
     id="path24"
     style="stroke-width:6.39614" />
  <path
     class="cls-1"
     d="m 633.66885,629.98745 a 17.333544,17.333544 0 0 1 17.84523,19.18843 17.717313,17.717313 0 1 1 -35.37066,0 17.333544,17.333544 0 0 1 17.52543,-19.18843 z m 0,33.77163 c 8.05914,0 12.34455,-5.88445 12.34455,-14.45528 0,-8.57083 -4.28541,-14.45528 -12.34455,-14.45528 -8.05914,0 -12.34455,5.88445 -12.34455,14.45528 0,8.57083 4.28541,14.64717 12.34455,14.64717 z m -2.68638,-37.48139 h -4.28541 l -0.76754,-0.38377 v -4.28541 l 0.51169,-0.51169 h 4.28541 l 0.5117,0.51169 v 4.28541 z m 9.65817,0 h -4.34937 l -0.51169,-0.51169 v -4.15749 l 0.51169,-0.51169 h 4.34937 l 0.5117,0.51169 v 4.28541 z"
     id="path26"
     style="stroke-width:6.39614" />
  <path
     class="cls-1"
     d="m 679.20938,651.60641 v 0.51169 l 7.48348,11.76891 v 3.77372 l -0.57565,0.70357 h -2.11073 l -1.08734,-0.51169 -9.65817,-15.15885 -1.08735,-0.51169 h -8.50687 l -0.51169,0.51169 v 15.03093 l -0.57565,0.63961 H 658.294 l -0.38377,-0.70357 v -36.39405 l 0.51169,-0.51169 h 16.62997 c 7.48348,0 12.34455,3.19807 12.34455,10.68156 a 9.5302511,9.5302511 0 0 1 -8.18706,10.16986 z m -4.28542,-16.05431 h -11.25721 l -0.57565,0.8315 v 10.74551 l 0.51169,0.5117 H 674.86 c 4.79711,0 6.9718,-1.59904 6.9718,-5.88445 0,-4.28542 -2.11073,-6.20426 -6.9718,-6.20426 z"
     id="path28"
     style="stroke-width:6.39614" />
  <path
     class="cls-1"
     d="m 719.37715,668.3643 h -11.25721 l -0.51169,-0.51169 v -36.58593 l 0.51169,-0.51169 h 11.25721 c 13.36793,0 17.65335,7.48349 17.65335,18.7407 0,11.25721 -4.28542,18.86861 -17.65335,18.86861 z m -0.51169,-32.68428 h -5.43672 l -0.51169,0.70358 v 26.79983 l 0.51169,0.51169 h 5.37276 c 10.16986,0 12.79228,-4.7971 12.79228,-13.94359 0,-9.14648 -2.62242,-14.19943 -12.79228,-14.19943 z"
     id="path30"
     style="stroke-width:6.39614" />
  <path
     class="cls-1"
     d="m 748.28771,668.3643 h -4.28542 l -0.51169,-0.51169 v -36.58593 l 0.51169,-0.51169 h 4.28542 l 0.51169,0.51169 v 36.45801 z"
     id="path32"
     style="stroke-width:6.39614" />
  <path
     class="cls-1"
     d="m 760.5683,649.17588 c 0,8.57083 4.28542,14.45528 11.7689,14.45528 a 9.4662897,9.4662897 0 0 0 10.74552,-10.16987 l -0.51169,-0.51169 h -10.74552 l -0.51169,-0.51169 v -3.26203 l 0.51169,-0.51169 h 16.05432 l 0.57565,0.51169 v 18.74069 l -0.51169,0.44773 h -3.19807 l -0.51169,-0.51169 -0.5117,-3.19807 h -0.63961 a 14.135473,14.135473 0 0 1 -10.74552,4.28542 c -10.68156,0 -17.14166,-8.05914 -17.14166,-19.18843 a 17.333544,17.333544 0 0 1 17.84524,-19.76408 14.199435,14.199435 0 0 1 15.54262,11.25721 l -0.51169,0.5117 h -4.41334 l -0.51169,-0.5117 a 9.4023283,9.4023283 0 0 0 -10.16986,-6.39614 c -8.1231,0.19189 -12.40852,6.07634 -12.40852,14.32736 z"
     id="path34"
     style="stroke-width:6.39614" />
  <path
     class="cls-1"
     d="m 822.7388,668.74807 c -9.08252,0 -15.03093,-4.28541 -15.03093,-12.34455 l 0.51169,-0.51169 h 4.28541 l 0.51169,0.51169 c 0,5.37276 3.77373,7.48349 10.16987,7.48349 4.7971,0 8.57083,-1.59904 8.57083,-5.88445 0,-4.28542 -3.19807,-5.88446 -10.68156,-6.9718 -7.48348,-1.08734 -12.34455,-4.28541 -12.34455,-10.68156 0,-4.7971 3.77372,-10.16986 13.36793,-10.16986 8.05914,0 13.94359,3.19807 13.94359,11.25721 l -0.51169,0.51169 h -4.22145 l -0.70358,-0.51169 c 0,-4.28542 -2.17469,-6.39614 -9.08252,-6.39614 a 6.3961417,6.3961417 0 0 0 -7.48348,5.37276 c 0,4.28541 2.68637,5.37275 10.16986,6.39614 7.48349,1.02338 12.79228,3.77372 12.79228,11.25721 0,5.88445 -4.09353,10.68155 -14.26339,10.68155 z"
     id="path36"
     style="stroke-width:6.39614" />
  <path
     class="cls-1"
     d="m 859.13284,629.98745 a 17.333544,17.333544 0 0 1 17.65336,19.18843 17.717313,17.717313 0 1 1 -35.37067,0 17.333544,17.333544 0 0 1 17.71731,-19.18843 z m 0,33.77163 c 8.05914,0 12.34456,-5.88445 12.34456,-14.45528 0,-8.57083 -4.28542,-14.45528 -12.34456,-14.45528 -8.05913,0 -12.34455,5.88445 -12.34455,14.45528 0,8.57083 4.34938,14.64717 12.34455,14.64717 z"
     id="path38"
     style="stroke-width:6.39614" />
  <path
     class="cls-1"
     d="m 921.81503,668.3643 h -4.28541 l -0.51169,-0.51169 v -25.58456 h -0.57566 l -10.68155,25.58456 -0.51169,0.51169 h -4.86107 l -0.51169,-0.51169 -10.68156,-25.58456 h -0.57565 v 25.58456 l -0.44773,0.51169 h -4.34938 l -0.51169,-0.51169 v -36.58593 l 0.51169,-0.51169 h 5.88445 l 0.51169,0.51169 12.34456,29.99791 h 0.51169 l 12.34455,-29.99791 0.51169,-0.51169 h 5.88445 l 0.51169,0.51169 v 36.45801 z"
     id="path40"
     style="stroke-width:6.39614" />
  <path
     class="cls-1"
     d="M 961.47111,668.3643 H 945.4168 l -0.5117,-0.51169 v -36.58593 l 0.5117,-0.51169 h 15.03093 a 9.8500582,9.8500582 0 0 1 11.25721,10.16987 7.8032929,7.8032929 0 0 1 -4.79711,7.48348 v 0.76754 a 8.3789456,8.3789456 0 0 1 5.88445,8.57083 9.9779811,9.9779811 0 0 1 -11.32117,10.61759 z m -2.11073,-32.68428 h -8.63479 l -0.51169,0.70358 v 9.65817 l 0.51169,0.51169 h 9.08252 c 4.28542,0 6.39615,-1.08734 6.39615,-5.37276 0,-4.28541 -2.04677,-5.6286 -6.90784,-5.6286 z m 0.5117,15.54263 h -9.14649 l -0.51169,0.51169 v 11.25721 l 0.51169,0.51169 h 10.16987 a 5.3087976,5.3087976 0 0 0 6.39614,-5.88445 c 0.064,-4.92503 -2.36657,-6.52407 -7.41952,-6.52407 z"
     id="path42"
     style="stroke-width:6.39614" />
  <path
     class="cls-1"
     d="m 1000.5515,651.60641 v 0.51169 l 7.4835,11.76891 v 3.77372 l -0.5117,0.70357 h -2.1107 l -1.0873,-0.51169 -9.65821,-15.03093 -1.08735,-0.51169 h -8.57083 l -0.51169,0.51169 v 15.03093 l -0.38377,0.51169 h -4.41333 l -0.5117,-0.51169 v -36.58593 l 0.5117,-0.51169 h 16.62996 c 7.48352,0 12.34452,3.19807 12.34452,10.68156 a 9.5302511,9.5302511 0 0 1 -8.1231,10.16986 z m -4.28538,-16.05431 h -11.25721 l -0.51169,0.8315 v 10.74551 l 0.51169,0.5117 h 11.25721 c 4.79708,0 6.97178,-1.59904 6.97178,-5.88445 0,-4.28542 -2.1107,-6.20426 -6.97178,-6.20426 z"
     id="path44"
     style="stroke-width:6.39614" />
  <path
     class="cls-1"
     d="m 1028.8864,653.20545 v 14.45528 l -0.5116,0.51169 h -4.2855 l -0.5117,-0.51169 v -14.45528 l -11.2572,-18.229 v -3.70977 l 0.5117,-0.51169 h 2.1747 l 1.0874,0.51169 9.6581,16.05432 h 1.0874 l 9.6582,-16.05432 1.0873,-0.51169 h 2.1107 l 0.5117,0.51169 v 3.77373 z"
     id="path46"
     style="stroke-width:6.39614" />
  <path
     class="cls-1"
     d="m 1067.2633,651.60641 v 0.51169 l 7.4835,11.76891 v 3.77372 l -0.5117,0.51169 h -2.1107 l -1.0874,-0.51169 -9.6582,-15.03093 -0.5116,-0.44773 h -8.5709 l -0.5117,0.51169 v 15.03093 l -0.5117,0.51169 h -4.2854 l -0.5117,-0.51169 v -36.45801 l 0.5117,-0.51169 h 16.63 c 7.4835,0 12.3445,3.19807 12.3445,10.68156 a 9.5302511,9.5302511 0 0 1 -8.6987,10.16986 z m -4.2854,-16.05431 h -11.2572 l -0.5117,0.51169 v 10.74552 l 0.5117,0.51169 h 11.2572 c 4.7971,0 6.9718,-1.59904 6.9718,-5.88445 0,-4.28542 -1.9189,-5.88445 -6.716,-5.88445 z"
     id="path48"
     style="stroke-width:6.39614" />
  <path
     class="cls-1"
     d="m 1107.6869,668.3643 h -11.2572 l -0.5117,-0.51169 v -36.58593 l 0.5117,-0.51169 h 11.2572 c 13.3679,0 17.6534,7.48349 17.6534,18.7407 0,11.25721 -4.2215,18.86861 -17.6534,18.86861 z m -0.5117,-32.68428 h -5.3727 l -0.5117,0.51169 v 26.79984 l 0.5117,0.51169 h 5.3727 c 10.1699,0 12.7923,-4.79711 12.7923,-13.94359 0,-9.14648 -2.6224,-14.00755 -12.7923,-14.00755 z"
     id="path50"
     style="stroke-width:6.39614" />
  <path
     class="cls-1"
     d="m 1136.5975,668.3643 h -4.2854 l -0.5117,-0.51169 v -36.58593 l 0.5117,-0.51169 h 4.2854 l 0.5117,0.51169 v 36.45801 z"
     id="path52"
     style="stroke-width:6.39614" />
  <path
     class="cls-1"
     d="m 1148.942,649.17588 c 0,8.57083 4.2854,14.45528 11.7689,14.45528 a 9.4662897,9.4662897 0 0 0 10.7455,-10.16987 l -0.5116,-0.51169 h -10.6816 l -0.5117,-0.51169 v -3.26203 l 0.5117,-0.51169 h 15.7345 l 0.8315,0.51169 v 18.74069 l -0.8315,0.44773 h -3.1981 l -0.5117,-0.51169 -0.5116,-3.19807 h -0.5117 a 14.135473,14.135473 0 0 1 -10.7456,4.28542 c -10.6815,0 -17.1416,-8.05914 -17.1416,-19.18843 a 17.333544,17.333544 0 0 1 17.6533,-19.18842 14.199435,14.199435 0 0 1 15.5427,11.25721 l -0.5117,0.51169 h -4.2854 l -0.5117,-0.51169 a 9.4023283,9.4023283 0 0 0 -10.1699,-6.39614 c -7.8673,-0.38377 -12.1527,5.50068 -12.1527,13.7517 z"
     id="path54"
     style="stroke-width:6.39614" />
  <path
     class="cls-1"
     d="m 1213.7349,629.98745 a 17.333544,17.333544 0 0 1 17.6534,19.18843 17.717313,17.717313 0 1 1 -35.3707,0 17.333544,17.333544 0 0 1 17.7173,-19.18843 z m 0,33.77163 c 8.0592,0 12.3446,-5.88445 12.3446,-14.45528 0,-8.57083 -4.2854,-14.45528 -12.3446,-14.45528 -8.0591,0 -12.1526,6.07634 -12.1526,14.32736 0,8.25102 4.1575,14.77509 12.1526,14.77509 z"
     id="path56"
     style="stroke-width:6.39614" />
  <path
     class="cls-1"
     d="m 1276.4171,668.3643 h -4.4773 l -0.5117,-0.51169 v -25.58456 h -0.5117 l -10.6815,25.58456 -0.5117,0.51169 h -4.7971 l -0.5117,-0.51169 -10.6816,-25.58456 h -0.5116 v 25.58456 l -0.5117,0.51169 h -4.2855 l -0.5116,-0.51169 v -36.58593 l 0.5116,-0.51169 h 5.8845 l 0.5117,0.51169 12.3445,29.99791 h 0.5117 l 12.3446,-29.99791 0.5117,-0.51169 h 5.8844 l 0.5117,0.51169 v 36.45801 z"
     id="path58"
     style="stroke-width:6.39614" />
  <path
     class="cls-1"
     d="m 1311.2121,668.3643 h -11.2572 l -0.5117,-0.51169 v -36.58593 l 0.5117,-0.51169 h 11.2572 c 13.368,0 17.6534,7.48349 17.6534,18.7407 0,11.25721 -4.2215,18.86861 -17.6534,18.86861 z m -0.5117,-32.68428 h -5.3727 l -0.5117,0.51169 v 26.79984 l 0.5117,0.51169 h 5.3727 c 10.1699,0 12.7923,-4.79711 12.7923,-13.94359 0,-9.14648 -2.6224,-14.00755 -12.7923,-14.00755 z"
     id="path60"
     style="stroke-width:6.39614" />
  <path
     class="cls-1"
     d="m 1340.1867,668.3643 h -4.2855 l -0.5116,-0.51169 v -36.58593 l 0.5116,-0.51169 h 4.2855 l 0.5117,0.51169 v 36.45801 z"
     id="path62"
     style="stroke-width:6.39614" />
  <path
     class="cls-1"
     d="m 1379.2671,668.3643 h -4.989 l -1.0873,-0.51169 -18.1011,-28.0151 h -0.5117 v 27.88718 l -0.5117,0.51169 h -4.2854 l -0.5117,-0.51169 v -36.45801 l 0.5117,-0.51169 h 4.7971 l 1.0873,0.51169 18.229,27.88718 h 0.3838 v -27.88718 l 0.5117,-0.51169 h 4.2854 l 0.5117,0.51169 v 36.45801 z"
     id="path64"
     style="stroke-width:6.39614" />
  <path
     class="cls-1"
     d="m 1419.0511,668.3643 h -16.0543 l -0.5117,-0.51169 v -36.58593 l 0.5117,-0.51169 h 15.0309 a 9.8500582,9.8500582 0 0 1 11.2572,10.16987 7.8032929,7.8032929 0 0 1 -4.7971,7.48348 v 0.76754 a 8.3789456,8.3789456 0 0 1 5.8845,8.57083 9.9779811,9.9779811 0 0 1 -11.3212,10.61759 z m -2.1107,-32.68428 h -8.7628 l -0.5116,0.51169 v 9.65818 l 0.5116,0.51169 h 9.0826 c 4.2854,0 6.3961,-1.08735 6.3961,-5.37276 0,-4.28542 -2.0468,-5.43672 -6.9078,-5.43672 z m 0.5117,15.54263 h -9.2745 l -0.5116,0.51169 v 11.25721 l 0.5116,0.51169 h 10.1699 a 5.3087976,5.3087976 0 0 0 6.3962,-5.88445 c 0.064,-4.92503 -2.1108,-6.52407 -7.4196,-6.52407 z"
     id="path66"
     style="stroke-width:6.39614" />
  <path
     class="cls-1"
     d="m 1441.4376,668.3643 h -4.2854 l -0.5117,-0.51169 v -36.58593 l 0.5117,-0.51169 h 4.2854 l 0.5117,0.51169 v 36.45801 z"
     id="path68"
     style="stroke-width:6.39614" />
  <path
     class="cls-1"
     d="m 1474.0579,668.3643 h -23.0261 l -0.5117,-0.51169 v -36.58593 l 0.5117,-0.51169 h 4.2854 l 0.5117,0.51169 v 31.59694 l 0.5117,0.51169 h 17.6533 l 0.5117,0.5117 v 3.77372 z"
     id="path70"
     style="stroke-width:6.39614" />
</svg>
