<?xml version="1.0" encoding="UTF-8" standalone="no"?>
<svg
   xmlns:dc="http://purl.org/dc/elements/1.1/"
   xmlns:cc="http://creativecommons.org/ns#"
   xmlns:rdf="http://www.w3.org/1999/02/22-rdf-syntax-ns#"
   xmlns:svg="http://www.w3.org/2000/svg"
   xmlns="http://www.w3.org/2000/svg"
   xmlns:sodipodi="http://sodipodi.sourceforge.net/DTD/sodipodi-0.dtd"
   xmlns:inkscape="http://www.inkscape.org/namespaces/inkscape"
   width="100%"
   height="100%"
   viewBox="0 0 1920 1080"
   version="1.1"
   id="svg36"
   sodipodi:docname="Netonnet.svg"
   inkscape:version="1.0.2 (e86c870879, 2021-01-15)">
  <metadata
     id="metadata42">
    <rdf:RDF>
      <cc:Work
         rdf:about="">
        <dc:format>image/svg+xml</dc:format>
        <dc:type
           rdf:resource="http://purl.org/dc/dcmitype/StillImage" />
      </cc:Work>
    </rdf:RDF>
  </metadata>
  <defs
     id="defs40" />
  <sodipodi:namedview
     pagecolor="#ffffff"
     bordercolor="#666666"
     borderopacity="1"
     objecttolerance="10"
     gridtolerance="10"
     guidetolerance="10"
     inkscape:pageopacity="0"
     inkscape:pageshadow="2"
     inkscape:window-width="1920"
     inkscape:window-height="1017"
     id="namedview38"
     showgrid="false"
     inkscape:zoom="0.67760417"
     inkscape:cx="960"
     inkscape:cy="540"
     inkscape:window-x="-8"
     inkscape:window-y="-8"
     inkscape:window-maximized="1"
     inkscape:current-layer="svg36" />
  <style
     id="style2">
		tspan { white-space:pre }
		.shp0 { fill: #ff2e17 } 
		.shp1 { fill: #009cd5 } 
		.shp2 { fill: #4f5556 } 
	</style>
  <g
     id="Lager 1"
     transform="matrix(2.8928743,0,0,2.8928743,147.44947,261.19924)">
    <path
       id="&lt;Path&gt;"
       class="shp0"
       d="m 387.85,88.34 -10.92,-18.9 10.92,-18.9 h 21.84 l 10.9,18.9 -10.9,18.9 z" />
    <path
       id="path5"
       class="shp1"
       d="m 387.85,133.85 -10.92,-18.9 10.92,-18.9 h 21.84 l 10.9,18.9 -10.9,18.9 z" />
    <path
       id="path7"
       class="shp2"
       d="m 428.63,111.21 -10.9,-18.9 10.9,-18.9 h 21.81 l 10.93,18.9 -10.93,18.9 z" />
    <path
       id="path9"
       class="shp1"
       d="m 100.39,104.74 h 7.21 V 85.2 c 0,-5.92 4.99,-9.75 8.27,-9.75 4.78,0 7.97,2.68 7.97,9.24 v 20.05 h 7.21 V 82.98 c 0,-10.49 -7.56,-14.23 -13.05,-14.23 -3.54,0 -8.46,1.15 -10.26,3.88 l -0.14,0.55 v -4.52 h -7.21 z" />
    <path
       id="&lt;Compound Path&gt;"
       fill-rule="evenodd"
       class="shp1"
       d="m 232.98,86.86 c 0,9.52 -6.79,18.99 -18.51,18.99 -11.71,0 -18.5,-9.47 -18.5,-18.99 0,-9.52 6.79,-18.99 18.5,-18.99 11.72,0 18.51,9.47 18.51,18.99 z m -7.63,0 c 0,-6.47 -4.57,-11.69 -10.88,-11.69 -6.3,0 -10.88,5.22 -10.88,11.69 0,6.47 4.58,11.69 10.88,11.69 6.31,0 10.88,-5.22 10.88,-11.69 z" />
    <path
       id="path12"
       class="shp1"
       d="m 238.22,104.88 h 7.21 V 84.69 c 0,-5.87 3.6,-9.06 8.25,-9.06 4.78,0 7.97,2.68 7.97,9.24 v 20.01 h 7.2 V 83.12 c 0,-8.92 -5.95,-15.25 -13.02,-15.25 -4.58,0 -8.23,2.17 -10.26,5.5 h -0.14 v -4.53 h -7.21 z" />
    <path
       id="path14"
       class="shp1"
       d="m 172.01,89.4 v -1.43 c 0,-14.09 -10.42,-20.29 -17.42,-20.29 -11.74,0 -18.53,9.48 -18.53,19.04 0,9.52 6.79,18.99 18.53,18.99 6.03,-0.09 11.58,-3.37 15.62,-8.78 l -6.12,-3.65 c -2.5,3.56 -5.83,5.59 -9.71,5.59 -5.06,0 -9.86,-3.97 -10.28,-9.47 -0.21,-1.38 -0.32,-2.49 -0.32,-3.33 0,-0.83 0.11,-1.86 0.32,-3.09 1.2,-5.36 4.95,-8.41 9.52,-8.41 4.57,0 8.39,2.86 9.91,8.41 h -13.42 v 6.42 z" />
    <path
       id="path16"
       class="shp1"
       d="m 347.08,89.4 v -1.43 c 0,-14.09 -10.39,-20.29 -17.39,-20.29 -11.72,0 -18.51,9.48 -18.51,19.04 0,9.52 6.79,18.99 18.51,18.99 6.02,-0.09 11.57,-3.37 15.59,-8.78 l -6.1,-3.65 c -2.49,3.56 -5.82,5.59 -9.71,5.59 -5.05,0 -9.84,-3.97 -10.25,-9.47 -0.22,-1.38 -0.32,-2.49 -0.32,-3.33 0,-0.83 0.1,-1.86 0.32,-3.09 1.18,-5.36 4.92,-8.41 9.49,-8.41 4.58,0 8.39,2.86 9.91,8.41 h -13.4 v 6.42 z" />
    <path
       id="path18"
       class="shp1"
       d="m 191.65,75.96 v -7.3 h -4.78 V 57.98 l -7.21,2.17 v 8.51 h -4.09 v 7.3 h 4.09 v 8.17 7.67 2.18 c 0,3.41 0.94,6.23 2.77,8.22 1.13,1.2 3.21,2.68 6.54,2.68 h 1.94 v -7.86 h -1.99 c -0.67,0 -1.11,-0.13 -1.39,-0.41 -0.36,-0.42 -0.59,-1.39 -0.59,-2.63 l -0.07,-9.85 v -8.17 z" />
    <path
       id="path20"
       class="shp1"
       d="m 366.81,75.96 v -7.3 H 362 V 57.98 l -7.2,2.17 v 8.51 h -4.11 v 7.3 h 4.11 v 8.17 7.67 2.18 c 0,3.41 0.94,6.23 2.77,8.22 1.15,1.2 3.21,2.68 6.54,2.68 h 1.92 v -7.86 h -1.99 c -0.65,0 -1.11,-0.13 -1.34,-0.41 -0.42,-0.42 -0.65,-1.39 -0.65,-2.63 L 362,84.13 v -8.17 z" />
    <path
       id="path22"
       class="shp1"
       d="m 275.19,104.93 h 7.2 V 85.34 c 0,-5.87 4.97,-9.75 8.25,-9.75 4.78,0 7.97,2.72 7.97,9.28 v 20.06 h 7.21 V 83.12 c 0,-10.45 -7.53,-14.23 -13.03,-14.23 -3.56,0 -8.48,1.2 -10.26,3.92 l -0.14,0.56 v -4.53 h -7.2 z" />
    <g
       id="&lt;Group&gt;">
      <path
         id="path24"
         fill-rule="evenodd"
         class="shp2"
         d="m 276.02,139.21 c -0.14,-0.23 -0.14,-0.42 0.09,-0.6 l 1.06,-0.97 c 0.23,-0.19 0.46,-0.14 0.63,0.09 1.26,1.43 3,2.22 5.15,2.22 3.69,0 5.91,-1.85 5.91,-6.33 v -3.01 h -0.05 c -0.96,2.09 -2.76,3.43 -6.14,3.43 -3.47,0 -5.87,-1.81 -6.93,-5 -0.46,-1.47 -0.69,-3.14 -0.69,-5.63 0,-2.5 0.23,-4.21 0.69,-5.69 1.06,-3.18 3.46,-4.99 6.93,-4.99 3.38,0 5.18,1.34 6.14,3.38 h 0.05 v -2.5 c 0,-0.27 0.19,-0.46 0.42,-0.46 h 1.5 c 0.25,0 0.44,0.19 0.44,0.46 v 19.92 c 0,5.82 -3.14,8.68 -8.32,8.68 -3,0 -5.77,-1.29 -6.88,-3 z m 12.31,-11.04 c 0.39,-1.21 0.53,-2.59 0.53,-4.76 0,-2.18 -0.14,-3.61 -0.53,-4.76 -0.86,-2.63 -2.8,-3.65 -5.18,-3.65 -2.56,0 -4.32,1.25 -5.1,3.6 -0.42,1.2 -0.6,2.73 -0.6,4.81 0,2.03 0.18,3.55 0.6,4.76 0.78,2.35 2.54,3.65 5.1,3.65 2.38,0 4.32,-1.11 5.18,-3.65 z" />
      <path
         id="path26"
         class="shp2"
         d="m 295.51,133.94 c -0.25,0 -0.41,-0.18 -0.41,-0.41 v -19.92 c 0,-0.27 0.16,-0.46 0.41,-0.46 h 1.48 c 0.28,0 0.46,0.19 0.46,0.46 v 2.64 h 0.03 c 0.78,-2.04 2.65,-3.52 5.57,-3.52 1.66,0 3.19,0.56 4.2,1.44 0.21,0.13 0.26,0.32 0.09,0.55 l -0.87,1.25 c -0.19,0.18 -0.42,0.18 -0.65,0.05 -0.97,-0.61 -2.03,-1.02 -3.33,-1.02 -3.65,0 -5.04,3.19 -5.04,7.02 v 11.51 c 0,0.23 -0.18,0.41 -0.46,0.41 z" />
      <path
         id="path28"
         fill-rule="evenodd"
         class="shp2"
         d="m 309.77,128.95 c -0.44,-1.38 -0.72,-2.91 -0.72,-5.4 0,-2.5 0.28,-4.02 0.72,-5.41 1.13,-3.46 3.95,-5.41 7.74,-5.41 3.83,0 6.68,1.95 7.81,5.41 0.44,1.39 0.69,2.91 0.69,5.41 0,2.49 -0.25,4.02 -0.69,5.4 -1.13,3.47 -3.98,5.41 -7.81,5.41 -3.79,0 -6.61,-1.94 -7.74,-5.41 z m 13.28,-0.74 c 0.4,-1.15 0.56,-2.4 0.56,-4.66 0,-2.22 -0.16,-3.51 -0.56,-4.67 -0.83,-2.5 -2.81,-3.88 -5.54,-3.88 -2.63,0 -4.67,1.38 -5.48,3.88 -0.39,1.16 -0.58,2.45 -0.58,4.67 0,2.26 0.19,3.51 0.58,4.66 0.81,2.5 2.85,3.88 5.48,3.88 2.73,0 4.71,-1.38 5.54,-3.88 z" />
      <path
         id="path30"
         class="shp2"
         d="m 343.17,133.94 c -0.25,0 -0.43,-0.18 -0.43,-0.41 v -2.45 h -0.05 c -1.04,2.03 -3.24,3.28 -6.05,3.28 -4.62,0 -7.19,-2.87 -7.19,-7.86 v -12.89 c 0,-0.27 0.17,-0.46 0.44,-0.46 h 1.48 c 0.28,0 0.44,0.19 0.44,0.46 v 12.29 c 0,4.16 1.73,6.19 5.34,6.19 3.14,0 5.59,-2.17 5.59,-5.77 v -12.71 c 0,-0.27 0.18,-0.46 0.43,-0.46 h 1.48 c 0.26,0 0.44,0.19 0.44,0.46 v 19.92 c 0,0.23 -0.18,0.41 -0.44,0.41 z" />
      <path
         id="path32"
         fill-rule="evenodd"
         class="shp2"
         d="m 349.85,141.8 c -0.27,0 -0.46,-0.19 -0.46,-0.46 v -27.73 c 0,-0.27 0.19,-0.46 0.46,-0.46 h 1.48 c 0.25,0 0.42,0.19 0.42,0.46 v 2.5 h 0.04 c 1.02,-1.94 2.89,-3.38 6.33,-3.38 3.65,0 5.96,1.67 7.05,4.95 0.53,1.71 0.74,3.55 0.74,5.91 0,2.31 -0.21,4.11 -0.74,5.82 -1.09,3.33 -3.4,4.95 -7.05,4.95 -3.44,0 -5.31,-1.43 -6.33,-3.38 h -0.04 v 10.36 c 0,0.27 -0.17,0.46 -0.42,0.46 z m 13.1,-13.35 c 0.44,-1.3 0.58,-3.06 0.58,-4.86 0,-1.89 -0.14,-3.65 -0.58,-4.94 -0.78,-2.36 -2.57,-3.65 -5.31,-3.65 -2.61,0 -4.53,1.2 -5.32,3.65 -0.39,1.15 -0.57,2.68 -0.57,4.94 0,2.27 0.18,3.75 0.57,4.86 0.79,2.44 2.71,3.64 5.32,3.64 2.74,0 4.53,-1.29 5.31,-3.64 z" />
    </g>
  </g>
</svg>
