<?xml version="1.0" encoding="UTF-8" standalone="no"?>
<svg
   xmlns:dc="http://purl.org/dc/elements/1.1/"
   xmlns:cc="http://creativecommons.org/ns#"
   xmlns:rdf="http://www.w3.org/1999/02/22-rdf-syntax-ns#"
   xmlns:svg="http://www.w3.org/2000/svg"
   xmlns="http://www.w3.org/2000/svg"
   xmlns:sodipodi="http://sodipodi.sourceforge.net/DTD/sodipodi-0.dtd"
   xmlns:inkscape="http://www.inkscape.org/namespaces/inkscape"
   version="1.1"
   id="Layer_1"
   x="0px"
   y="0px"
   width="100%"
   height="100%"
   viewBox="0 0 1920 1080"
   style="enable-background:new 0 0 419.3 397.7;"
   xml:space="preserve"
   sodipodi:docname="Nordiska-galleriet.svg"
   inkscape:version="1.0.2 (e86c870879, 2021-01-15)"><metadata
   id="metadata59"><rdf:RDF><cc:Work
       rdf:about=""><dc:format>image/svg+xml</dc:format><dc:type
         rdf:resource="http://purl.org/dc/dcmitype/StillImage" /></cc:Work></rdf:RDF></metadata><defs
   id="defs57" /><sodipodi:namedview
   pagecolor="#ffffff"
   bordercolor="#666666"
   borderopacity="1"
   objecttolerance="10"
   gridtolerance="10"
   guidetolerance="10"
   inkscape:pageopacity="0"
   inkscape:pageshadow="2"
   inkscape:window-width="1920"
   inkscape:window-height="1017"
   id="namedview55"
   showgrid="false"
   inkscape:zoom="0.67760417"
   inkscape:cx="960"
   inkscape:cy="540"
   inkscape:window-x="-8"
   inkscape:window-y="-8"
   inkscape:window-maximized="1"
   inkscape:current-layer="Layer_1"
   inkscape:document-rotation="0" />
<style
   type="text/css"
   id="style2">
	.st0{fill:#FFE900;}
</style>



<rect
   class="st0"
   width="845.62787"
   height="802.06586"
   id="rect4"
   x="537.1861"
   y="138.96706"
   style="stroke-width:2.01676" /><g
   id="g22"
   transform="matrix(2.016761,0,0,2.016761,537.18607,138.96706)">
	<path
   d="m 93,138.7 -17.8,-24 v 23.5 c 0.1,0.6 -0.5,0.5 -0.5,0.5 h -6.3 c 0,0 -0.3,0.1 -0.3,-0.4 v -34.2 c 0,-0.3 -0.1,-0.3 0.3,-0.3 h 6.8 L 93,127.4 v -23.3 c 0,0 -0.1,-0.3 0.3,-0.3 h 6.2 c 0.6,0 0.5,0.3 0.5,0.3 v 34.3 c 0,0.4 -0.4,0.3 -0.4,0.3 z"
   id="path6" />
	<path
   d="m 128.8,139.5 c -10.1,0 -18.3,-8.1 -18.3,-18.2 0,-10 8.2,-18.1 18.3,-18.1 10.1,0 18.2,8.1 18.2,18.1 0,10 -8.2,18.2 -18.2,18.2 z m -0.1,-29.3 c -6.1,0 -11.1,5 -11.1,11 0,6.1 4.9,11.1 11.1,11.1 6.1,0 11.1,-5 11.1,-11.1 0,-6 -5,-11 -11.1,-11 z"
   id="path8" />
	<path
   d="m 216.3,133.2 c -3.3,3.3 -7.7,5.3 -12.3,5.5 -1,0 -9,0 -13.1,0 -0.3,0 -0.3,-0.6 -0.3,-0.6 0,0 0,-33.8 0,-34 -0.1,-0.4 0.4,-0.3 0.4,-0.3 0,0 8.7,0 12.2,0 8.8,0.4 15.9,6.1 17.6,14.2 1.2,5.7 -0.5,11.3 -4.5,15.2 z m -18.8,-22.4 c 0,1.3 0,19.6 0,20.9 h 6.5 c 2.3,0 6.5,-1.6 8.6,-4.3 2.4,-3.2 2.4,-7.9 0.5,-11.3 -3.2,-5.5 -9.8,-5.3 -15.6,-5.3 z"
   id="path10" />
	<path
   d="m 238.1,138.7 h -6.4 c -0.2,0 -0.3,0 -0.3,-0.2 v -34.4 c 0,-0.2 0.1,-0.3 0.3,-0.3 h 6.4 c 0.3,0 0.3,0.1 0.3,0.3 v 34.4 c 0,0.2 -0.1,0.2 -0.3,0.2 z"
   id="path12" />
	<path
   d="m 175.2,123.9 c 1.2,-1 2.3,-2.2 3.1,-3.6 1.9,-3.2 1.5,-7.8 -0.3,-11 -2.3,-4.1 -6.1,-5.3 -10.3,-5.6 -3.7,-0.3 -11.3,0 -11.3,0 0,0 -0.5,-0.1 -0.5,0.4 0,0.3 0,34.2 0,34.2 0,0 0,0.3 0.4,0.3 0.3,0 6.2,0 6.2,0 0.3,0.1 0.4,-0.3 0.4,-0.3 0,-13.8 0,-11.5 0.1,-12.1 h 5.3 c 0.3,0 0.5,0 0.8,0 l 4.5,12.1 c 0,0.2 0.1,0.2 0.3,0.2 h 6.4 c 0.2,0 0.3,-0.1 0.3,-0.3 z M 162.9,120 v -9.5 c -0.1,-0.2 0.3,-0.2 0.3,-0.2 1.1,-0.1 2.3,0.1 3.4,0 2.5,0.2 4.9,0.8 5.9,3.4 0.6,1.5 0.2,3.3 -0.9,4.5 -1.1,1.3 -2.8,1.7 -4.5,1.8 -1.6,0.1 -3.2,0 -4.2,0 z"
   id="path14" />
	<path
   d="m 259,139.3 c -3.8,-0.2 -7.3,-2.2 -9.3,-5.5 -0.4,-0.7 -1,-1.6 -0.9,-2.5 2,-1.3 3.9,-2.3 5.9,-3.5 0.4,1 0.7,2 1.4,2.8 1.2,1.3 2.7,2.2 4.6,2 2.5,-0.4 4.7,-3.5 3.5,-5.9 -1.7,-3.2 -5.5,-3.4 -8.5,-4.9 -3.7,-1.9 -6.4,-5.6 -6.2,-9.6 0.1,-3.9 3.1,-7.7 6.9,-8.7 4.8,-1.3 10.1,0.6 12.5,5.1 0.1,0.1 -0.1,0.4 -0.1,0.4 0,0 -4.7,3.2 -5.5,3.3 -0.8,-1.3 -1.9,-2.9 -3.5,-2.9 -3.8,-0.1 -4.6,3.5 -2.5,5.5 4,2.6 9.5,2.5 12.4,7.1 2.1,3.3 2.6,7.9 0.5,11.4 -2.4,3.8 -6.3,6.2 -11.2,5.9 z"
   id="path16" />
	<path
   d="m 288,138.7 h -6.4 c -0.2,0 -0.3,0 -0.3,-0.2 v -34.4 c 0,-0.2 0.1,-0.3 0.3,-0.3 h 6.4 c 0.3,0 0.3,0.1 0.3,0.3 v 13.3 l 12.1,-13.3 h 8.6 c 0.1,0 0.2,0.3 0.1,0.4 -1.7,1.7 -9.2,10.9 -14.3,15.8 v 0.4 c 0,0 10.8,11.6 16.6,17.5 0.2,0.3 -0.2,0.4 -0.5,0.4 h -8.5 c 0,0 -13.2,-14 -13.4,-14.2 -0.5,-0.7 -0.7,-0.1 -0.7,-0.1 v 14 c 0,0.4 0,0.4 -0.3,0.4 z"
   id="path18" />
	<path
   d="m 350.7,138.7 h -7 l -2.8,-7 h -13.2 l -2.7,7 h -7.7 c 0,0 -0.2,0.1 -0.1,-0.3 L 330.3,104 c 0,0 0.1,-0.2 0.3,-0.2 h 6.8 c 0.4,0 0.3,-0.1 0.4,0.3 l 13.2,34.2 c 0.1,0 0.4,0.4 -0.3,0.4 z m -16.3,-25.5 -4.4,11.6 h 8.4 z"
   id="path20" />
</g><g
   id="g42"
   transform="matrix(2.016761,0,0,2.016761,537.18607,138.96706)">
	<path
   d="m 259.6,183.7 c 1.2,-1 2.3,-2.2 3.1,-3.6 1.9,-3.2 1.5,-7.8 -0.3,-11 -2.3,-4.1 -6.1,-5.3 -10.3,-5.6 -3.7,-0.3 -11.3,0 -11.3,0 0,0 -0.5,-0.1 -0.5,0.4 0,0.3 0,34.2 0,34.2 0,0 0,0.3 0.4,0.3 0.3,0 6.2,0 6.2,0 0.3,0.1 0.4,-0.3 0.4,-0.3 0,-13.8 0,-11.5 0.1,-12.1 h 5.3 c 0.3,0 0.5,0 0.8,0 l 4.5,12.1 c 0,0.2 0.1,0.2 0.3,0.2 h 6.4 c 0.2,0 0.3,-0.1 0.3,-0.3 z m -12.2,-3.9 v -9.5 c -0.1,-0.2 0.3,-0.2 0.3,-0.2 1.1,-0.1 2.3,0.1 3.4,0 2.5,0.2 4.9,0.8 5.9,3.4 0.6,1.5 0.2,3.3 -0.9,4.5 -1.1,1.3 -2.8,1.7 -4.5,1.8 -1.7,0.1 -3.2,0 -4.2,0 z"
   id="path24" />
	<path
   d="m 68.5,194.5 c -4.8,-4.3 -7.3,-10.4 -6,-17 1,-5 4.6,-9.7 9.4,-12.2 4.2,-2.1 9.5,-2.8 14.5,-2.2 2.3,0.3 4.9,0.9 6.9,1.9 l 0.1,0.2 c 0,0.9 0,4.7 0.1,7 -0.1,0.5 -0.7,-0.2 -1.1,-0.2 -5.5,-2.9 -13.4,-4.2 -18.7,-0.2 -3.7,2.8 -5,7.4 -4.1,11.8 0.6,3.2 3.1,6.2 6.1,7.7 3.1,1.6 7.5,1.9 10.8,0.2 0,-0.4 0,-6.4 0,-6.4 l -0.1,-0.2 h -8.8 c -0.2,0 -0.2,0.1 -0.2,-0.2 V 178 c 0,-0.1 0,-0.1 0.1,-0.1 h 15.7 c 0.2,0 0.3,-0.1 0.3,0.3 0,2 0,17.5 0,18 -7.5,3.7 -18.5,4.3 -25,-1.7 z"
   id="path26" />
	<path
   d="m 134.7,198.5 h -7 l -2.8,-7 h -13.2 l -2.7,7 h -7.7 c 0,0 -0.2,0.1 -0.1,-0.3 l 13.1,-34.4 c 0,0 0.1,-0.2 0.3,-0.2 h 6.8 c 0.4,0 0.3,-0.1 0.4,0.3 l 13.2,34.2 c 0.1,0 0.3,0.4 -0.3,0.4 z m -16.4,-25.6 -4.4,11.6 h 8.4 z"
   id="path28" />
	<path
   d="m 163.8,198.5 c -6.6,0 -13.2,0 -19.8,0 0,0 -0.3,0 -0.3,-0.2 v -34.4 c 0,-0.2 0.1,-0.3 0.3,-0.3 h 6.4 c 0.3,0 0.3,0.1 0.3,0.3 v 0.3 27.4 c 4.4,0 8.7,0 13.1,0 0.2,0 0.3,0.1 0.3,0.3 v 6.4 c -0.1,0.1 -0.1,0.2 -0.3,0.2 z"
   id="path30" />
	<path
   d="m 194.3,198.5 c -6.6,0 -13.2,0 -19.8,0 0,0 -0.3,0 -0.3,-0.2 v -34.4 c 0,-0.2 0.1,-0.3 0.3,-0.3 h 6.4 c 0.3,0 0.3,0.1 0.3,0.3 v 0.3 27.4 c 4.4,0 8.7,0 13.1,0 0.2,0 0.3,0.1 0.3,0.3 v 6.4 c 0,0.1 -0.1,0.2 -0.3,0.2 z"
   id="path32" />
	<path
   d="m 205,163.5 c 7.7,0 22.8,0 23,0 0.2,0.1 0.3,0.2 0.3,0.3 v 6.5 c 0,0.2 -0.1,0.3 -0.3,0.3 h -16.7 v 6.6 c 0,0 15.6,0 16.7,0 0.3,0 0.3,0.1 0.3,0.3 v 6.5 c 0,0.2 -0.1,0.3 -0.3,0.3 -4.5,0 -16.4,0 -16.4,0 v 7.3 c 0,0 10.7,0 16.4,0 0.2,0 0.2,0.1 0.2,0.3 v 6.5 c 0,0.2 -0.1,0.3 -0.3,0.3 -1.2,0 -22.6,0 -23,0 -0.2,0 -0.3,0 -0.3,-0.2 0,-0.6 0,-34.2 0,-34.4 0,-0.2 0.2,-0.6 0.4,-0.6 z"
   id="path34" />
	<path
   d="m 296.1,163.5 c 7.7,0 22.8,0 23,0 0.2,0.1 0.3,0.2 0.3,0.3 v 6.5 c 0,0.2 -0.1,0.3 -0.3,0.3 h -16.7 v 6.6 c 0,0 15.6,0 16.7,0 0.3,0 0.3,0.1 0.3,0.3 v 6.5 c 0,0.2 -0.1,0.3 -0.3,0.3 -4.5,0 -16.4,0 -16.4,0 v 7.3 c 0,0 10.7,0 16.4,0 0.2,0 0.2,0.1 0.2,0.3 v 6.5 c 0,0.2 -0.1,0.3 -0.3,0.3 -1.2,0 -22.6,0 -23,0 -0.2,0 -0.3,0 -0.3,-0.2 0,-0.6 0,-34.2 0,-34.4 0,-0.2 0.2,-0.6 0.4,-0.6 z"
   id="path36" />
	<path
   d="m 282.8,198.5 h -6.4 c -0.2,0 -0.3,0 -0.3,-0.2 v -34.4 c 0,-0.2 0.1,-0.3 0.3,-0.3 h 6.4 c 0.3,0 0.3,0.1 0.3,0.3 v 34.4 c 0,0.1 -0.1,0.2 -0.3,0.2 z"
   id="path38" />
	<path
   d="m 356.8,170.6 c -3.4,0 -6.7,-0.1 -10.2,0 0,9.2 0.1,18.4 0.1,27.7 0,0.2 -0.1,0.3 -0.3,0.3 H 340 c -0.2,0 -0.3,0 -0.3,-0.2 0,-9.4 0,-18.1 0.1,-27.7 -2.1,0 -8,0 -10.3,0 -0.2,0 -0.3,0 -0.3,-0.2 V 164 c 0,-0.2 0.1,-0.3 0.3,-0.3 H 357 c 0.2,0 0.3,0.1 0.3,0.2 v 6.5 c -0.1,0.1 -0.3,0.2 -0.5,0.2 z"
   id="path40" />
</g><g
   id="g52"
   transform="matrix(2.016761,0,0,2.016761,537.18607,138.96706)">
	<path
   d="m 207,273 c 0.7,4.1 -0.6,8 -2.8,11.6 -2,3.4 -4.6,6.5 -7,9.1 -3,0 -8.4,0 -8.4,0 0,0 -0.3,-0.1 0,-0.3 3.9,-2.7 7.6,-6.8 10,-10.8 0.1,-0.1 0.2,-0.5 -0.3,-0.3 -3.4,0.6 -7,-0.1 -9.2,-2.9 -2.2,-2.7 -2.8,-7.2 -0.8,-10.2 2.3,-3.6 6.3,-5.6 10.6,-4.7 3,0.6 6,2.7 7.2,5.7 0.3,1 0.5,1.9 0.7,2.8 z m -6.7,-0.6 c -0.8,-2.1 -3.5,-2.8 -5.3,-1.8 -1.2,0.7 -1.9,1.9 -1.9,3.3 0,1.3 1,2.6 2.3,3.1 2,0.8 4,-0.2 5.6,-1.4 0,-1.2 -0.3,-2.3 -0.7,-3.2 z"
   id="path44" />
	<path
   d="m 178.8,293.5 v -29.1 c 0,0 0,0 -0.1,0 -0.2,0 -0.1,0 -0.3,0 H 173 l -7.3,5.3 2.5,4.2 4.7,-3.1 v 22.8 c 0,0 0,0.2 0.2,0.2 0.2,0 5.5,0 5.5,0 0.2,-0.1 0.2,-0.3 0.2,-0.3 z"
   id="path46" />
	<path
   d="m 225.7,293.5 v -29.1 c 0,0 0,0 0,0 -0.2,0 -0.1,0 -0.3,0 H 220 l -7.3,5.3 2.5,4.2 4.7,-3.1 v 22.8 c 0,0 0,0.2 0.2,0.2 0.2,0 5.5,0 5.5,0 0.1,-0.1 0.1,-0.3 0.1,-0.3 z"
   id="path48" />
	<path
   d="m 240.8,287.9 c 0.2,-3.3 10.6,-8 12.2,-12.1 0.1,-0.3 0.2,-0.6 0.2,-0.9 0.5,-2.2 0.3,-4.5 -0.9,-6.4 -0.8,-1.3 -1.8,-2.3 -3,-3.1 -0.9,-0.6 -1.9,-1 -3,-1.2 0,0 0,0 -0.1,0 -0.1,0 -0.1,0 -0.2,0 -4.3,-0.9 -8.3,1.1 -10.6,4.7 -0.9,1.4 -1.2,3.2 -1.1,4.9 h 5.9 c 0,-0.1 0,-0.2 0,-0.4 0,-1.3 0.7,-2.6 1.9,-3.3 1.6,-0.9 3.9,-0.4 5,1.2 0.1,0.1 0.1,0.2 0.2,0.4 0.3,0.7 0.4,2.6 -0.8,3.7 -0.9,1.5 -8.9,6.4 -10.5,8.4 -1.6,2 -1.6,4.8 -1.6,4.8 v 5 h 2.3 1.5 15.4 v -5.8 h -12.8 z"
   id="path50" />
</g>
</svg>
