<?xml version="1.0" encoding="UTF-8" standalone="no"?>
<svg
   xmlns:dc="http://purl.org/dc/elements/1.1/"
   xmlns:cc="http://creativecommons.org/ns#"
   xmlns:rdf="http://www.w3.org/1999/02/22-rdf-syntax-ns#"
   xmlns:svg="http://www.w3.org/2000/svg"
   xmlns="http://www.w3.org/2000/svg"
   xmlns:sodipodi="http://sodipodi.sourceforge.net/DTD/sodipodi-0.dtd"
   xmlns:inkscape="http://www.inkscape.org/namespaces/inkscape"
   version="1"
   width="100%"
   height="100%"
   viewBox="0 0 1920 1080"
   id="svg6"
   sodipodi:docname="Outnorth.svg"
   inkscape:version="1.0.2 (e86c870879, 2021-01-15)">
  <metadata
     id="metadata12">
    <rdf:RDF>
      <cc:Work
         rdf:about="">
        <dc:format>image/svg+xml</dc:format>
        <dc:type
           rdf:resource="http://purl.org/dc/dcmitype/StillImage" />
      </cc:Work>
    </rdf:RDF>
  </metadata>
  <defs
     id="defs10" />
  <sodipodi:namedview
     pagecolor="#ffffff"
     bordercolor="#666666"
     borderopacity="1"
     objecttolerance="10"
     gridtolerance="10"
     guidetolerance="10"
     inkscape:pageopacity="0"
     inkscape:pageshadow="2"
     inkscape:window-width="1920"
     inkscape:window-height="1017"
     id="namedview8"
     showgrid="false"
     inkscape:zoom="0.67760417"
     inkscape:cx="960"
     inkscape:cy="540"
     inkscape:window-x="-8"
     inkscape:window-y="-8"
     inkscape:window-maximized="1"
     inkscape:current-layer="svg6" />
  <path
     d="m 388.32809,398.56499 c -4.18722,3.02411 -10.00281,8.37444 -12.56166,11.8638 -4.88509,6.51345 -4.88509,8.37444 -4.88509,129.57121 0,121.19677 0,123.05775 4.88509,129.57121 2.55885,3.48935 8.37444,8.83969 12.56166,11.86379 l 7.67657,5.11771 h 562.71591 c 627.38523,0 572.95133,1.39574 584.81513,-16.05101 l 5.583,-8.37444 V 417.87273 l -5.583,-8.37444 c -11.8638,-17.44675 42.5701,-16.05101 -584.81513,-16.05101 H 396.00466 Z m 203.08019,41.63959 c 17.21413,5.81558 29.77579,13.72477 42.57008,26.98431 12.09641,12.32903 26.28644,40.24384 27.21693,52.8055 0.46525,8.60706 0,9.30493 -7.67657,11.16592 -4.41984,1.39574 -10.9333,4.41984 -14.65527,6.9787 l -6.51346,4.65247 -19.30774,-7.21133 c -10.46805,-3.95459 -20.23823,-7.21132 -21.40134,-7.21132 -1.39574,0 -4.8851,2.79148 -8.14182,6.04821 -3.02411,3.48935 -14.42265,12.09641 -25.35595,19.07511 -10.9333,6.9787 -24.42545,16.28364 -29.77579,20.9361 -10.0028,7.9092 -10.46805,8.14182 -20.9361,5.58296 -10.70068,-2.55885 -11.16592,-2.32623 -24.19283,6.74608 -7.21132,4.88509 -14.19003,9.07231 -15.35314,9.07231 -2.79148,0 -11.16592,-19.07511 -14.19003,-32.79989 -10.70067,-45.8268 13.72478,-96.30607 56.52748,-117.24217 26.98431,-13.25954 52.34026,-15.12052 81.18555,-5.58296 z m 804.17892,49.78139 v 26.51907 l 8.3745,-5.58296 c 16.5162,-11.16592 39.7786,-5.81559 49.0835,10.93329 3.4894,6.51346 4.1872,13.49216 4.1872,44.89631 v 37.21974 h -30.241 l -1.1631,-34.42826 c -1.1631,-36.98711 -1.861,-38.8481 -13.9574,-38.8481 -13.7248,0 -16.2837,7.21133 -16.2837,43.96582 v 30.47366 h -30.241 V 463.23429 h 30.241 z m -425.70071,4.65247 v 12.79429 h 21.16872 l -0.69787,10.93329 -0.69787,11.16593 -10.0028,0.69787 -10.0028,0.69787 0.69787,23.72758 0.69787,23.72758 8.37444,0.69787 c 8.14181,0.69787 8.60706,1.16312 10.23542,11.39855 0.9305,6.0482 0.46525,11.63116 -0.69787,12.79428 -1.39574,1.39574 -8.83968,2.32623 -16.51625,2.55886 -26.28644,0.23262 -33.26514,-9.77018 -34.66088,-49.08353 -0.9305,-25.58857 -1.16312,-26.05382 -6.51346,-26.05382 -5.11771,0 -5.58296,-0.93049 -5.58296,-11.63117 0,-10.93329 0.46525,-11.63116 5.81558,-11.63116 5.11772,0 5.81559,-0.9305 5.81559,-9.07231 0,-9.07232 0.23262,-9.30494 11.16592,-12.56167 20.23823,-6.28083 21.40135,-5.81558 21.40135,8.83969 z m 362.89241,0 v 12.79429 h 21.1688 l -0.6979,10.93329 -0.6979,11.16593 -10.0028,0.69787 -10.0028,0.69787 0.6979,23.72758 0.6978,23.72758 8.6071,0.69787 c 8.3745,0.69787 8.3745,0.69787 9.3049,12.56166 0.2327,6.28083 -0.2326,12.09642 -1.1631,12.79429 -1.1631,0.69787 -8.1418,1.16311 -15.8184,1.39574 -10.468,0 -15.5857,-1.16312 -20.2382,-4.65247 -10.468,-7.67657 -13.0269,-15.81839 -13.9574,-44.43106 -0.9305,-25.58857 -1.1631,-26.05382 -6.5134,-26.05382 -5.1178,0 -5.583,-0.93049 -5.583,-11.63117 0,-10.93329 0.4652,-11.63116 5.8156,-11.63116 5.1177,0 5.8156,-0.9305 5.8156,-9.07231 0,-9.07232 0.2326,-9.30494 11.1659,-12.56167 20.2382,-6.28083 21.4013,-5.81558 21.4013,8.83969 z m -547.82798,14.8879 c 27.9148,12.56166 35.824,51.87501 15.81839,78.85932 -11.16593,14.88789 -34.66088,21.63397 -54.89912,15.81838 -15.35314,-4.41984 -23.72758,-10.70067 -29.54316,-22.33184 -13.95741,-27.44955 -3.9546,-60.7147 22.09922,-72.34586 12.32903,-5.58296 34.19563,-5.58296 46.52467,0 z m 293.57068,0.23262 c 13.9574,8.37444 15.8184,15.35314 15.8184,56.99272 v 37.21974 l -14.4227,0.69787 -14.6552,0.69787 -0.2327,-28.61267 c 0,-15.81839 -1.1631,-32.33465 -2.7914,-36.75449 -2.3263,-6.9787 -3.9546,-8.14182 -11.166,-8.83969 -6.9787,-0.69787 -9.5375,0.46525 -13.4921,5.58296 -4.4199,5.58296 -4.8851,9.07231 -4.8851,37.21974 v 31.17153 h -30.241 V 507.2001 l 13.2595,0.69787 c 12.0964,0.69787 13.4921,1.16312 14.6553,6.51346 0.9305,4.41984 1.6283,4.88509 2.7914,2.09361 4.1873,-10.70068 32.1021,-14.8879 45.3616,-6.74608 z m 100.028,-2.09361 c 9.5376,3.48935 23.495,17.912 26.5191,27.44956 3.9546,12.09641 3.2567,33.03251 -1.3957,42.33745 -19.3078,38.38285 -74.9048,38.8481 -92.1189,0.93049 -8.3744,-17.912 -4.6525,-45.36155 7.9092,-59.08633 11.6312,-12.56166 41.1743,-18.37725 59.0863,-11.63117 z m 100.726,11.39854 v 13.95741 h -7.9092 c -4.4199,0 -10.2355,2.09361 -13.2596,4.41984 -5.3503,4.18722 -5.5829,6.28083 -6.746,35.59137 l -1.1632,30.93891 h -30.241 l -0.6979,-48.38566 -0.4652,-48.38566 13.2595,0.69787 c 12.5617,0.69787 13.4922,1.16312 14.19,6.74608 l 0.6979,6.04821 7.9092,-7.9092 c 5.8156,-5.81558 9.7702,-7.67657 16.051,-7.67657 h 8.3745 z m -425.70079,19.77299 c 0,30.47366 0.23262,31.8694 5.81558,37.21974 6.74608,6.9787 10.46805,7.21132 18.37725,0.93049 6.04821,-4.65247 6.04821,-4.88509 6.04821,-37.21974 v -32.33464 h 32.56727 l -0.46525,48.15303 -0.69787,48.38566 h -12.79429 c -12.09641,0 -12.79428,-0.23262 -13.9574,-6.51345 l -1.16311,-6.74608 -5.58296,6.04821 c -8.14182,8.60706 -21.63398,11.86379 -34.19564,8.37444 -20.00561,-5.58296 -24.19283,-16.28364 -24.19283,-62.80831 v -34.8935 h 30.24104 z"
     id="path2"
     style="stroke-width:2.32623" />
  <path
     d="m 752.84889,528.60145 c -2.55885,1.39574 -5.81558,6.04821 -7.67657,10.46805 -11.86379,28.38005 10.46805,58.62109 27.91481,37.91761 5.11771,-6.04821 6.0482,-9.30493 6.0482,-22.33184 0,-13.49216 -0.69787,-15.58577 -6.74607,-21.8666 -7.21133,-7.21132 -12.56167,-8.14181 -19.54037,-4.18722 z m 394.99451,2.55886 c -6.7461,6.04821 -10.9333,20.00561 -8.8397,30.70628 3.4893,18.60987 13.9574,26.51907 26.0538,19.77299 13.0269,-7.21133 15.1205,-37.21974 3.722,-49.54878 -6.9787,-7.44394 -13.0269,-7.67657 -20.9361,-0.93049 z"
     id="path4"
     style="stroke-width:2.32623" />
</svg>
