<?xml version="1.0" encoding="UTF-8" standalone="no"?>
<svg
   xmlns:dc="http://purl.org/dc/elements/1.1/"
   xmlns:cc="http://creativecommons.org/ns#"
   xmlns:rdf="http://www.w3.org/1999/02/22-rdf-syntax-ns#"
   xmlns:svg="http://www.w3.org/2000/svg"
   xmlns="http://www.w3.org/2000/svg"
   xmlns:sodipodi="http://sodipodi.sourceforge.net/DTD/sodipodi-0.dtd"
   xmlns:inkscape="http://www.inkscape.org/namespaces/inkscape"
   id="Layer_1"
   data-name="Layer 1"
   width="100%"
   height="100%"
   viewBox="0 0 1920 1080"
   version="1.1"
   sodipodi:docname="Spobik.svg"
   inkscape:version="1.0.2 (e86c870879, 2021-01-15)">
  <metadata
     id="metadata21">
    <rdf:RDF>
      <cc:Work
         rdf:about="">
        <dc:format>image/svg+xml</dc:format>
        <dc:type
           rdf:resource="http://purl.org/dc/dcmitype/StillImage" />
      </cc:Work>
    </rdf:RDF>
  </metadata>
  <sodipodi:namedview
     pagecolor="#ffffff"
     bordercolor="#666666"
     borderopacity="1"
     objecttolerance="10"
     gridtolerance="10"
     guidetolerance="10"
     inkscape:pageopacity="0"
     inkscape:pageshadow="2"
     inkscape:window-width="1920"
     inkscape:window-height="1017"
     id="namedview19"
     showgrid="false"
     inkscape:zoom="0.67760417"
     inkscape:cx="960"
     inkscape:cy="540"
     inkscape:window-x="-8"
     inkscape:window-y="-8"
     inkscape:window-maximized="1"
     inkscape:current-layer="Layer_1" />
  <defs
     id="defs4">
    <style
       id="style2">.cls-1{fill:#007298;}.cls-1,.cls-3{fill-rule:evenodd;}.cls-2,.cls-3{fill:#fff;}</style>
  </defs>
  <title
     id="title6">Spobik</title>
  <path
     class="cls-1"
     d="m 939.20572,556.19569 c -3.44127,30.06934 -21.39935,51.78609 -45.20424,51.78609 -26.56126,0 -41.12818,-18.24207 -36.31709,-60.25562 3.34104,-29.73524 24.52322,-51.53551 45.10402,-51.53551 26.16032,0 40.86089,20.6142 36.36719,59.85469 m -155.60884,35.46512 c 9.48855,45.23766 48.77915,75.17336 98.96155,75.17336 75.3237,0 123.78539,-45.98939 131.97099,-117.33726 7.7011,-67.38874 -40.64372,-112.59298 -100.1142,-112.59298 -53.55684,0 -99.06177,29.01692 -120.36089,76.07544 -7.93497,-47.49286 -46.23997,-76.47636 -98.56062,-76.47636 -71.21423,0 -117.85512,38.70592 -131.80395,105.84408 -8.43612,-22.75247 -32.14079,-36.91847 -71.38128,-45.13742 -49.5643,-10.30711 -53.95776,-17.0393 -52.53782,-29.33432 1.77075,-15.469 15.58594,-25.37518 52.85522,-25.37518 28.54917,0 60.53961,7.93496 76.69353,26.16033 h 1.98792 l 3.34103,-28.93339 c 3.2241,-28.14825 -19.06062,-58.66863 -86.44936,-58.66863 -69.37665,0 -118.75719,43.60055 -124.33672,92.363 -4.76098,41.62933 15.73628,63.47972 73.83694,75.3237 40.67713,8.35259 55.12712,13.88201 53.20603,30.52038 -2.08815,18.24207 -14.1326,26.56125 -49.02974,26.56125 -31.32223,0 -65.81845,-10.3071 -80.86982,-27.74732 h -2.02133 l -3.09046,26.96218 c -4.4937,39.24049 25.39189,62.24354 85.64751,62.24354 54.89325,0 94.41773,-20.66432 113.37812,-55.12713 l -8.53635,74.08752 c -4.24312,36.86835 9.82265,52.72158 39.95882,52.72158 h 27.3631 l 22.68565,-185.17704 q 0.23387,-3.79207 0.70161,-7.90155 c 3.67515,-32.10738 22.58542,-51.93644 43.19962,-51.93644 30.92131,0 43.56714,14.26624 38.20477,61.05747 -3.72525,32.5083 -19.19426,53.45661 -42.98245,53.45661 -13.59802,0 -25.05778,-4.5271 -31.99044,-15.61935 l 10.20687,70.46249 a 71.247635,71.247635 0 0 0 24.18912,3.82549 c 46.44043,0.13364 86.39924,-27.6805 105.72715,-75.40723 z"
     id="path8"
     style="stroke-width:1.67052" />
  <path
     class="cls-1"
     d="m 1162.8047,574.35423 c -1.7708,15.4523 -12.412,25.37518 -37.7872,25.37518 h -24.1891 c -8.7201,0 -13.03,-3.95913 -12.1112,-11.89409 l 4.8445,-42.41448 h 34.8804 c 28.1482,0 36.8516,7.13312 34.3459,28.93339 m 8.3526,-107.03015 c -1.988,17.44022 -13.3642,26.96217 -38.7561,26.96217 h -33.377 l 5.5796,-48.76244 a 165.66537,165.66537 0 0 1 18.81,-1.587 h 16.7052 c 21.7502,0 32.8758,6.73219 30.9714,23.38727 z m 66.9544,101.65108 c -1.6371,-21.80027 -20.0129,-44.51933 -42.9992,-51.70256 23.2703,-5.94705 48.3281,-30.92131 51.2348,-56.29649 5.6631,-49.5476 -36.3004,-77.69584 -91.8785,-77.69584 h -33.2601 c -23.7882,0 -65.0333,7.13311 -86.0317,13.88201 l -22.4518,196.62009 c -5.3456,46.77453 25.275,70.16179 80.3854,70.16179 h 29.7687 c 49.8984,0 100.8993,-24.8072 113.044,-76.04202 l -0.5346,4.67745 c -5.8969,51.53551 23.1534,71.36457 63.1957,71.36457 16.8723,0 32.4081,-4.54381 40.8776,-16.88894 6.9661,8.63658 18.2755,13.71496 32.9093,13.71496 h 29.7352 l 11.8774,-103.87287 c 17.0226,31.32223 32.525,62.24353 53.8408,90.776 7.9016,10.70803 26.0267,15.03467 37.1357,15.03467 26.9621,0 44.7532,-13.48109 50.2993,-37.6535 -16.204,-3.95913 -22.3181,-5.94705 -36.434,-24.57333 -13.0635,-17.44022 -23.7548,-38.42194 -34.2624,-57.48256 23.0866,-28.54917 77.4453,-84.44474 92.5134,-98.31004 l 0.2338,-1.98792 h -52.7717 c -22.9863,0 -31.0215,4.36005 -41.7629,14.66715 -24.0388,22.98635 -45.5384,51.53552 -66.4199,78.09677 L 1430.522,411.3784 c 2.4891,-21.80028 -7.2667,-44.00147 -41.3453,-44.00147 h -28.8833 l -27.3631,239.28514 c -16.4379,-1.20278 -22.9863,-7.78462 -20.9984,-25.15802 l 9.1544,-80.08468 c 4.5272,-39.64141 -7.9349,-51.93643 -50.7503,-51.93643 h -18.643 z m 95.0358,-175.78872 c 2.3554,-20.6142 -13.1804,-37.26927 -34.9807,-37.26927 -21.8003,0 -41.5458,16.70519 -43.9012,37.26927 -2.3555,20.56409 13.5813,37.26928 35.3816,37.26928 21.8002,0 41.078,-16.65507 43.4335,-37.26928 z"
     id="path10"
     style="stroke-width:1.67052" />
  <path
     class="cls-2"
     d="m 926.49307,541.39489 c -3.44127,30.06934 -21.39935,51.93644 -45.10401,51.93644 -26.56125,0 -41.12818,-18.24207 -36.31709,-60.25562 3.34104,-29.73524 24.52322,-51.53552 45.10402,-51.53552 26.16033,0 40.86089,20.61421 36.3672,59.8547 m -155.65896,35.46512 c 9.48854,45.23765 48.77915,75.17335 98.96154,75.17335 75.3237,0 123.78546,-45.98938 131.97103,-117.33725 7.701,-67.38874 -40.64376,-112.59298 -100.11423,-112.59298 -53.55684,0 -99.06178,29.01691 -120.3609,76.07543 -7.93496,-47.49285 -46.23996,-76.47636 -98.56062,-76.47636 -71.21422,0 -117.85511,38.70593 -131.80395,105.84409 -8.50294,-22.86941 -32.14078,-36.96859 -71.44809,-45.18754 -49.5643,-10.3071 -53.95777,-17.03929 -52.53783,-29.33431 1.77075,-15.4356 15.60265,-25.45871 52.85523,-25.45871 28.54917,0 60.5396,7.93496 76.69352,26.16032 h 1.98792 l 3.34104,-28.93339 c 3.2241,-28.14824 -19.06062,-58.66862 -86.44936,-58.66862 -69.37665,0 -118.7572,43.60054 -124.33673,92.36299 -4.76098,41.62934 15.73629,63.47972 73.83694,75.3237 40.67714,8.3526 55.12713,13.88202 53.20603,30.52039 -2.08815,18.24206 -14.13259,26.56125 -49.02973,26.56125 -31.32223,0 -65.81845,-10.3071 -80.86983,-27.74732 h -1.98791 l -3.09046,26.96217 c -4.4937,39.2405 25.39188,62.24354 85.6475,62.24354 54.89326,0 94.41774,-20.66432 113.37813,-55.12712 l -8.56976,74.23786 c -4.24312,36.86835 9.82265,52.72158 39.95881,52.72158 h 27.3631 l 22.68565,-185.19374 q 0.23387,-3.79207 0.70162,-7.90155 c 3.67514,-32.10738 22.58542,-51.93644 43.19962,-51.93644 30.92131,0 43.56714,14.26623 38.20477,61.05747 -3.72526,32.5083 -19.21097,53.45661 -42.98245,53.45661 -13.59803,0 -25.05779,-4.52711 -31.99044,-15.61935 l 10.20687,70.46249 a 71.247635,71.247635 0 0 0 24.18911,3.89231 c 46.45714,0 86.41595,-27.83085 105.74386,-75.54087 z"
     id="path12"
     style="stroke-width:1.67052" />
  <path
     class="cls-3"
     d="m 1150.0753,559.63696 c -1.7707,15.4523 -12.4119,25.37518 -37.7871,25.37518 h -24.1724 c -8.7201,0 -13.0301,-3.95913 -12.1113,-11.89409 l 4.8445,-42.41448 h 34.8804 c 28.1483,0 36.8517,7.13312 34.3459,28.95009 m 8.3526,-107.03015 c -1.9879,17.44022 -13.3641,26.96218 -38.756,26.96218 h -33.377 l 5.5795,-48.76245 a 165.61525,165.61525 0 0 1 18.8101,-1.58699 h 16.7052 c 21.7501,0 32.8758,6.68207 30.9714,23.38726 z m 66.9544,101.65108 c -1.5369,-21.71674 -19.8959,-44.58615 -42.9323,-51.70256 23.2703,-5.94705 48.3281,-30.92131 51.2348,-56.29649 5.663,-49.54759 -36.3004,-77.69584 -91.8786,-77.69584 h -33.2934 c -23.7882,0 -65.0333,7.13312 -86.0317,13.86531 l -22.48519,196.60338 c -5.34566,46.77453 25.27489,70.1618 80.38539,70.1618 h 29.7352 c 49.8984,0 100.8993,-24.80721 113.044,-76.04203 l -0.5345,4.67746 c -5.897,51.53551 23.1533,71.36457 63.1957,71.36457 16.8722,0 32.4081,-4.54381 40.8776,-16.88895 6.9661,8.63658 18.2755,13.73167 32.9092,13.73167 h 29.7352 l 11.8774,-103.87288 c 17.0226,31.32224 32.525,62.24354 53.8409,90.79271 7.9015,10.70803 26.0267,15.03467 37.1356,15.03467 26.9622,0 44.7532,-13.48109 50.2993,-37.6535 -16.204,-3.95913 -22.3181,-5.94704 -36.434,-24.57333 -13.0634,-17.44022 -23.7548,-38.42194 -34.2623,-57.48256 23.0865,-28.54917 77.4452,-84.44473 92.5133,-98.31004 l 0.2339,-1.98792 h -52.755 c -22.9863,0 -31.0215,4.36006 -41.763,14.66716 -24.0388,22.98634 -45.5383,51.53551 -66.4198,78.09676 l 14.1994,-124.08615 c 2.4891,-21.80027 -7.2668,-44.00147 -41.3454,-44.00147 h -28.8999 l -27.3464,239.25173 c -16.4379,-1.20277 -22.9864,-7.78462 -20.9985,-25.15802 l 9.071,-80.08468 c 4.5271,-39.64141 -7.935,-51.93643 -50.7504,-51.93643 h -18.5595 z m 94.969,-175.82212 c 2.3554,-20.61421 -13.1804,-37.26928 -34.9807,-37.26928 -21.8002,0 -41.5458,16.70519 -43.9012,37.26928 -2.3554,20.56409 13.5813,37.26928 35.3816,37.26928 21.8003,0 41.1449,-16.65508 43.5003,-37.26928 z"
     id="path14"
     style="stroke-width:1.67052" />
  <path
     class="cls-2"
     d="m 1453.0072,724.66753 c 9.3382,0 15.8867,-4.8278 15.8867,-13.36415 v -0.11694 c 0,-7.53404 -5.0116,-10.69132 -13.715,-12.97993 -7.4839,-1.9211 -9.3382,-2.83988 -9.3382,-5.67977 v -0.11693 c 0,-2.10486 1.9211,-3.77537 5.5628,-3.77537 a 20.313511,20.313511 0 0 1 11.2426,4.25982 l 5.0116,-7.16653 a 25.057785,25.057785 0 0 0 -16.0704,-5.49601 c -8.8371,0 -15.1349,5.19532 -15.1349,13.04676 v 0.11693 c 0,8.58647 5.6296,11.00872 14.333,13.23051 7.2334,1.85428 8.7201,3.09047 8.7201,5.49601 v 0.11694 c 0,2.53919 -2.3554,4.07607 -6.2477,4.07607 a 19.845766,19.845766 0 0 1 -12.9131,-5.24543 l -5.6297,6.68207 a 27.530153,27.530153 0 0 0 18.3758,6.91595 m -75.0231,-0.61809 h 32.9427 v -8.46953 h -23.571 v -9.03751 h 20.397 v -8.46953 h -20.397 v -8.77023 h 23.1701 v -8.46953 h -32.6253 v 43.26644 z m -63.346,0 h 9.5219 v -13.23051 l 5.0116,-5.19532 13.3641,18.37571 h 11.4264 l -18.3757,-24.90744 17.6072,-18.3757 h -11.5767 l -17.5571,18.91027 V 680.7997 h -9.522 v 43.26644 z m -38.5723,0 h 9.5219 V 680.783 h -9.5219 z m -35.9663,-13.16369 v 0.11693 c 0,3.2074 -2.5392,4.69416 -6.6821,4.69416 h -11.3094 v -9.52196 h 10.9252 c 4.8278,0.0167 6.9828,1.82087 6.9828,4.71087 z m -2.4055,-17.18964 c 0,3.20739 -2.6562,4.57722 -6.8659,4.57722 h -8.7702 v -9.15444 h 9.3048 c 4.0092,0 6.2477,1.67051 6.2477,4.44358 v 0.11693 z m -24.9075,30.33662 h 20.5808 c 9.7726,0 16.1873,-3.95913 16.1873,-11.86068 v -0.11694 c 0,-5.8134 -3.0904,-8.72011 -8.102,-10.6245 a 10.023114,10.023114 0 0 0 5.6798,-9.3382 v -0.11694 a 9.9228829,9.9228829 0 0 0 -2.9735,-7.35028 c -2.4724,-2.47237 -6.3647,-3.82549 -11.3094,-3.82549 h -20.0463 v 43.26644 z m -90.9931,-7.16652 c -3.5248,0 -6.064,-2.03804 -6.064,-5.01156 v -0.11694 a 6.4482033,6.4482033 0 0 1 4.0259,-5.67976 l 8.3526,8.35259 a 10.256987,10.256987 0 0 1 -6.3981,2.47237 z m 0.9856,-19.51167 a 7.7177978,7.7177978 0 0 1 -2.5392,-5.37907 v -0.11693 a 4.0760664,4.0760664 0 0 1 4.2097,-4.39347 3.8087833,3.8087833 0 0 1 4.076,4.00925 v 0.11693 c -0.067,2.73966 -2.0547,4.34335 -5.7465,5.76329 z m 15.5692,27.56357 6.9828,-4.87792 -6.3647,-6.36467 a 79.917629,79.917629 0 0 0 5.6798,-9.15445 l -6.9828,-3.82549 c -1.3531,2.65613 -2.7731,5.19532 -4.2097,7.41711 l -5.7466,-5.74659 c 5.3791,-2.10485 9.0876,-5.49601 9.0876,-11.30941 v -0.11694 c 0,-6.06398 -4.8278,-10.87508 -12.1781,-10.87508 -8.3526,0 -13.0968,5.44589 -13.0968,11.37624 v 0.0668 a 14.466695,14.466695 0 0 0 2.9067,8.6867 c -5.4459,2.47236 -8.3526,6.36467 -8.3526,11.86068 v 0.11694 c 0,7.66768 6.2477,12.47877 14.5168,12.47877 a 19.478252,19.478252 0 0 0 12.6625,-4.82779 z m -113.7958,-0.25058 c 9.3382,0 15.8867,-4.8278 15.8867,-13.36415 v -0.11694 c 0,-7.53404 -5.0116,-10.69132 -13.715,-12.97993 -7.4839,-1.9211 -9.3382,-2.83988 -9.3382,-5.67977 v -0.11693 c 0,-2.10486 1.9211,-3.77537 5.5628,-3.77537 a 20.313511,20.313511 0 0 1 11.2426,4.25982 l 5.0116,-7.16653 a 25.057785,25.057785 0 0 0 -16.0704,-5.49601 c -8.837,0 -15.1349,5.19532 -15.1349,13.04676 v 0.11693 c 0,8.58647 5.6296,11.00872 14.3331,13.23051 7.2333,1.85428 8.7201,3.09047 8.7201,5.49601 v 0.11694 c 0,2.53919 -2.3555,4.07607 -6.2478,4.07607 a 19.845766,19.845766 0 0 1 -12.9131,-5.24543 l -5.6296,6.68207 a 27.530153,27.530153 0 0 0 18.2253,6.91595 z m -62.66111,-0.61809 h 9.52196 v -34.47951 h 13.16369 v -8.77023 h -35.91616 v 8.77023 h 13.16369 v 34.47951 z m -63.47972,-22.25131 v -12.42867 h 9.45514 c 4.62734,0 7.48392,2.10486 7.48392,6.18092 v 0.11694 c 0,3.64173 -2.65612,6.1141 -7.30016,6.1141 h -9.6389 z m -9.50525,22.25131 h 9.52196 v -13.8319 h 7.48392 l 9.27138,13.8486 h 11.12566 l -10.67462,-15.4523 a 13.364152,13.364152 0 0 0 9.27138,-13.36415 v -0.11694 a 13.581319,13.581319 0 0 0 -3.70855,-9.88947 c -2.83988,-2.83988 -7.0997,-4.39346 -12.61242,-4.39346 h -19.67871 v 43.26644 z m -49.63112,-8.0352 a 13.146985,13.146985 0 0 1 -13.09687,-13.59802 v -0.11694 a 12.929817,12.929817 0 0 1 12.97993,-13.48109 13.146985,13.146985 0 0 1 13.09687,13.59803 v 0.11693 a 12.946522,12.946522 0 0 1 -13.04675,13.4978 z m -0.11694,8.77023 a 22.368249,22.368249 0 0 0 23.01976,-22.35155 v -0.11693 c 0,-12.29502 -9.57208,-22.25132 -22.93623,-22.25132 a 22.368249,22.368249 0 0 0 -23.05316,22.36825 v 0.11694 c -0.0334,12.34513 9.53866,22.25131 22.88611,22.25131 z m -71.01376,-22.1845 v -13.23051 h 7.35028 c 4.76098,0 7.7178,2.28861 7.7178,6.54844 v 0.11693 c 0,3.70856 -2.77306,6.54844 -7.53404,6.54844 h -7.53404 z m -9.53866,21.44947 h 9.52196 v -12.97993 h 7.18323 c 9.70571,0 17.49033,-5.19532 17.49033,-15.20173 v -0.11693 c 0,-8.83705 -6.24774,-15.03467 -16.55484,-15.03467 h -17.64068 v 43.26644 z m -42.39778,0.61809 c 9.33821,0 15.88664,-4.8278 15.88664,-13.36415 v -0.11694 c 0,-7.53404 -5.01156,-10.69132 -13.71496,-12.97993 -7.48393,-1.9211 -9.3382,-2.83988 -9.3382,-5.67977 v -0.11693 c 0,-2.10486 1.9211,-3.77537 5.56283,-3.77537 a 20.313511,20.313511 0 0 1 11.24259,4.25982 l 5.01156,-7.16653 a 25.057785,25.057785 0 0 0 -16.0704,-5.49601 c -8.83704,0 -15.1349,5.19532 -15.1349,13.04676 v 0.11693 c 0,8.58647 5.62965,11.00872 14.33305,13.23051 7.23335,1.85428 8.72011,3.09047 8.72011,5.49601 v 0.11694 c 0,2.53919 -2.35543,4.07607 -6.24774,4.07607 a 19.845766,19.845766 0 0 1 -12.91311,-5.24543 l -5.62965,6.68207 a 27.530153,27.530153 0 0 0 18.24207,6.91595 z"
     id="path16"
     style="stroke-width:1.67052" />
</svg>
