<?xml version="1.0" encoding="UTF-8" standalone="no"?>
<svg
   xmlns:dc="http://purl.org/dc/elements/1.1/"
   xmlns:cc="http://creativecommons.org/ns#"
   xmlns:rdf="http://www.w3.org/1999/02/22-rdf-syntax-ns#"
   xmlns:svg="http://www.w3.org/2000/svg"
   xmlns="http://www.w3.org/2000/svg"
   xmlns:sodipodi="http://sodipodi.sourceforge.net/DTD/sodipodi-0.dtd"
   xmlns:inkscape="http://www.inkscape.org/namespaces/inkscape"
   width="100%"
   height="100%"
   viewBox="0 0 1920 1080"
   version="1.1"
   id="svg56"
   sodipodi:docname="Svenssons.svg"
   inkscape:version="1.0.2 (e86c870879, 2021-01-15)">
  <metadata
     id="metadata62">
    <rdf:RDF>
      <cc:Work
         rdf:about="">
        <dc:format>image/svg+xml</dc:format>
        <dc:type
           rdf:resource="http://purl.org/dc/dcmitype/StillImage" />
      </cc:Work>
    </rdf:RDF>
  </metadata>
  <defs
     id="defs60" />
  <sodipodi:namedview
     pagecolor="#ffffff"
     bordercolor="#666666"
     borderopacity="1"
     objecttolerance="10"
     gridtolerance="10"
     guidetolerance="10"
     inkscape:pageopacity="0"
     inkscape:pageshadow="2"
     inkscape:window-width="1920"
     inkscape:window-height="1017"
     id="namedview58"
     showgrid="false"
     inkscape:zoom="0.67760417"
     inkscape:cx="960"
     inkscape:cy="540"
     inkscape:window-x="-8"
     inkscape:window-y="-8"
     inkscape:window-maximized="1"
     inkscape:current-layer="svg56" />
  <style
     id="style2">
		tspan { white-space:pre }
		.shp0 { fill: #000000 } 
		.shp1 { fill: #ffffff } 
	</style>
  <path
     id="Layer 1"
     class="shp0"
     d="M 448.30591,177.80323 H 1471.6941 V 902.19677 H 448.30591 Z"
     style="stroke-width:1.21543" />
  <path
     id="Layer"
     class="shp1"
     d="m 748.62537,562.33952 c -32.13585,0 -58.19457,-26.05872 -58.19457,-58.19457 0,-32.13585 26.05872,-58.19457 58.19457,-58.19457 z"
     style="stroke-width:1.21543" />
  <path
     id="path6"
     class="shp1"
     d="m 818.46372,479.1558 c 0,16.06793 -13.02936,29.09729 -29.09729,29.09729 -16.06792,0 -29.09728,-13.02936 -29.09728,-29.09729 0,-16.06792 13.02936,-29.09728 29.09728,-29.09728 16.06793,0 29.09729,13.02936 29.09729,29.09728 z"
     style="stroke-width:1.21543" />
  <path
     id="path8"
     class="shp1"
     d="m 760.26915,631.91047 c 32.13584,0 58.19457,-26.05872 58.19457,-58.19457 0,-32.13585 -26.05873,-58.19457 -58.19457,-58.19457 z"
     style="stroke-width:1.21543" />
  <path
     id="path10"
     class="shp1"
     d="m 748.62537,598.76582 c 0,16.06792 -13.02936,29.09728 -29.09728,29.09728 -16.06793,0 -29.09729,-13.02936 -29.09729,-29.09728 0,-16.06793 13.02936,-29.09729 29.09729,-29.09729 16.08008,0 29.09728,13.02936 29.09728,29.09729 z"
     style="stroke-width:1.21543" />
  <g
     id="g54"
     transform="matrix(1.2154254,0,0,1.2154254,448.30591,177.80323)">
    <path
       id="path12"
       class="shp1"
       d="m 359.61,284.75 c -0.46,-2.59 -2.59,-6.63 -8.55,-6.63 -4.44,0 -7.36,2.85 -7.36,5.97 0,2.59 1.66,4.64 5.1,5.3 l 6.56,1.26 c 8.55,1.66 13.13,7.23 13.13,13.86 0,7.23 -6.03,14.52 -16.97,14.52 -12.46,0 -17.96,-8.02 -18.69,-14.72 l 8.49,-2.25 c 0.4,4.64 3.65,8.82 10.28,8.82 4.91,0 7.62,-2.45 7.62,-5.77 0,-2.72 -2.05,-4.84 -5.7,-5.57 l -6.56,-1.33 c -7.49,-1.52 -12.33,-6.36 -12.33,-13.46 0,-8.35 7.49,-14.72 16.38,-14.72 11.4,0 15.78,6.89 16.84,12.2 z" />
    <path
       id="path14"
       class="shp1"
       d="m 391.69,318.03 h -8.81 l -13.33,-32.61 h 9.68 l 8.09,21.87 7.75,-21.87 h 9.28 z" />
    <g
       id="g32">
      <path
         id="path16"
         fill-rule="evenodd"
         class="shp1"
         d="m 437.3,308.69 c -1.66,5.64 -6.83,10.34 -14.85,10.34 -8.95,0 -16.84,-6.43 -16.84,-17.43 0,-10.41 7.69,-17.17 16.04,-17.17 10.08,0 16.11,6.43 16.11,16.91 0,1.26 -0.13,2.59 -0.13,2.72 H 414.3 c 0.2,4.31 3.85,7.43 8.22,7.43 4.11,0 6.36,-2.06 7.42,-4.97 z m -8.22,-10.68 c -0.13,-3.25 -2.25,-6.43 -7.29,-6.43 -4.57,0 -7.09,3.45 -7.29,6.43 z" />
      <path
         id="path18"
         class="shp1"
         d="m 452.88,318.03 h -8.82 v -32.61 h 8.55 v 4.04 c 1.99,-3.38 5.9,-4.91 9.41,-4.91 8.09,0 11.8,5.77 11.8,12.93 v 20.55 H 465 V 299 c 0,-3.64 -1.79,-6.5 -6.03,-6.5 -3.84,0 -6.1,2.98 -6.1,6.76 v 18.77 z" />
      <path
         id="path20"
         class="shp1"
         d="m 486.89,307.29 c 0.2,2.59 2.12,4.97 5.97,4.97 2.92,0 4.31,-1.52 4.31,-3.25 0,-1.46 -0.99,-2.65 -3.51,-3.18 l -4.31,-0.99 c -6.3,-1.39 -9.15,-5.17 -9.15,-9.74 0,-5.83 5.17,-10.67 12.2,-10.67 9.28,0 12.4,5.9 12.79,9.41 l -7.36,1.66 c -0.26,-1.92 -1.66,-4.37 -5.37,-4.37 -2.32,0 -4.18,1.39 -4.18,3.25 0,1.59 1.19,2.59 2.98,2.92 l 4.64,0.99 c 6.43,1.33 9.68,5.24 9.68,10.01 0,5.3 -4.11,10.74 -12.66,10.74 -9.81,0 -13.19,-6.36 -13.59,-10.08 z" />
      <path
         id="path22"
         class="shp1"
         d="m 517.52,307.29 c 0.2,2.59 2.12,4.97 5.97,4.97 2.92,0 4.31,-1.52 4.31,-3.25 0,-1.46 -1,-2.65 -3.51,-3.18 l -4.31,-0.99 c -6.3,-1.39 -9.15,-5.17 -9.15,-9.74 0,-5.83 5.17,-10.67 12.2,-10.67 9.28,0 12.4,5.9 12.79,9.41 l -7.36,1.66 c -0.27,-1.92 -1.66,-4.37 -5.37,-4.37 -2.32,0 -4.18,1.39 -4.18,3.25 0,1.59 1.19,2.59 2.98,2.92 l 4.64,0.99 c 6.43,1.33 9.68,5.24 9.68,10.01 0,5.3 -4.11,10.74 -12.66,10.74 -9.81,0 -13.19,-6.36 -13.59,-10.08 z" />
      <path
         id="path24"
         fill-rule="evenodd"
         class="shp1"
         d="m 574.68,301.73 c 0,10.01 -7.36,17.3 -17.1,17.3 -9.74,0 -17.1,-7.29 -17.1,-17.3 0,-10.08 7.36,-17.3 17.1,-17.3 9.74,-0.01 17.1,7.22 17.1,17.3 z m -8.82,0 c 0,-6.16 -3.98,-9.28 -8.29,-9.28 -4.31,0 -8.29,3.11 -8.29,9.28 0,6.1 3.98,9.28 8.29,9.28 4.32,-0.01 8.29,-3.12 8.29,-9.28 z" />
      <path
         id="path26"
         class="shp1"
         d="m 589.47,318.03 h -8.82 v -32.61 h 8.55 v 4.04 c 1.99,-3.38 5.9,-4.91 9.41,-4.91 8.09,0 11.8,5.77 11.8,12.93 v 20.55 h -8.82 V 299 c 0,-3.64 -1.79,-6.5 -6.03,-6.5 -3.85,0 -6.1,2.98 -6.1,6.76 v 18.77 z" />
      <path
         id="path28"
         class="shp1"
         d="m 623.48,307.29 c 0.2,2.59 2.12,4.97 5.97,4.97 2.92,0 4.31,-1.52 4.31,-3.25 0,-1.46 -1,-2.65 -3.51,-3.18 l -4.31,-0.99 c -6.3,-1.39 -9.15,-5.17 -9.15,-9.74 0,-5.83 5.17,-10.67 12.2,-10.67 9.28,0 12.4,5.9 12.79,9.41 l -7.36,1.66 c -0.27,-1.92 -1.66,-4.37 -5.37,-4.37 -2.32,0 -4.18,1.39 -4.18,3.25 0,1.59 1.19,2.59 2.98,2.92 l 4.64,0.99 c 6.43,1.33 9.68,5.24 9.68,10.01 0,5.3 -4.11,10.74 -12.66,10.74 -9.81,0 -13.19,-6.36 -13.59,-10.08 z" />
      <path
         id="path30"
         class="shp1"
         d="m 339.64,340.98 h 4.22 v 15.61 h -4.22 z m 2.09,-7.74 c 1.46,0 2.6,1.17 2.6,2.63 0,1.4 -1.14,2.57 -2.6,2.57 -1.43,0 -2.6,-1.17 -2.6,-2.57 0,-1.45 1.18,-2.63 2.6,-2.63 z" />
    </g>
    <path
       id="path34"
       class="shp1"
       d="M 356.52,356.59 V 334.1 h 4.38 v 18.3 h 10.02 v 4.19 z" />
    <g
       id="g46">
      <path
         id="path36"
         fill-rule="evenodd"
         class="shp1"
         d="m 377.87,347.61 3.84,-0.57 c 0.89,-0.13 1.17,-0.57 1.17,-1.11 0,-1.11 -0.86,-2.03 -2.63,-2.03 -1.84,0 -2.86,1.17 -2.98,2.54 l -3.74,-0.79 c 0.25,-2.44 2.51,-5.14 6.69,-5.14 4.95,0 6.79,2.79 6.79,5.93 v 7.68 c 0,0.82 0.1,1.93 0.19,2.47 h -3.87 c -0.09,-0.41 -0.16,-1.27 -0.16,-1.87 -0.79,1.24 -2.28,2.32 -4.6,2.32 -3.33,0 -5.36,-2.25 -5.36,-4.7 0,-2.79 2.06,-4.35 4.66,-4.73 z m 5.01,2.67 v -0.7 l -3.52,0.54 c -1.08,0.16 -1.93,0.76 -1.93,1.97 0,0.92 0.67,1.81 2.03,1.81 1.77,0 3.42,-0.86 3.42,-3.62 z" />
      <path
         id="path38"
         class="shp1"
         d="m 391.26,356.59 v -15.61 h 4.03 v 1.9 c 0.86,-1.52 2.86,-2.35 4.57,-2.35 2.13,0 3.84,0.92 4.63,2.6 1.24,-1.9 2.89,-2.6 4.95,-2.6 2.89,0 5.65,1.74 5.65,5.93 v 10.12 H 411 v -9.26 c 0,-1.68 -0.82,-2.95 -2.76,-2.95 -1.81,0 -2.89,1.4 -2.89,3.08 v 9.14 h -4.19 v -9.26 c 0,-1.68 -0.86,-2.95 -2.76,-2.95 -1.84,0 -2.92,1.36 -2.92,3.08 v 9.14 h -4.22 z" />
      <path
         id="path40"
         class="shp1"
         d="m 419.37,356.59 v -15.61 h 4.03 v 1.9 c 0.86,-1.52 2.86,-2.35 4.57,-2.35 2.13,0 3.84,0.92 4.63,2.6 1.24,-1.9 2.89,-2.6 4.95,-2.6 2.89,0 5.65,1.74 5.65,5.93 v 10.12 h -4.09 v -9.26 c 0,-1.68 -0.82,-2.95 -2.76,-2.95 -1.81,0 -2.89,1.4 -2.89,3.08 v 9.14 h -4.19 v -9.26 c 0,-1.68 -0.86,-2.95 -2.76,-2.95 -1.84,0 -2.92,1.36 -2.92,3.08 v 9.14 h -4.22 z" />
      <path
         id="path42"
         class="shp1"
         d="m 451.7,356.59 h -4.22 v -22.97 h 4.22 v 8.66 c 1.02,-1.21 2.73,-1.71 4.22,-1.71 3.97,0 5.81,2.76 5.81,6.19 v 9.83 h -4.22 v -9.11 c 0,-1.74 -0.86,-3.11 -2.89,-3.11 -1.78,0 -2.82,1.33 -2.92,3.05 z" />
      <path
         id="path44"
         class="shp1"
         d="m 475.97,354.91 c -0.86,1.46 -2.67,2.09 -4.31,2.09 -3.78,0 -5.93,-2.76 -5.93,-6.16 v -9.87 h 4.22 v 9.01 c 0,1.74 0.89,3.14 2.85,3.14 1.87,0 2.95,-1.27 2.95,-3.08 v -9.07 h 4.22 v 12.78 c 0,1.21 0.1,2.29 0.16,2.82 h -4.03 c -0.07,-0.29 -0.13,-1.02 -0.13,-1.66 z" />
    </g>
    <path
       id="path48"
       class="shp1"
       d="m 484.47,333.62 h 4.22 v 22.97 h -4.22 z" />
    <g
       id="g52">
      <path
         id="path50"
         class="shp1"
         d="m 498.4,340.98 h 3.14 v 3.74 h -3.14 v 6.54 c 0,1.36 0.64,1.81 1.84,1.81 0.51,0 1.08,-0.06 1.3,-0.13 v 3.49 c -0.38,0.16 -1.14,0.38 -2.38,0.38 -3.05,0 -4.95,-1.81 -4.95,-4.82 v -7.27 h -2.82 v -3.74 h 0.79 c 1.65,0 2.41,-1.08 2.41,-2.47 v -2.19 h 3.81 z" />
    </g>
  </g>
</svg>
