<?xml version="1.0" encoding="UTF-8" standalone="no"?>
<svg
   xmlns:dc="http://purl.org/dc/elements/1.1/"
   xmlns:cc="http://creativecommons.org/ns#"
   xmlns:rdf="http://www.w3.org/1999/02/22-rdf-syntax-ns#"
   xmlns:svg="http://www.w3.org/2000/svg"
   xmlns="http://www.w3.org/2000/svg"
   xmlns:sodipodi="http://sodipodi.sourceforge.net/DTD/sodipodi-0.dtd"
   xmlns:inkscape="http://www.inkscape.org/namespaces/inkscape"
   width="100%"
   height="100%"
   viewBox="0 0 1920 1080"
   version="1.1"
   id="svg14"
   sodipodi:docname="Tamro.svg"
   inkscape:version="1.0.2 (e86c870879, 2021-01-15)">
  <metadata
     id="metadata20">
    <rdf:RDF>
      <cc:Work
         rdf:about="">
        <dc:format>image/svg+xml</dc:format>
        <dc:type
           rdf:resource="http://purl.org/dc/dcmitype/StillImage" />
      </cc:Work>
    </rdf:RDF>
  </metadata>
  <defs
     id="defs18" />
  <sodipodi:namedview
     pagecolor="#ffffff"
     bordercolor="#666666"
     borderopacity="1"
     objecttolerance="10"
     gridtolerance="10"
     guidetolerance="10"
     inkscape:pageopacity="0"
     inkscape:pageshadow="2"
     inkscape:window-width="1920"
     inkscape:window-height="1017"
     id="namedview16"
     showgrid="false"
     inkscape:zoom="0.67760417"
     inkscape:cx="960"
     inkscape:cy="540"
     inkscape:window-x="-8"
     inkscape:window-y="-8"
     inkscape:window-maximized="1"
     inkscape:current-layer="svg14" />
  <style
     id="style2">
		tspan { white-space:pre }
		.shp0 { fill: #000000 } 
		.shp1 { fill: #ffffff } 
		.shp2 { fill: none } 
	</style>
  <path
     id="Layer 1"
     class="shp0"
     d="M 423.26057,338.40772 H 1496.7394 V 741.59227 H 423.26057 Z"
     style="stroke-width:1.25995" />
  <g
     id="a71d8686-3992-400b-a7a4-88842e23a573"
     transform="matrix(1.2599517,0,0,1.2599517,423.36499,338.80248)">
    <g
       id="a82c2500-0fe3-455e-ad05-2212bb8cade3">
      <path
         id="Layer"
         fill-rule="evenodd"
         class="shp1"
         d="m 699.06,238.68 c 0.01,0 0.02,0 0.02,0 0.01,0 0.02,0 0.03,0 m -0.03,0 c -45.26,-0.01 -71.97,-27.51 -71.97,-72.5 0,-45.24 27.76,-74.61 73,-74.61 44.71,0 71.71,27.52 71.71,72.76 0,45.23 -27.75,74.34 -72.74,74.35 z m 33.31,-73.56 c 0,-25.93 -12.43,-40.21 -32.8,-40.21 -20.64,0 -33.08,14.28 -33.08,40.21 0,25.93 12.44,40.22 33.08,40.22 20.37,0 32.8,-14.29 32.8,-40.22 z M 609.34,91.57 c 1.05,-0.02 2.1,0.01 3.14,0.06 1.05,0.06 2.1,0.16 3.14,0.29 1.04,0.14 2.07,0.31 3.1,0.51 1.03,0.21 2.05,0.45 3.06,0.73 v 38.1 c -3.7,-1.33 -9,-1.86 -13.76,-1.86 -12.17,0 -24.6,5.82 -33.87,20.11 v 85.2 H 535 V 95.8 h 33.09 l 2.91,14.82 c 11.11,-13.5 24.08,-19.05 38.36,-19.05 z m -96.29,116.15 c 0.72,0.01 1.45,-0.02 2.17,-0.08 0.72,-0.06 1.43,-0.16 2.14,-0.3 0.71,-0.13 1.42,-0.3 2.11,-0.5 0.7,-0.2 1.38,-0.44 2.05,-0.71 v 28.54 c -7.15,2.38 -16.41,3.44 -24.61,3.44 -28.31,0 -31.75,-17.43 -31.75,-39.43 v -49.47 c 0,-16.14 -5.57,-24.08 -18,-24.08 -8.18,0 -16.12,4 -23,13 v 96.58 H 385 v -87.84 c 0,-14.82 -6.61,-21.7 -19.31,-21.7 -8.73,0 -16.67,3.7 -23.29,12.7 v 96.84 H 303.25 V 95.8 h 25.13 l 6.86,14.55 c 11.64,-12.7 25.45,-18.52 44.45,-18.52 18.79,0 30.69,8 37.31,18 11.64,-12.71 25.39,-18 43.39,-18 32.28,0 44.18,22.49 44.18,51.6 v 53.44 c 0,8.2 3.18,10.85 8.47,10.85 z m -233.08,0 c 0.84,0.01 1.67,-0.02 2.51,-0.09 0.83,-0.07 1.66,-0.18 2.48,-0.34 0.82,-0.15 1.63,-0.35 2.44,-0.59 0.8,-0.24 1.59,-0.51 2.36,-0.83 v 28.28 c -2.11,0.67 -4.25,1.26 -6.41,1.76 -2.16,0.51 -4.34,0.93 -6.53,1.26 -2.19,0.34 -4.39,0.59 -6.61,0.75 -2.21,0.16 -4.42,0.24 -6.64,0.23 -16.67,0 -24.84,-6.09 -28.84,-15.35 -10.59,10.58 -25.93,15.88 -42.07,15.88 -39.16,0 -58.21,-28.84 -58.21,-72.24 0,-43.87 24.87,-74.87 70.11,-74.87 14.03,0 27.52,3.17 38.1,10.32 L 246.1,95.8 H 271 v 100.01 c 0,8.21 2.38,11.91 9,11.91 z m -77.26,-2.37 c 2.73,0.01 5.45,-0.28 8.12,-0.86 2.67,-0.59 5.27,-1.45 7.75,-2.59 2.48,-1.14 4.84,-2.54 7.02,-4.19 2.18,-1.64 4.17,-3.52 5.95,-5.59 V 131 c -1.85,-1.03 -3.77,-1.93 -5.74,-2.71 -1.96,-0.78 -3.98,-1.43 -6.03,-1.95 -2.06,-0.52 -4.14,-0.9 -6.24,-1.15 -2.11,-0.25 -4.22,-0.36 -6.34,-0.33 -21.96,0 -33.34,15.87 -33.34,40.48 0,25.18 9,40 28.84,40 z M 0,49.5 H 159.54 V 85 H 100.28 V 234.71 H 59.53 V 85 H 15.07 C 2.1,85 0,77.41 0,66.16 Z" />
      <path
         id="path6"
         fill-rule="evenodd"
         class="shp1"
         d="m 566.17,309.39 v 9.24 h -3.42 v -9.1 l -9.48,-16.06 h 4.27 l 4.6,8.23 c 0.94,1.69 1.8,3.41 2.41,4.64 0.5,-1.05 1.3,-2.59 2.45,-4.68 l 4.58,-8.19 h 3.95 z m -16.91,-15.92 v 25.16 h -3.13 l -14,-19.7 c 0,0.72 0,18.98 0,19.66 h -3.31 v -25.16 h 3.13 l 14,19.69 c 0,-0.71 0,-18.96 0,-19.65 z m -30.8,18.36 h -10.68 l -2.55,6.8 h -3.74 l 10.07,-25.16 h 3.23 l 10.1,25.16 h -3.84 z m -1.12,-2.94 -4.2,-11.22 -4.24,11.22 z m -25.57,-15.4 c 5.57,0 9.27,2.48 9.27,8.59 0,5.53 -3.79,8.77 -10,8.77 -0.5,0.02 -1,0.01 -1.51,-0.02 -0.5,-0.03 -1,-0.09 -1.49,-0.18 -0.5,-0.08 -0.99,-0.19 -1.47,-0.32 -0.49,-0.14 -0.96,-0.3 -1.43,-0.48 v 8.77 h -3.45 v -25.16 h 10.1 z m -1.13,14.24 c 4.42,0 6.9,-2.02 6.9,-5.57 0,-4.17 -2.3,-5.54 -5.71,-5.54 h -6.69 v 10 c 0.43,0.19 0.87,0.36 1.32,0.51 0.45,0.14 0.91,0.26 1.37,0.36 0.46,0.09 0.93,0.16 1.4,0.2 0.47,0.04 0.94,0.06 1.41,0.05 z m -15.78,-14.26 v 25.16 h -3.27 v -13.55 l 0.11,-6.26 c -0.61,1.09 -1.22,2.09 -1.87,3.09 l -6.21,9.6 h -2.23 l -6.26,-9.6 c -0.57,-0.87 -1.15,-1.87 -1.72,-2.87 l 0.07,6.07 v 13.54 h -3.27 v -25.16 h 3.13 l 9.27,14.23 9.16,-14.23 z m -29.87,12.6 c 0,8.05 -4.57,13.3 -12,13.3 -7.43,0 -12,-5.25 -12,-13.3 0,-8.05 4.53,-13.3 12,-13.3 7.47,0 12,5.25 12,13.3 z m -20.51,0 c 0,6.32 3.33,10.24 8.51,10.24 5.18,0 8.49,-3.91 8.49,-10.24 0,-6.33 -3.31,-10.25 -8.49,-10.25 -5.21,0 -8.51,3.93 -8.51,10.25 z m -13.52,13.31 c -7.9,0 -12.33,-5 -12.33,-12.91 0,-8.77 5.4,-13.69 12.84,-13.69 0.55,-0.02 1.1,0 1.65,0.04 0.55,0.04 1.09,0.11 1.63,0.22 0.54,0.1 1.08,0.23 1.6,0.39 0.53,0.16 1.04,0.35 1.55,0.57 v 3.19 c -0.49,-0.23 -1,-0.43 -1.51,-0.61 -0.52,-0.17 -1.05,-0.32 -1.58,-0.43 -0.53,-0.12 -1.07,-0.2 -1.61,-0.26 -0.54,-0.05 -1.09,-0.08 -1.63,-0.07 -6,0 -9.41,3.85 -9.41,10.64 0,5.68 3.09,9.85 8.95,9.85 0.61,0.01 1.22,-0.02 1.82,-0.08 0.6,-0.07 1.2,-0.18 1.79,-0.32 0.59,-0.15 1.17,-0.33 1.74,-0.55 0.57,-0.22 1.12,-0.48 1.65,-0.77 v 3.16 c -0.55,0.27 -1.12,0.51 -1.7,0.71 -0.58,0.21 -1.17,0.38 -1.77,0.52 -0.59,0.13 -1.2,0.23 -1.81,0.3 -0.61,0.06 -1.23,0.1 -1.84,0.09 z m -31.76,-13.45 9,12.73 h -4.14 l -7,-10.35 -7,10.35 h -4 l 9,-12.65 -9,-12.51 h 4.17 l 6.94,10.17 7.08,-10.17 h 4 z m -20.42,-12.46 h 3.45 v 25.19 h -3.45 z m -6.65,0 v 25.16 H 349 l -14,-19.7 c 0,0.72 0,18.98 0,19.66 h -3.47 v -25.16 h 3.13 l 14.05,19.69 c 0,-0.71 0,-18.93 0,-19.62 z m -25.6,22 v 3.17 H 310.4 v -25.16 h 15.97 v 3.16 H 313.9 v 7.69 H 325 v 3.17 h -11.29 v 8 z m -21.35,-9.42 c 0,8.05 -4.56,13.3 -12,13.3 -7.44,0 -12,-5.25 -12,-13.3 0,-8.05 4.52,-13.3 12,-13.3 7.48,0 12,5.25 12,13.3 z m -20.52,0 c 0,6.32 3.34,10.24 8.52,10.24 5.18,0 8.48,-3.91 8.48,-10.24 0,-6.33 -3.3,-10.25 -8.48,-10.25 -5.21,0 -8.52,3.93 -8.52,10.25 z m -8.73,-12.58 v 25.16 h -3.45 v -11.14 h -13.59 v 11.14 h -3.45 v -25.16 h 3.45 v 10.85 h 13.59 v -10.85 z m -34.38,0.02 c 5.57,0 9.27,2.48 9.27,8.59 0,5.53 -3.79,8.77 -10,8.77 -0.5,0.02 -1,0.01 -1.51,-0.02 -0.5,-0.03 -1,-0.09 -1.49,-0.18 -0.5,-0.08 -0.99,-0.19 -1.47,-0.32 -0.49,-0.14 -0.96,-0.3 -1.43,-0.48 v 8.77 h -3.45 v -25.16 h 10.1 z m -1.13,14.24 c 4.42,0 6.9,-2.02 6.9,-5.57 0,-4.17 -2.3,-5.54 -5.71,-5.54 h -6.69 v 10 c 0.43,0.19 0.87,0.36 1.32,0.51 0.45,0.14 0.91,0.26 1.37,0.36 0.46,0.09 0.93,0.16 1.4,0.2 0.47,0.04 0.94,0.06 1.41,0.05 z m -26.92,4.12 h -10.67 l -2.56,6.8 h -3.73 l 10.06,-25.16 h 3.21 l 10.1,25.16 h -3.84 z m -1.13,-2.94 -4.21,-11.22 -4.24,11.22 z" />
      <path
         id="path8"
         class="shp2"
         d="M 0,0.3 H 851.17 V 319.34 H 0 Z" />
      <path
         id="path10"
         fill-rule="evenodd"
         class="shp1"
         d="m 808.13,24.06 c 42.19,-13.23 47.46,-2.37 41.85,13.79 -3.12,9 -9.86,16.13 -14,24.58 -1.88,3.8 -3.3,8 -2.79,12.33 0.61,5.12 3.8,8.63 7.35,12.06 4,3.89 8.16,8.34 10,13.74 0.37,1.1 0.64,2.24 0.79,3.39 0.15,1.16 0.19,2.33 0.12,3.49 -0.08,1.16 -0.27,2.31 -0.57,3.44 -0.3,1.12 -0.71,2.21 -1.22,3.26 -2.93,6 -8.54,10.44 -14.32,13.54 -12.62,6.76 -29,13.83 -42.85,6.35 -8.46,-4.57 -13.16,-13.86 -17.19,-21.15 -9.54,-17.17 -24.2,-26.4 -42.21,-32.11 -44,-13.93 -1.86,-29.65 5.15,-41.49 7.59,-12.84 0.46,-43.28 16.63,-38.85 16.17,4.43 29.01,31.24 53.26,23.63 z m 23.59,24.78 c 9.15,-13.44 16,-27.61 -26.21,-14.37 -24.26,7.61 -38.52,-17 -47.36,-16.92 -9,0.13 -4.75,29.51 13.68,66 15.81,31.28 28.55,40.89 43.82,35.52 16.9,-5.93 30.46,-11.84 10.15,-30.45 -18.07,-16.06 -3.36,-26.15 5.92,-39.78 z" />
    </g>
  </g>
</svg>
